<?xml version="1.0" encoding="UTF-8" standalone="no"?>
<svg
   xmlns:dc="http://purl.org/dc/elements/1.1/"
   xmlns:cc="http://creativecommons.org/ns#"
   xmlns:rdf="http://www.w3.org/1999/02/22-rdf-syntax-ns#"
   xmlns:svg="http://www.w3.org/2000/svg"
   xmlns="http://www.w3.org/2000/svg"
   xmlns:sodipodi="http://sodipodi.sourceforge.net/DTD/sodipodi-0.dtd"
   xmlns:inkscape="http://www.inkscape.org/namespaces/inkscape"
   id="__base_trim_ignore"
   width="908.7"
   height="908.9"
   fill-rule="evenodd"
   viewBox="0 0 9465.3 9467.4"
   clip-rule="evenodd"
   image-rendering="optimizeQuality"
   shape-rendering="geometricPrecision"
   text-rendering="geometricPrecision"
   version="1.1"
   inkscape:version="0.91 r13725"
   sodipodi:docname="__base_trim.svg">
  <metadata
     id="metadata76">
    <rdf:RDF>
      <cc:Work
         rdf:about="">
        <dc:format>image/svg+xml</dc:format>
        <dc:type
           rdf:resource="http://purl.org/dc/dcmitype/StillImage" />
        <dc:title></dc:title>
      </cc:Work>
    </rdf:RDF>
  </metadata>
  <sodipodi:namedview
     pagecolor="#ffffff"
     bordercolor="#666666"
     borderopacity="1"
     objecttolerance="10"
     gridtolerance="10"
     guidetolerance="10"
     inkscape:pageopacity="0"
     inkscape:pageshadow="2"
     inkscape:window-width="1265"
     inkscape:window-height="635"
     id="namedview74"
     showgrid="false"
     inkscape:zoom="0.36720694"
     inkscape:cx="289.04822"
     inkscape:cy="459.48029"
     inkscape:window-x="0"
     inkscape:window-y="0"
     inkscape:window-maximized="0"
     inkscape:current-layer="g7" />
  <defs
     id="defs26580">
    <style
       id="style26900"><![CDATA[
    @font-face { font-family:"Raleway";src:url("#FontID1") format(svg)}
    @font-face { font-family:"Arial";src:url("#FontID0") format(svg)}
    .str12 {stroke:#FEFEFE;stroke-width:7.39764}
    .str10 {stroke:#383332;stroke-width:12.9173}
    .str0 {stroke:#B6B6BB;stroke-width:13.8898}
    .str4 {stroke:#383332;stroke-width:15.8071}
    .str14 {stroke:#383332;stroke-width:17.2244}
    .str3 {stroke:#383332;stroke-width:17.437}
    .str11 {stroke:#383332;stroke-width:18.6457}
    .str1 {stroke:#383332;stroke-width:19.7756}
    .str8 {stroke:#383332;stroke-width:21.5315}
    .str7 {stroke:#383332;stroke-width:25.8386}
    .str6 {stroke:#383332;stroke-width:30.5394}
    .str9 {stroke:#383332;stroke-width:34.4488}
    .str13 {stroke:#383332;stroke-width:43.063}
    .str5 {stroke:#383332;stroke-width:64.5945}
    .str2 {stroke:#383332;stroke-width:91.6811}
    .fil11 {fill:none;fill-rule:nonzero}
    .fil6 {fill:#383332}
    .fil4 {fill:#E7992F}
    .fil3 {fill:#949595}
    .fil5 {fill:#D5D5D5}
    .fil9 {fill:#383332;fill-rule:nonzero}
    .fil1 {fill:#575658;fill-rule:nonzero}
    .fil8 {fill:#E7A56F;fill-rule:nonzero}
    .fil7 {fill:#FCD967;fill-rule:nonzero}
    .fil10 {fill:#FDDF84;fill-rule:nonzero}
    .fil2 {fill:#FEFEFE;fill-rule:nonzero}
    .fil0 {fill:url(#id0);fill-rule:nonzero}
    .fnt0 {font-weight:bold;font-size:138.886;font-family:'Arial'}
    .fnt1 {font-weight:bold;font-size:239.988;font-family:'Arial'}
    .fnt4 {font-weight:bold;font-size:239.988;font-family:'Arial'}
    .fnt3 {font-weight:normal;font-size:396.744;font-family:'Raleway'}
    .fnt2 {font-weight:normal;font-size:534.323;font-family:'Raleway'}
   ]]></style>
    <style
       id="style26900-5"><![CDATA[
    @font-face { font-family:"Raleway";src:url("#FontID1") format(svg)}
    @font-face { font-family:"Arial";src:url("#FontID0") format(svg)}
    .str12 {stroke:#FEFEFE;stroke-width:7.39764}
    .str10 {stroke:#383332;stroke-width:12.9173}
    .str0 {stroke:#B6B6BB;stroke-width:13.8898}
    .str4 {stroke:#383332;stroke-width:15.8071}
    .str14 {stroke:#383332;stroke-width:17.2244}
    .str3 {stroke:#383332;stroke-width:17.437}
    .str11 {stroke:#383332;stroke-width:18.6457}
    .str1 {stroke:#383332;stroke-width:19.7756}
    .str8 {stroke:#383332;stroke-width:21.5315}
    .str7 {stroke:#383332;stroke-width:25.8386}
    .str6 {stroke:#383332;stroke-width:30.5394}
    .str9 {stroke:#383332;stroke-width:34.4488}
    .str13 {stroke:#383332;stroke-width:43.063}
    .str5 {stroke:#383332;stroke-width:64.5945}
    .str2 {stroke:#383332;stroke-width:91.6811}
    .fil11 {fill:none;fill-rule:nonzero}
    .fil6 {fill:#383332}
    .fil4 {fill:#E7992F}
    .fil3 {fill:#949595}
    .fil5 {fill:#D5D5D5}
    .fil9 {fill:#383332;fill-rule:nonzero}
    .fil1 {fill:#575658;fill-rule:nonzero}
    .fil8 {fill:#E7A56F;fill-rule:nonzero}
    .fil7 {fill:#FCD967;fill-rule:nonzero}
    .fil10 {fill:#FDDF84;fill-rule:nonzero}
    .fil2 {fill:#FEFEFE;fill-rule:nonzero}
    .fil0 {fill:url(#id0);fill-rule:nonzero}
    .fnt0 {font-weight:bold;font-size:138.886;font-family:'Arial'}
    .fnt1 {font-weight:bold;font-size:239.988;font-family:'Arial'}
    .fnt4 {font-weight:bold;font-size:239.988;font-family:'Arial'}
    .fnt3 {font-weight:normal;font-size:396.744;font-family:'Raleway'}
    .fnt2 {font-weight:normal;font-size:534.323;font-family:'Raleway'}
   ]]></style>
  </defs>
  <g
     id="g7"
     stroke="#383332"
     fill-rule="nonzero"
     fill="none">
    <g
       style="clip-rule:evenodd;fill-rule:evenodd;image-rendering:optimizeQuality;shape-rendering:geometricPrecision;text-rendering:geometricPrecision"
       id="g6073"
       transform="translate(2274.3347,3129.059)">
      <path
         style="fill:#fcd967;fill-rule:nonzero"
         inkscape:connector-curvature="0"
         class="fil7"
         d="m -394.73824,-1708.8549 c -24,11 -47,23 -70,37 -23,13 -45,27 -67,43 -21,14 -43,30 -63,48 -20,16 -40,34 -59,53 -19,19 -37,38 -54,59 -17,20 -33,41 -48,63 -15,22 -29,44 -43,67 -13,23 -25,47 -36,71 -12,24 -21,49 -31,73 -9,25 -17,50 -24,76 -7,26 -13,51 -17,77.0001 -5,26 -9,52.00003 -10,79.00003 -3,26 -4,53 -4,79 0,27 1,53 4,80 2,26 5,53 10,78 4,26 10,52 17,77 7,25 15,51 24,75 9,25 19,49 31,74 11,24 23,47 37,70 13,23 27,45 43,67 15,21 30,43 48,63 16,20 35,40 53,59 19,19 38,37 59,54 14,12 28,23 42,33 -1,2 -3,4 -4,7 -18,-8 -36,-15 -55,-23 -25,-9 -49,-17 -75,-24 -26,-7 -52,-13 -78,-17 -26,-5 -52,-8 -78,-10 -27,-2 -53,-4 -79,-4 -27,0 -53,1 -79.99996,3 -26,2 -53,6 -78,11 -26,4 -52,10 -77,17 -26,6 -51,15 -76,24 -25,9 -49,19 -73,31.00001 -24,11 -47,23 -71,37 -23,13.000001 -45,27.000001 -67,43 -22,15 -43,31 -63,48 -20,17.0000007 -40,35.000002 -58,53.999999 -19,17.999997 -37,37.999994 -54,57.999991 -17,20 -33,41 -48,63 -15,21 -29,43 -43,67 -13,23 -25,46 -37,71 -11,24 -21,48 -31,73 -9,25 -17,50 -24,76 -7,26 -13,52 -17,77 -5,26 -8,53 -10,78 -2,27 -4,54 -4,80 0,27 1,53 3,79 2,26 6,53 11,78 4,26 10,53 17,78.00003 6,24.99996 15,50.99992 24,74.99988 9,24.99996 19,48.99996 31,72.99996 11,24 23,47 37,71 13,23 27,45 43,67 15,21 31,43 48,63 17,20 35,40 54,58 19,19 38,37 59,54 20,17 41,33 63,49 22,15 43,29 67,42 23,13 46,25 71,37 24,11 48,21 73,31 25,9 50,17 76,24 26,7 52,13 77,17 18,3 36,6 53,8 -1,3 -1,5 -1,7 -19,2 -39,5 -58,9 -26,5 -52,10 -77,17 -26,7 -51,15 -75,24 -25,9 -50,19 -74,31 -24,11 -48,23 -70,36 -23,13 -46,28 -67,43 -22,15 -42,31 -63,48 -20,17 -40,35 -58,54 -19,19 -37,38 -54,59 -17,20 -33,41 -49,63 -15,22 -29,44 -43,67 -13,23 -25,46 -36,70 -12,24 -21,49 -31,74 -9,25 -17,49 -24,75 -7,25 -13,51 -17,77 -5,26 -9,52 -11,78 -2,27 -3,53 -3,80 0,26 1,53 4,79 2,26 6,53 10,79 5,26 10,52 17,78 7,26 15,51 24,76 9,25 19,49 31,73 11,24 23,48 37,70 13,23 27,46 42,67 16,22 31,43 48,63 17,20 35,40 54,59 19,19 38,37 59,53 20,17 41,33 62,49 22,15 44,29 67,43 23,13 47,25 71,37 24,11 48,21 73,30 25,9 49,17 75,24 25,7 52,13 78,18 26,5 52,8 78,10 25.99996,2 52.99996,3 78.99996,3 27,0 53,-1 80,-4 26,-2 52,-6 78,-10 26,-5 52,-10 78,-17 26,-7 51,-15 76,-24 17,-6 34,-13 49,-20 1,3 3,5 4,7 -15,11 -31,23 -46,36 -20,17 -40,35 -59,54 -19,19 -37,38 -53,59 -18,20 -34,41 -48,63 -16,22 -30,44 -43,67 -13,23 -25,46 -37,70 -11,24 -21,49 -30,74 -9,25 -17,50 -24,75 -7,26 -13,52 -17,77 -5,26 -9,53 -11,79 -2,26 -3,53 -3,79 0,27 1,53 4,80 2,26 5,53 10,78 4,26 10,52 17,78 7,25 15,50 24,75 9,25 19,49 30,74 11,24 23,47 37,70 13,23 27,45 43,67 15,21 31,42 48,63 17,20 35,40 53,59 19,19 38,37 59,53 20,18 41,34 63,49 22,16 44,30 67,43 23,13 46,26 70,37 24,12 48,22 73,31 25,9 50,17 76,24 25,7 51,13 77,17 26,5 52,9 78,10 26.999995,3 52.999995,4 79.999995,4 26.0000003,0 53,-1 79,-4 26,-2 53.000005,-5 79.000005,-10 26,-4 52,-10 77,-17 26,-7 51,-15 76,-24 25,-9 48.9997,-19 72.9994,-31 24.0001,-11 47.0001,-23 71.0001,-37 23,-13 45,-27 67,-43 22,-15 43,-31 63,-48 20,-16 40,-34 58,-53 19,-19 37,-39 54,-59 12,-14 23,-27 33,-42 2,1 4,3 7,4 -8,18 -15,36 -22,54 -9,25 -17,50 -24,76 -7,26 -13,52 -17,77 -5,26 -8,53 -10,78 -3,27 -4,53 -4,80 0,27 1,53 3,79 2,26 6,53 11,79 4,26 10,52 17,78 7,25 15,51 24,75 9,25 19,49 31,74 11,24 23,47 36,70 13,23 28,45 43,67 15,21 32,43 48,63 17,20 35,40 54,58 19,19 38,37 59,54 20,17 41.00004,33 63.00004,48 21,15 43,29 67,43 23,13 46,25 71,37 24,11 48,21 73,30 25,9 50,17 76,24 26,7 52,13 77,17 26,5 52,8 78,10 27,3 53,4 80,4 26,0 53,-1 79,-3 26,-2 53,-5 78,-10 26,-5 53,-10 78,-18 26,-7 51,-15 75,-24 25,-9 49,-19 73,-30 24,-11 48,-23 71,-37 23,-13 45,-27 67,-42 21,-15 43,-31 63,-49 21,-17 40,-34 59,-53 19,-19 37,-38 53,-59 17,-20 33,-41 48,-63 15,-21 30,-44 43,-67 13,-22 25,-46 37,-70 11,-24 21,-48 30,-73 9,-25 17,-50 24,-76 7,-26 13,-52 17,-78 3,-18 6,-36 8,-53 l 7,0 c 2,19 5,39 9,58 5,26 10,52 17,77 7,26 15,51 24,76 9,25 19,50 31,73 11,25 23,48 37,71 13,23 28,45 43,67 15,22 31,43 48,63 17,20 35,40 54,58 18,19 38,37 58,54 20,17 41,33 63,48 21,15 44,29 67,43 23,13 47,26 71,37 24,11 48,22 73,31 25,9 50,17 76,24 25,7 51,13 78,17 26,5 52,8 78,11 26,2 53,3 80,3 26,0 52,-1 79,-4 26,-2 52,-5 79,-10 26,-5 52,-10 77,-17 26,-7 51,-15 76,-24 25,-9 49,-19 73,-31 24,-11 47,-23 70,-37 23,-13 46,-27 67,-43 22,-15 43,-31 63,-48 20,-17 40,-35 59,-54 18,-18 36,-38 53,-59 17,-20 33,-41 49,-63 15,-21 29,-44 42,-67 13,-23 26,-47 37,-71 12,-24 21,-48 31,-73 9,-25 17,-50 24,-76 7,-25 13,-51 17,-77 5,-26 9,-52 11,-79 2,-26 3,-53 3,-80 0,-26 -1,-52 -4,-79 -2,-26 -6,-52 -10,-78 -5,-26 -10,-52 -17,-77 l 0,-1 c -7,-26 -15,-51 -24,-75 -7,-17 -13,-33 -20,-50 2,-1 4,-2 7,-3 12,15 24,31 37,46 16,20 35,40 53,59 19,19 38,37 59,53 20,18 41,34 63,48 21,16 43,30 66,43 23,14 47,26 71,37 24,12 48,22 73,31 25,9 50,17 76,24 25,7 51,13 77,17 26,5 53,9 79,10 26,3 53,4 79,4 26,0 53,-1 79,-4 27,-2 53,-5 79,-10 26,-4 52,-10 77,-17 25,-7 51,-15 76,-24 25,-9 49,-19 73,-31 24,-11 48,-23 71,-37 23,-13 45,-27 66,-43 22,-15 43,-31 63,-49 20,-16 39,-34 58,-53 l 1,0 c 19,-19 37,-38 53,-58 18,-20 34,-41 48,-63 16,-21 30,-44 43,-67 13,-23 25,-46 37,-70 11,-24 21,-49 30,-74 9,-25 17,-50 24,-75 7,-26 13,-52 17,-78 5,-26 9,-52 11,-78 2,-26 4,-53 4,-79 0,-27 -1,-53 -4,-80 -2,-26 -5,-53 -10,-78 -4,-26 -10,-52 -17,-77 -6,-25 -14,-51 -24,-76 -9,-25 -19,-49 -30,-74 -11,-24 -23,-47 -37,-70 -13,-23 -27,-45 -43,-67 -15,-21 -31,-43 -48,-63 -17,-20 -35,-39 -53,-59 -19,-19 -38,-37 -59,-54 -14,-12 -28,-23 -43,-33 1,-2 3,-4 4,-7 18,8 36,15 55,22 25,9 49,17 75,24 l 1,0 c 26,7 52,12 77,17 26,5 53,8 78,10 27,3 53,4 79,4 27,0 53,-1 80,-3 26,-2 52,-6 78,-11 26,-4 53,-10 78,-17 25,-7 51,-15 75,-24 25,-9 49,-19 73,-31 24,-11 47,-23 71,-36 23,-13 45,-28 67,-43 21,-15 42,-31 62,-49 21,-17 41,-35 59,-53 18,-19 37,-38 53,-59 17,-20 33,-41 48,-63 15,-22 30,-44 43,-67 13,-23 25,-46 37,-70 11,-24 21,-48 31,-73 9,-25 17,-50 24,-76 7,-26 13,-52 17,-77 5,-26 8,-53 10,-79 3,-27 4,-53 4,-79 0,-27 -1,-53 -3,-80 -2,-26 -6,-52 -11,-78 -4,-26 -10,-52 -17,-77 -6,-25 -15,-51 -24,-75 -9,-25 -19,-50 -31,-74 -11,-24 -23,-47 -37,-70 -13,-23 -27,-45 -43,-67 -15,-21 -31,-43 -49,-63 -16,-20 -35,-40 -53,-59 -19,-19 -38,-37 -59,-53 -20,-17 -41,-33 -63,-48 -21,-16 -43,-30 -67,-43 -23,-13 -46,-25 -71,-37 -24,-11 -48,-21 -73,-31 -25,-9 -50,-17 -76,-24 -26,-7 -52,-12 -77,-17 -18,-4 -36,-6 -53,-8 1,-3 1,-5 1,-7 19,-2 39,-5 58,-9 26,-5 52,-10 77,-17 26,-7 51,-15 76,-24 25,-9 49,-19 73,-31 24,-11 48,-23 70,-36 23,-13 46,-28 67,-43 22,-16 43,-31 63,-49 20,-17 40,-35 59,-53 19,-19 37,-38 54,-59 17,-20 33,-41 48,-63 15,-22 29,-44 43,-67 13,-23 26,-47 37,-71 12,-24 21,-48 31,-73 9,-24.99996 17,-49.99992 24,-74.99988 7,-24.99999 13,-51.99999 17,-77.99999 5,-26 9,-52 11,-78 2,-26 3,-53 3,-79 0,-26 -1,-53 -4,-80 -2,-26 -6,-52 -10,-78 -5,-26 -10,-52 -17,-78 -7,-26 -15,-51 -24,-76 -10,-25 -19,-50 -31,-73 -11,-24 -23,-48 -37,-71 -13,-23 -27,-45 -43,-67 -15,-22 -31,-43 -48,-63 -17,-20 -35,-38.999997 -54,-57.999994 -19,-18.999997 -38,-36.999994 -59,-53.9999953 -20,-17 -41,-33.0000007 -63,-48.0000007 -22,-15 -44,-29 -67,-42.999999 -23,-13 -47,-25.000001 -71,-36.000001 -24,-12 -49,-22 -74,-31.00001 -25,-10 -50,-17 -75,-24 -25,-7 -51,-13 -77,-17 -26,-5 -52,-9 -78,-11 -26,-2 -53,-3 -80,-3 -26,0 -53,1 -79,4 -26,2 -53,5 -79,10 -26,5 -51,10 -77,17 -26,7 -51,15 -75,24 -17,6 -34,12.00001 -50,20.00001 -1,-2 -3,-4 -4,-7 15,-11.00001 31,-23.00001 46,-36.00001 20,-17 40,-35 59,-53 19,-19 37,-38 53,-59 18,-20 33,-41 48,-63 16,-22 30,-44 43,-67 13,-23 26,-46 37,-70 12,-24 21,-48 31,-73 9,-25 17,-50 24,-75 7,-26 13,-52 17,-78 5,-26 9,-52 10,-78 3,-27 4,-53 4,-80 0,-26 -1,-53 -4,-79 -2,-26 -5,-53.00003 -10,-78.00003 -4,-26 -10,-52.0001 -17,-78.0001 -7,-26 -15,-51 -24,-75 -9,-25 -19,-49 -31,-73 -11,-24 -23,-48 -37,-71 -13,-23 -27,-45 -43,-67 -15,-22 -31,-43 -49,-63 -16,-19 -33,-38 -52,-57 l -2,-2 c -19,-19 -39,-37 -59,-54 -21,-18 -42,-34 -64,-49 -22,-15 -45,-30 -67,-43 -23,-14 -47,-26 -71,-37 -25,-11 -49,-21 -74,-30 -25,-9 -51,-17 -77,-24 -26,-7 -52,-13 -78,-16 -26,-5 -53,-8 -80,-10 -27,-2 -53,-3 -80,-3 -24,0 -48,1 -71,4 -26,2 -53,5 -78,10 -26,4 -52,10 -78,17 -26,7 -51,15 -75,24 -25,9 -49,19 -73,31 -24,11 -47,23 -71,37 -23,13 -45,27 -67,43 -22,15 -43,31 -63,48 -20,16 -39,35 -58,54 -19,19 -37,39 -53,59 -12,14 -23,27 -34,42 -2,-2 -4,-3 -7,-4 8,-18 15,-36 22,-54 9,-25 17,-49 24,-75 l 0,-1 c 7,-26 13,-51 17,-77 5,-26 8,-53 10,-79 3,-27 4,-53 4,-80 0,-27 -1,-53 -3,-80 -2,-26 -5,-53 -11,-78 -4,-26 -10,-52 -17,-78 -7,-26 -15,-51 -24,-76 -9,-25 -19,-50 -30,-73 -13,-28 -27,-54 -42,-80 -14,-23 -28,-45 -44,-66 -15,-22 -31,-43 -49,-63 -17,-20 -35,-39 -54,-58 -19,-19 -39,-37 -59,-53 -20,-17 -41,-33 -63,-48 -22,-15 -45,-29 -69,-42 -23,-13 -47,-25 -71,-36 -24,-11 -49,-21 -74,-29 -21,-7 -42,-14 -64,-20 -84,-22 -168,-32 -251,-31 -22,0 -43,1 -64,3 -26,2 -53,6 -79,11 -26,4 -52,10 -77,17 -26,7 -51,15 -76,24 -25,9 -49,19 -73,31 -24,11 -48,23 -71,37 -23,13 -45,27 -67,43 -22,15 -43,31 -63,49 -20,16 -40,34 -59,53 -19,18 -36,38 -54,59 -17,20 -33,41 -48,63 -15,21 -29,44 -43,67 -13,22 -25,46 -36,70 -11,24 -21,48 -31,74 -9,25 -17,50 -24,75 l 0,1 c -7,26 -13,51 -17,77 -3,18 -6,36 -8,54 l -7,0 c -2,-19 -5,-39 -8,-58 -4,-26 -10,-52 -17,-78 -7,-26 -15,-51 -24,-76 -9,-25 -19,-49 -31,-73 -11,-25 -23,-48 -37,-71 -13,-23 -27,-46 -43,-67 -15,-22 -31,-43 -48,-63 -17,-20 -35,-40 -53,-59 -19,-19 -38,-37 -59,-53 -20,-17 -41,-33 -63,-49 -22,-15 -45,-29 -67,-42 -23,-14 -47,-26 -71,-37 -24,-11 -48,-21 -73,-30 -24,-9 -50,-17 -76,-24 -25,-7 -51,-13 -77,-17 -26,-5 -52,-8 -78,-10 -27,-2 -53,-3 -80,-3 -26,0 -53,1 -79,4 -26,2 -52,5 -79,10 -26,5 -52,10 -77,17 -26,7 -51,15 -76,24 -25,9 -49,19 -73,31 -24,11 -48,23 -71,37 -23,13 -45,27 -67,42 -22,15 -43.00004,32 -63.00004,48 -20,17 -40,35 -58,54 -19,18 -37,38 -54,58 -17,20 -33,41 -48,63 -15,21 -30,44 -43,67 -13,23 -26,47 -37,71 -12,24 -21,48 -31,73 -9,24 -17,50 -24,75 -7,25 -13,52 -17,78 -5,26 -9,52 -11,78 -2,26 -3,53 -3,79 0,26 1,53 4,80 2,26 5,52 10,78 5,26 10,52 17,77 7,26 15,51 24,76 7,17 13,34 20,50 -2,1 -4,2 -7,3 -12,-15 -24,-31 -37,-46 -16,-20 -34,-40 -53,-59 -19,-19 -38,-37 -59,-53 -20,-18 -41,-34 -63,-48 -22,-16 -44,-30 -67,-43 -23,-13 -47,-26 -70,-37 -24.0001,-12 -48.9995,-21 -73.9995,-31 -25,-9 -50,-17 -76,-24 -26,-7 -52,-13 -78,-17 -26,-5 -52.000005,-8 -78.000005,-10 -27,-3 -53,-4 -80,-4 -26,0 -53,1 -79,3 -25.999995,2 -51.999995,6 -78.999995,11 -26,4 -52,10 -77,17 -25,6 -51,15 -76,24 -25,9 -49,19 -74,31 z M 7103.2613,368.14523 c -86,59 -142,152 -154,255 -3,28 0,141 -3,168 -26,330.99987 -202,633.99987 -475,820.99987 275,191 449,499 471,834 1,22 -1,89 -1,101 -3,122 56,238 156,306 -103,8 -199,61 -261,144 -17,23 -71,122 -86,144 -188,274 -492,448 -823,474 143,303 140,657 -9,957 -9,20 -44,77 -50,87 -65,104 -71,234 -19,343 -94,-44 -203,-47 -298,-6 -26,12 -123,70 -147,82 -300,143 -650,142 -949,-1 -28,333 -207,638 -486,825 -18,12 -77,44 -87,50 -108,58 -178,167 -188,288 -59,-86 -153,-142 -255,-154 -29,-3 -141,0 -168,-2 -331,-26 -634,-202 -822,-475 -191,275 -499,450 -833,471 -22,1 -89,-1 -101,-1 -123,-4 -238,56 -307,156 -8,-104 -61,-199 -144,-261 -23,-17 -122.00004,-71 -144.00004,-87 -273,-188 -448,-492 -474,-822 -302.9995,143 -656.9995,140 -956.9995,-8 -19,-10 -77,-45 -87,-51 -104,-65 -234,-71 -344,-18 45,-94 47,-203 6,-298 -11,-26 -69.99996,-123 -81.99996,-147 -143,-300 -142,-650 1,-949 -334,-28 -639,-207 -825,-486 -12,-18 -44,-77 -50,-87 -58,-108 -167,-178 -288,-188 86,-59 142,-153 154,-255 3,-28 1,-141 3,-168 26,-331 201,-634 475,-822 -275,-191 -449,-499 -471,-832.99987 -2,-22 0,-89 0,-101 3,-123 -56,-238 -156,-307 103,-8 199,-61 261,-144 17,-23 71,-121.999997 87,-143.999994 188,-273.000006 491,-448.000006 822,-474.000006 -143,-303 -140,-657.00013 8.99996,-957.00013 9,-19 45,-77 51,-87 65,-104 71,-234 19,-344 93,45 202,47 297,6 26,-11 123,-70 147,-81 299,-143 650,-142 948.9995,1 28,-333 207,-639 486,-825 19,-12 78.00004,-44 88.00004,-50 108,-58 178,-167 187,-288 59,85 153,142 255,153 29,3 141,1 168,3 331,26 633,202 821,475 191,-275 498,-450 833,-471 22,-1 89,0 101,1 122,4 238,-56 307,-156 8,103 61,199 144,261 23,17 122,71 144,87 273,188 448,492 474,822 303,-143 657,-140 957,8 20,10 77,45 87,51 104,65 234,71 344,18 -45,94 -47,203 -6,298 12,26 70,122 82,147 143,300.0001 142,650.00013 -1,949.00013 333,28 639,207 825,486.000003 12,18.999997 44,76.999997 50,87.999997 58,108 168,178 288,187 z"
         id="path27050" />
    </g>
  </g>
</svg>
