<?xml version="1.0" encoding="UTF-8" standalone="no"?>
<svg
   xmlns:dc="http://purl.org/dc/elements/1.1/"
   xmlns:cc="http://creativecommons.org/ns#"
   xmlns:rdf="http://www.w3.org/1999/02/22-rdf-syntax-ns#"
   xmlns:svg="http://www.w3.org/2000/svg"
   xmlns="http://www.w3.org/2000/svg"
   xmlns:sodipodi="http://sodipodi.sourceforge.net/DTD/sodipodi-0.dtd"
   xmlns:inkscape="http://www.inkscape.org/namespaces/inkscape"
   id="__base_background_wireframe"
   width="908.7"
   height="908.9"
   fill-rule="evenodd"
   viewBox="0 0 9465.3 9467.4"
   clip-rule="evenodd"
   image-rendering="optimizeQuality"
   shape-rendering="geometricPrecision"
   text-rendering="geometricPrecision"
   version="1.1"
   inkscape:version="0.91 r13725"
   sodipodi:docname="__base_background_wireframe.svg">
  <metadata
     id="metadata76">
    <rdf:RDF>
      <cc:Work
         rdf:about="">
        <dc:format>image/svg+xml</dc:format>
        <dc:type
           rdf:resource="http://purl.org/dc/dcmitype/StillImage" />
      </cc:Work>
    </rdf:RDF>
  </metadata>
  <sodipodi:namedview
     pagecolor="#ffffff"
     bordercolor="#666666"
     borderopacity="1"
     objecttolerance="10"
     gridtolerance="10"
     guidetolerance="10"
     inkscape:pageopacity="0"
     inkscape:pageshadow="2"
     inkscape:window-width="1265"
     inkscape:window-height="635"
     id="namedview74"
     showgrid="false"
     inkscape:zoom="0.73441389"
     inkscape:cx="-90.604879"
     inkscape:cy="454.45001"
     inkscape:window-x="0"
     inkscape:window-y="0"
     inkscape:window-maximized="0"
     inkscape:current-layer="g7" />
  <defs
     id="defs26580">
    <style
       id="style26900"><![CDATA[
    @font-face { font-family:"Raleway";src:url("#FontID1") format(svg)}
    @font-face { font-family:"Arial";src:url("#FontID0") format(svg)}
    .str12 {stroke:#FEFEFE;stroke-width:7.39764}
    .str10 {stroke:#383332;stroke-width:12.9173}
    .str0 {stroke:#B6B6BB;stroke-width:13.8898}
    .str4 {stroke:#383332;stroke-width:15.8071}
    .str14 {stroke:#383332;stroke-width:17.2244}
    .str3 {stroke:#383332;stroke-width:17.437}
    .str11 {stroke:#383332;stroke-width:18.6457}
    .str1 {stroke:#383332;stroke-width:19.7756}
    .str8 {stroke:#383332;stroke-width:21.5315}
    .str7 {stroke:#383332;stroke-width:25.8386}
    .str6 {stroke:#383332;stroke-width:30.5394}
    .str9 {stroke:#383332;stroke-width:34.4488}
    .str13 {stroke:#383332;stroke-width:43.063}
    .str5 {stroke:#383332;stroke-width:64.5945}
    .str2 {stroke:#383332;stroke-width:91.6811}
    .fil11 {fill:none;fill-rule:nonzero}
    .fil6 {fill:#383332}
    .fil4 {fill:#E7992F}
    .fil3 {fill:#949595}
    .fil5 {fill:#D5D5D5}
    .fil9 {fill:#383332;fill-rule:nonzero}
    .fil1 {fill:#575658;fill-rule:nonzero}
    .fil8 {fill:#E7A56F;fill-rule:nonzero}
    .fil7 {fill:#FCD967;fill-rule:nonzero}
    .fil10 {fill:#FDDF84;fill-rule:nonzero}
    .fil2 {fill:#FEFEFE;fill-rule:nonzero}
    .fil0 {fill:url(#id0);fill-rule:nonzero}
    .fnt0 {font-weight:bold;font-size:138.886;font-family:'Arial'}
    .fnt1 {font-weight:bold;font-size:239.988;font-family:'Arial'}
    .fnt4 {font-weight:bold;font-size:239.988;font-family:'Arial'}
    .fnt3 {font-weight:normal;font-size:396.744;font-family:'Raleway'}
    .fnt2 {font-weight:normal;font-size:534.323;font-family:'Raleway'}
   ]]></style>
  </defs>
  <g
     id="g7"
     stroke="#383332"
     fill-rule="nonzero"
     fill="none">
    <path
       id="base_fill"
       d="M9375.0047 3500.3c-120-9-230-79-288-187-6-10-38-69-50-88-186-279-491-458-825-486 143-299 143-649 1-949-11-25-70-121-82-147-41-95-39-204 6-298-109 52-239 46-344-18-10-6-67-41-87-51-301-148-655-151-957-8-26-331-200-635-474-822-22-16-121-69-144-87-83-62-136-157-144-261-69 100-184 160-307 156-12-1-79-2-101-1-335 21-642 196-833 471-188-273-491-449-821-475-27-2-140 1-168-3-102-12-196-68-255-153-9 121-80 230-187 288-10 5-69 38-88 50-279 186-458 492-486 825-299-143-650-144-949-1-24 12-121 70-147 81-95 41-204 39-297-6 52 109 46 239-19 344-6 10-41 68-51 87-149 300-151 654-9 957-330.99998 26-633.99998 201-821.99998 474-15 22-70 121-87 144-61 83-157 136-261.000005 144 100.000005 69 159.000005 184 156.000005 307 0 12-2 79 0 101 21 335 196 643 471 833-273 188-449 491-475 822-2 26 0 139-3 168-12 103-68 196-154.000005 255 121.000005 9 230.000005 80 288.000005 188 6 10 38 69 50 87 186 279 491 458 824.99998 486-143 299-144 649-1 949 12 24 70 121 82 147 41 95 39 204-6 298 109-52 239-46 344 18 10 6 68 41 87 51 301 149 655 151 957 8 26 331 201 634 474 822 22 15 121 69 144 87 83 62 136 157 144 261 69-100 184-160 307-156 12 0 79 2 101 1 335-22 643-197 833-471 188 273 491 449 822 475 27 2 139-1 168 2 102 12 196 68 255 154 9-121 80-231 188-288 10-5 69-38 87-50 279-187 458-492 486-825 299 143 649 143 949 1 24-12 121-70 147-82 95-41 204-39 298 6-52-109-46-239 19-343 6-10 41-68 50-87 149-301 151-655 9-957 331-26 634-200 823-474 15-22 69-121 86-144 62-83 157-136 261-144-100-68-159-184-156-306 0-12 2-79 1-101-22-334-197-642-471-834 273-187 449-491 475-821 2-27-1-140 3-168 12-103 68-196 154-255"
       class="fil11 str5"
       inkscape:label="#path27898"
       style="fill:#00ffff"
       stroke-width="64.59449768" />
    <path
       id="path27908"
       d="M1578.0047 5140.3c-8-2-15-3-23-6-116-31-207-107-260-205-6-10-10-20-15-31-24-53-36-112-36-172 0-3 0-5 1-7 1-32 5-65 14-98 7-25 15-49 26-72 5-11 11-22 17-33 73-124 207-202 351-205m-13 837c-2 0-4 0-7-1"
       class="fil11 str6"
       stroke-width="30.5394001" />
    <path
       id="path27910"
       d="M1725.0047 5058.3c-48 9-98 8-148-5-75-20-137-64-181-122-23-31-41-65-52-102-10-33-15-67-15-103v-4c1-26 4-52 11-78 3-9 5-18 9-27 13-37 33-71 58-100 77-93 202-140 327-112l15 3c1 0 3 1 4 1m151 89c3 2 5 5 7 7"
       class="fil11 str6"
       stroke-width="30.5394001" />
    <path
       id="path27912"
       d="M1825.0047 4904.3c-26 24-57 42-90 52-25 8-52 12-80 11-17-1-35-3-53-8-25-7-48-17-69-31s-41-32-55-51c-34-43-53-96-51-152v-2c1-5 1-10 1-15 1-13 3-26 7-39 9-35 27-67 49-93 16-19 36-35 57-48 19-11 38-20 59-25 21-6 43-9 66-9 19 0 40 3 60 8 8 2 17 5 25 9 30 11 56 29 77 50"
       class="fil11 str6"
       stroke-width="30.5394001" />
    <path
       id="path27914"
       d="M1742.0047 4839.3c-11 8-23 14-36 18-24 9-51 10-77 3-1 0-2 0-3-1-25-7-47-21-63-40-19-21-31-49-33-78-1-11 0-21 2-32 0-4 1-8 2-12 7-24 19-44 35-60 18-18 41-30 66-36 20-4 42-4 63 2 7 2 14 4 21 7 10 4 18 9 26 16m75 1308c12-9 24-18 36-25m348 755c-7 3-15 5-22 7-115 31-233 10-327-47-10-6-20-12-29-19-47-35-87-78-117-131-1-2-3-5-4-7-15-29-28-59-36-92-7-25-11-50-13-75-1-12-2-25-1-37 1-126 59-244 155-322m452 699c-1 1-2 1-2 2"
       class="fil11 str6"
       stroke-width="30.5394001" />
    <path
       id="path27916"
       d="M2292.0047 6519.3c-37 32-81 56-132 70-75 20-152 13-218-15-35-15-67-36-95-62-25-24-47-51-65-82 0-1-1-2-2-3-13-22-23-47-29-73-3-9-5-18-6-27-7-39-7-77-1-115 20-119 105-223 227-261 5-2 10-4 15-5 2 0 3-1 5-1m173 0l10 3"
       class="fil11 str6"
       stroke-width="30.5394001" />
    <path
       id="path27918"
       d="M2300.0047 6336.3c-10 33-28 64-52 90-18 20-39 37-64 49-16 9-32 15-50 20-25 7-51 9-75 8-25-1-50-7-74-16-50-20-93-57-120-106-1-1-1-2-1-3-2-4-5-8-6-12-6-12-10-25-14-38-9-36-10-71-4-105 5-24 13-48 25-70 10-19 23-37 38-52 15-16 33-30 53-41 17-10 36-18 55-23 9-3 18-4 26-5 31-5 63-3 93 4"
       class="fil11 str6"
       stroke-width="30.5394001" />
    <path
       id="path27920"
       d="M2196.0047 6322.3c-5 13-13 24-22 33-17 19-39 33-65 41-1 1-2 1-3 1-26 6-52 5-75-3-27-9-50-27-67-51-6-9-12-19-15-29-1-4-3-8-4-12-6-24-6-48 0-70 7-25 20-46 39-64m0 0c15-14 34-25 55-30 7-2 15-3 23-4 10-1 20-1 30 0m720 1093c5-12 11-24 18-36m677 483l-14 14c-85 85-196 125-307 122-12 0-23-1-35-2-58-7-115-25-167-55-2-1-4-3-7-4-27-17-54-37-77-61-18-18-35-38-49-58-7-10-14-21-20-32-63-111-71-244-25-361m741 385c-1 1-2 3-2 3"
       class="fil11 str6"
       stroke-width="30.5394001" />
    <path
       id="path27922"
       d="M3511.0047 7501.3c-15 46-42 89-79 126-55 55-124 87-196 95-38 5-77 3-115-6-33-7-65-20-95-38-1-1-3-1-4-2-22-13-43-29-62-48-6-7-13-13-18-20-27-31-46-65-59-101-42-113-20-245 66-339 3-4 7-8 11-12 1-1 2-2 4-3m151-85c3-1 6-2 10-3"
       class="fil11 str6"
       stroke-width="30.5394001" />
    <path
       id="path27924"
       d="M3428.0047 7338.3c8 34 8 70 0 104-5 26-16 51-31 75-9 15-20 29-33 42-19 19-39 34-62 44-23 12-47 19-72 23-53 8-109-2-156-31-1 0-2-1-3-1-4-2-8-5-12-8-11-7-22-16-31-26-26-26-44-56-55-88-9-24-13-49-13-74-1-22 1-43 7-64 5-21 13-42 25-61 9-17 22-33 36-47 7-7 13-12 20-18 25-20 53-34 82-42"
       class="fil11 str6"
       stroke-width="30.5394001" />
    <path
       id="path27926"
       d="M3330.0047 7378.3c1 13 0 27-3 40-5 25-17 48-36 68l-2 2c-19 19-42 30-67 35-28 6-57 2-83-10-10-5-19-11-28-18-4-2-7-5-10-8-17-17-29-38-34-60-7-25-6-51 2-75 7-20 17-38 33-54 6-6 11-10 18-15 8-6 17-11 26-15m1373 897c-125-73-203-207-205-352"
       class="fil11 str6"
       stroke-width="30.5394001" />
    <path
       id="path27930"
       d="M5142.0047 7890.3c-2 8-3 15-6 23-31 115-107 206-204 259-10 6-21 11-32 15-53 24-112 36-171 35h-7c-32-1-65-5-98-14-25-7-49-15-71-26-11-5-22-11-32-17m629-337v7"
       class="fil11 str6"
       stroke-width="30.5394001" />
    <path
       id="path27932"
       d="M5060.0047 7743.3c9 48 7 98-6 148-20 75-64 137-122 181-30 23-64 41-100 52-33 10-69 16-104 16-1 0-3 0-4-1-26-1-52-4-78-11-9-3-19-5-27-9-37-13-71-33-100-57-93-77-140-203-113-328 1-5 3-10 4-15 1-1 1-3 1-4m89-151c2-3 5-5 7-7"
       class="fil11 str6"
       stroke-width="30.5394001" />
    <path
       id="path27934"
       d="M4905.0047 7643.3c24 26 42 56 52 90 8 25 12 53 11 80 0 17-3 35-8 52-7 25-17 48-31 69s-31 40-51 55c-43 34-97 53-153 52h-1c-6 0-12 0-17-1-13-1-25-3-37-7-35-9-67-26-93-49-19-16-36-35-49-57-11-19-20-38-25-59-6-21-9-43-9-66 0-20 3-39 8-59 2-9 5-17 9-25 12-30 29-57 50-78"
       class="fil11 str6"
       stroke-width="30.5394001" />
    <path
       id="path27936"
       d="M4841.0047 7726.3c8 11 14 23 18 35 8 24 9 51 3 77-1 1-1 2-1 3-7 25-21 47-40 63-21 19-49 31-78 33-11 1-21 0-32-2-4 0-8-1-12-3-24-6-44-18-60-35-18-18-31-41-36-66-4-20-4-42 2-63 2-7 4-14 8-21m-2 1c4-10 9-18 15-26m1307-76c-9-11-16-23-23-34m754-349c3 8 5 15 7 23 31 115 11 233-47 327-5 10-12 19-19 29-34 47-78 87-131 117-2 1-4 3-7 3-28 16-59 28-92 37-25 7-50 11-74 13-13 2-26 2-38 2-126-1-244-59-322-155m700-453l3 6"
       class="fil11 str6"
       stroke-width="30.5394001" />
    <path
       id="path27938"
       d="M6520.0047 7177.3c32 36 57 81 70 131 20 75 13 151-15 218-15 35-36 67-61 95-24 25-51 47-83 65-1 1-2 1-3 2-23 13-47 23-73 29-9 3-19 5-29 7-39 7-77 7-114 0-120-21-223-105-261-227-2-5-3-10-5-15-1-2-1-3-1-5m2-174c0-3 2-7 3-10"
       class="fil11 str6"
       stroke-width="30.5394001" />
    <path
       id="path27940"
       d="M6338.0047 7168.3c34 10 64 28 90 52 20 18 37 39 49 64 9 15 15 32 20 49 7 25 9 51 8 75-2 25-7 50-16 73-20 50-57 93-106 120-1 1-2 1-3 1-4 3-9 5-14 7-12 6-24 10-37 13-36 9-71 10-105 4-25-4-49-13-70-25-19-10-36-23-52-38s-30-33-41-53c-10-17-18-35-23-55-3-9-4-18-5-27-5-31-3-63 4-93"
       class="fil11 str6"
       stroke-width="30.5394001" />
    <path
       id="path27942"
       d="M6323.0047 7273.3c12 5 23 12 33 21 19 17 34 39 41 65 1 1 1 2 1 3 7 26 5 52-3 75-9 27-27 50-50 67-9 7-19 12-30 15-4 2-8 3-12 4-24 7-48 6-70 0-25-7-47-20-64-39-14-15-25-34-31-55-2-8-3-15-4-23-1-10-1-20 0-30m1094-719c-13-5-25-11-36-18m483-678l14 14c85 84 125 196 122 306 0 11-1 23-2 34-7 58-25 116-55 167-1 2-3 4-4 7-17 28-37 54-61 78-18 18-37 34-58 49-10 7-21 14-31 20-110 63-243 71-359 25m382-739c1 1 2 1 2 2"
       class="fil11 str6"
       stroke-width="30.5394001" />
    <path
       id="path27944"
       d="M7502.0047 5956.3c47 15 90 42 127 79 55 55 87 125 95 196 5 38 3 77-6 115-7 34-20 66-38 96-1 1-1 2-2 3-13 22-29 43-48 62-7 7-14 13-20 19-31 26-65 46-101 58-113 43-245 20-339-66-4-3-8-7-12-11l-3-3m-86-151c-1-3-2-7-2-10"
       class="fil11 str6"
       stroke-width="30.5394001" />
    <path
       id="path27946"
       d="M7340.0047 6040.3c34-8 70-8 104-1 26 6 51 16 75 31 15 9 29 20 42 33 19 19 33 39 44 61 12 23 19 47 22 72 8 53-2 109-31 156 0 1-1 1-1 2m-1 2c-2 4-4 7-7 11-8 12-17 23-27 32-26 26-56 44-88 55-24 9-49 13-74 13-21 1-43-1-64-7-22-5-42-13-62-25-17-9-33-22-47-36-6-7-12-13-18-20-20-25-34-53-42-82"
       class="fil11 str6"
       stroke-width="30.5394001" />
    <path
       id="path27948"
       d="M7380.0047 6138.3c13-1 27-1 40 2 25 5 49 17 68 37l2 2c19 19 30 43 35 67 6 28 2 57-11 83-4 10-10 19-17 28l-9 9c-17 17-38 29-60 35-25 7-51 6-75-2-20-6-38-17-54-33-5-5-10-11-14-17-6-9-11-18-15-27m582-1170c-12 1-24 2-37 2m76-827c8 2 15 3 23 5 115 31 206 107 259 204 6 10 10 21 15 31 24 53 36 112 36 172 0 3 0 5-1 7-1 32-5 65-14 98-7 25-15 49-26 71-5 11-11 22-17 32-64 109-174 183-298 202m-38-830c2 0 5 0 7 1"
       class="fil11 str6"
       stroke-width="30.5394001" />
    <path
       id="path27950"
       d="M7744.0047 4408.3c48-9 98-8 148 6 75 20 137 64 181 122 23 31 41 65 52 102 10 33 15 67 15 103v4c-1 26-4 52-11 78-3 9-5 18-9 27-13 37-33 71-57 99-77 93-203 140-328 113-5-1-10-2-15-4-2-1-3-1-5-2m-149-88c-3-2-5-5-7-7"
       class="fil11 str6"
       stroke-width="30.5394001" />
    <path
       id="path27952"
       d="M7645.0047 4563.3c26-24 57-42 90-52 25-8 53-12 80-11 18 1 35 3 53 8 25 7 48 17 69 31s41 32 55 51c34 42 53 96 51 152v2c0 5 0 10-1 15-1 13-3 26-7 39-9 35-26 67-49 93-16 19-35 35-56 48-19 11-38 20-59 25-21 7-43 9-66 9-19-1-39-3-59-8-9-2-18-5-26-9-30-12-56-29-77-50"
       class="fil11 str6"
       stroke-width="30.5394001" />
    <path
       id="path27954"
       d="M7728.0047 4628.3c11-8 23-14 35-18 24-8 51-9 77-3 1 1 2 1 3 1 25 7 47 22 63 41 19 21 31 49 33 78 1 11 0 21-2 33l-3 12c-7 24-19 44-35 60-18 18-40 30-65 36-20 4-42 4-64-2-7-2-14-4-21-7-9-4-18-10-26-16m-460-2040c8-3 16-5 24-7 115-31 232-10 327 47 10 6 20 13 29 19 47 35 87 78 117 131 1 3 3 5 4 7 15 29 28 59 37 92 7 25 11 50 12 75 2 13 2 25 2 38-1 129-63 250-164 328-12 9-24 18-38 26m-405-732c1-1 3-2 5-3"
       class="fil11 str6"
       stroke-width="30.5394001" />
    <path
       id="path27956"
       d="M7178.0047 2948.3c37-32 81-56 131-69 75-20 151-13 217 15 35 15 68 36 96 62 25 23 47 51 65 82 1 1 1 2 1 3 13 23 23 47 30 74 3 9 4 18 6 27 7 39 7 77 1 115-20 119-106 223-228 262-5 2-10 4-15 5-1 1-3 1-4 1m-172-3c-3-1-7-2-11-4"
       class="fil11 str6"
       stroke-width="30.5394001" />
    <path
       id="path27958"
       d="M7169.0047 3130.3c10-33 28-64 52-90 18-20 39-36 64-49 16-8 32-15 50-19 25-7 51-9 76-8 26 1 50 7 73 16 50 20 93 57 120 106 1 0 1 1 1 2 2 5 5 9 7 14 5 12 9 24 13 37 9 35 10 71 4 105-5 25-14 49-26 70-10 19-23 36-38 52-16 16-33 30-53 41-17 10-36 18-55 23-9 2-17 4-25 5-32 5-63 3-93-4"
       class="fil11 str6"
       stroke-width="30.5394001" />
    <path
       id="path27960"
       d="M7274.0047 3145.3c5-12 13-23 21-33 17-19 39-34 66-41 1-1 2-1 3-1 26-6 52-5 75 3 27 9 50 26 67 50 6 9 11 19 15 30 2 4 3 8 4 12 7 24 6 48 0 70-7 24-20 46-39 63-15 14-34 25-55 30-7 2-15 4-23 4-10 1-20 1-30 0m-718-1097c-6 14-12 28-20 41m-678-481c5-5 10-10 15-16 85-84 195-125 306-122 12 0 23 1 35 2 58 6 115 24 167 55 3 1 5 3 7 4 28 17 54 37 78 61 19 19 35 38 49 59 7 10 13 20 19 31 63 111 71 246 24 364m-739-388c1-1 1-1 1-2"
       class="fil11 str6"
       stroke-width="30.5394001" />
    <path
       id="path27962"
       d="M5958.0047 1966.3c15-46 42-89 79-127 55-55 124-87 196-94 38-6 77-3 115 5 34 7 66 20 96 38 1 0 2 1 3 2 22 13 43 30 62 49 6 7 13 13 18 21 26 30 45 64 58 100 43 113 21 245-66 339-3 4-7 8-11 12-1 1-3 3-4 3m-149 84c-3 1-7 2-10 2"
       class="fil11 str6"
       stroke-width="30.5394001" />
    <path
       id="path27964"
       d="M6398.0047 1875.3c4 2 8 4 11 7 11 7 21 16 31 26 26 26 45 56 56 89 8 24 13 49 13 73 1 21-2 43-7 64s-14 42-25 61c-9 17-22 33-37 48-6 6-13 12-19 17-25 20-53 34-83 43m-296-175c-8-34-8-70-1-104 5-26 16-52 31-75 9-15 20-29 33-41 19-19 40-33 62-44 23-12 47-19 72-22 53-8 109 2 156 32 1 0 2 1 3 1"
       class="fil11 str6"
       stroke-width="30.5394001" />
    <path
       id="path27966"
       d="M6139.0047 2089.3c-1-13 0-27 3-40 5-25 17-48 36-68l2-2m0 0c19-18 43-30 67-34 27-6 57-2 83 10 10 5 20 11 28 19 3 2 6 5 9 8 17 17 29 38 34 60 7 25 6 51-2 75-6 20-17 39-33 54-6 5-11 10-17 14-8 6-17 11-26 14m-1169-583c1 12 2 24 2 37m-828-78c1-7 3-14 5-21 31-116 107-207 205-259 10-6 20-11 31-15 53-24 112-36 172-35h7c33 1 66 5 98 14 25 7 49 15 71 26 11 5 22 11 32 17 109 64 183 175 202 298m-831 38v-3"
       class="fil11 str6"
       stroke-width="30.5394001" />
    <path
       id="path27968"
       d="M4409.0047 1724.3c-9-48-7-98 6-148 20-75 64-137 122-181 31-23 65-40 102-52 33-10 68-15 103-15 1 0 3 0 4 1 26 0 52 4 78 11 9 3 19 5 27 9 37 13 71 33 100 57 93 78 140 203 113 327-1 5-3 10-4 16-1 2-1 3-2 5m-87 148c-3 3-5 5-8 7"
       class="fil11 str6"
       stroke-width="30.5394001" />
    <path
       id="path27970"
       d="M4564.0047 1824.3c-24-25-42-57-52-90-8-25-12-53-11-80 0-17 3-35 8-53 7-25 17-48 31-69 14-22 31-40 51-55 43-34 96-53 152-52h2c6 0 11 0 16 1 13 1 25 4 38 7 35 9 67 27 93 49 19 17 36 36 48 57 12 18 20 38 26 58 6 21 9 44 9 66 0 20-3 40-8 60-2 9-5 17-9 25-11 30-29 56-50 78"
       class="fil11 str6"
       stroke-width="30.5394001" />
    <path
       id="path27972"
       d="M4629.0047 1741.3c-8-11-14-23-18-36-8-24-9-51-3-77 1-1 1-2 1-3 7-25 21-47 40-64 22-19 49-31 78-33 11-1 22 0 32 2 4 1 8 1 13 3 24 7 44 19 60 35 18 18 31 41 36 65 4 20 4 42-2 64-2 7-5 14-7 21-5 9-10 18-16 26m-1309 73c9 12 18 25 26 38m-755 350c-3-8-5-16-7-24-31-115-11-232 47-326 5-10 12-20 19-29 34-48 79-88 131-117 2-1 4-3 7-3 28-16 59-28 92-37 25-7 50-11 75-13 13-1 25-2 37-2 126 1 244 59 322 155m-700 452c-1-2-2-3-3-5"
       class="fil11 str6"
       stroke-width="30.5394001" />
    <path
       id="path27974"
       d="M2949.0047 2290.3c-32-37-56-81-70-131-20-75-13-151 16-217 15-35 36-68 61-96 24-25 51-47 82-65 1-1 3-1 4-2 23-12 47-22 73-29 9-3 19-5 28-6 39-7 78-7 115 0 120 20 223 105 262 227 2 5 3 10 5 15 1 1 1 2 1 4m-3 173l-3 10"
       class="fil11 str6"
       stroke-width="30.5394001" />
    <path
       id="path27976"
       d="M3132.0047 2299.3c-33-10-64-28-90-52-20-18-37-40-49-64-9-15-15-32-20-49-7-25-9-51-8-75 2-25 7-51 16-73 20-51 57-94 107-121 1 0 1-1 2-1 5-3 10-5 15-7 11-6 23-9 35-13 36-10 71-10 105-4 25 4 48 13 70 25 19 10 36 23 52 38s30 33 41 53c9 17 17 36 22 56 3 9 4 18 5 27 5 31 3 63-4 92"
       class="fil11 str6"
       stroke-width="30.5394001" />
    <path
       id="path27978"
       d="M3146.0047 2194.3c-12-5-24-13-34-21-19-17-33-39-40-65v-3c-7-26-5-52 3-75 9-27 27-50 51-67 8-7 18-12 29-15 4-1 8-3 12-4 24-7 48-6 70 0 24 7 46 20 63 39 14 15 25 34 31 55 2 7 3 15 4 22 1 10 1 21-1 31m-1093 720c13 5 25 11 37 18m-484 676l-14-14c-85-84-125-196-122-307 0-11 1-23 2-34 6-58 24-115 55-167 1-3 3-5 4-7 17-28 37-54 61-78 19-18 38-34 59-49 10-7 21-13 31-19 111-63 244-71 361-25m-384 740c-1-1-3-2-4-3"
       class="fil11 str6"
       stroke-width="30.5394001" />
    <path
       id="path27980"
       d="M1967.0047 3510.3c-46-15-89-42-126-79-55-55-87-124-95-196-5-38-4-77 5-114 7-33 20-66 39-97 0-1 1-3 2-3 13-22 30-43 49-62 7-7 14-13 21-19 30-26 64-45 99-58 114-42 246-20 340 66 4 3 8 6 12 10l4 4m83 151l3 10"
       class="fil11 str6"
       stroke-width="30.5394001" />
    <path
       id="path27982"
       d="M2129.0047 3426.3c-34 8-69 8-103 1-26-6-52-15-75-31-15-9-29-20-42-33-18-19-33-39-44-61-12-23-19-47-23-72-8-53 3-109 32-157 0-1 1-2 1-3 3-4 5-9 9-13 7-10 15-20 25-30 26-26 57-45 89-56 24-8 48-13 73-13 21-1 43 2 64 7 22 5 42 14 62 25 17 10 33 22 47 37 6 6 12 13 18 20 20 25 35 53 43 82"
       class="fil11 str6"
       stroke-width="30.5394001" />
    <path
       id="path27984"
       d="M2090.0047 3329.3c-13 1-26 1-39-3-25-5-49-17-69-36l-2-2c-19-19-30-43-35-67-6-28-2-57 10-83 5-10 11-19 19-29 2-3 5-6 8-8 17-17 38-29 60-35 25-6 51-6 75 2 20 6 38 17 54 33 5 5 10 11 15 17 6 9 11 18 14 27"
       class="fil11 str6"
       stroke-width="30.5394001" />
    <path
       id="path27738"
       d="M1246.0047 4720.3c-18-2-36-4-53-8-26-5-52-10-77-17-26-7-51-15-76-24s-48.99998-19-72.99998-31c-25-11-48-23-71-37-23-13-45-27-67-42s-43-31-63-49c-21-17-40-35-59-54s-37-38-54-58-33-41-48-63-29-44-43-67c-13-23-26-47-37-71s-21-48-31-73c-9-25-17-50-24-75s-13-52-17-78c-5-26-9-52-11-78s-3-53-3-79 1-53 4-80c2-26 6-52 10-78 5-26 10-52 17-77 7-26 15-51 24-76 10-25 19-49 31-73 11-25 23-48 37-71 13-23 27-45 43-67 15-22 31-43 48-63s35-40 54-58c19-19 38-37 58-54s41-33 63-48 44-30 67-43 47-26 71-37c24-12 47.99998-21 72.99998-31 25-9 50-17 76-24 25-7 51-13 77-17 26-5 52-9 78-11s53-3 80-3c26 0 53 1 79 4 26 2 52 6 78 10 26 5 52 10 78 17m0 2h1m0 0c26 7 51 15 75 24 19 7 37 14 55 23"
       class="fil11 str1"
       stroke-width="19.77560043" />
    <path
       id="path27740"
       d="M1303.0047 4518.3c-45-3-90-10-135-22-20-5-39-12-58-19-79-28-149.99998-70-210.99998-121-47-40-89-86-124-136-59-83-99-179-117-281-17-98-14-202 13-304 16-61 40-117 70-169 52-91 123-167 206-225 82.99998-58 178.99998-98 280.99998-116 60-11 122-14 184-8 40 3 80 10 120 21 44 12 87 28 126 47"
       class="fil11 str2"
       stroke-width="91.68109894" />
    <path
       id="path27754"
       d="M1706.0047 6466.3c-16 7-33 14-49 20-25 9-50 17-76 24s-52 13-78 17c-26 5-52 8-78 10-27 3-53 4-80 4-26 0-53-1-79-3s-52-6-78-10c-26-5-53-10-78-18-26-7-51-15-75-24-25-9-48.99998-19-72.99998-30-24-11-48-23-71-37-23-13-45-27-67-43-21-15-42-31-62-49-21-17-40-35-59-53-18-19-37-38-54-59-17-20-33-41-48-63-15-21-29-44-42-67-13-22-25-46-37-70-11-24-21-48-31-73-9-25-17-50-24-76s-13-52-17-78c-5-26-8-53-10-79-3-26-4-53-4-79 0-27 1-53 3-80 2-26 6-53 11-78 4-26 10-52 17-77 6-26 15-51 24-75 9-25 19-49 31-74 11-24 23-47 36-70s28-45 43-67c16-21 31-42 49-63 17-21 35-40 54-59s38-37 58-54 41-33 63-48 44-29 67-43c23-13 46-25 70-36s47.99998-21 73.99998-31c25-9 49-17 75-24s52-13 77-17c19-3 39-7 58-9"
       class="fil11 str1"
       stroke-width="19.77560043" />
    <path
       id="path27756"
       d="M1655.0047 6263.3c-40 20-83 36-128 48-40 11-80 18-120 21-252 22-494.99998-94-637.99998-297-46-65-81-140-103-221-16-61-24-122-24-182 0-83 15-165 43-241 28-77 69-148 121-210 40-47 85-89 136-124 64.99998-46 139.99998-81 220.99998-103 44-12 88-19 133-23"
       class="fil11 str2"
       stroke-width="91.68109894" />
    <path
       id="path27770"
       d="M2978.0047 7749.3c-10 14-21 28-33 42-17 20-35 40-54 59s-38 37-58 53c-20 18-41 34-63 48-22 16-44 30-67 43s-47 26-71 37c-24 12-48 22-73 31s-50 17-76 24c-25 7-51 12-77 17s-53 9-79 10c-26 3-53 4-79 4-27 0-53-1-80-4-26-2-53-5-78-10-26-4-52-10-77-17-26-7-51-15-76-24s-49-19-73-31c-24-11-47-23-70-37-23-13-45-27-67-43-21-15-42-31-63-49-20-16-40-34-59-53s-37-38-53-59c-18-21-34-42-48-63-16-22-30-44-43-67-14-23-26-46-37-70-12-24-21-49-30-74s-17-50-24-75c-7-26-13-52-17-78-5-26-9-52-10-78-3-27-4-53-4-80 0-26 1-53 3-79s6-53 11-79c4-26 10-52 17-77s15-50 24-75 19-49 30-74c11-24 23-47 37-70 13-23 27-45 43-67 15-21 31-43 48-63s35-40 53-59c19-19 38-37 59-54 15-12 31-24 46-36"
       class="fil11 str1"
       stroke-width="19.77560043" />
    <path
       id="path27772"
       d="M2832.0047 7597.3c-25 37-54 73-87 106-60 60-128 107-201 140-113 53-237 74-358 63-61-5-120-19-178-39-94-34-182-89-257-164-60-60-106-127-140-200-52-113-74-237-63-359 7-81 28-160 63-235 34-72 80-140 140-200 33-33 68-61 104-86"
       class="fil11 str2"
       stroke-width="91.68109894" />
    <path
       id="path27786"
       d="M4721.0047 8223.3c-2 18-4 36-8 53-4 26-10 52-17 78s-15 51-24 76-19 50-30 73c-11 24-23 48-37 70-13 23-27 46-43 67-15 22-31 43-48 63s-35 40-53 59c-19 19-38 37-59 53-20 17-41 33-63 49-22 15-44 29-67 42-23 14-46 26-71 37-24 11-48 21-73 30s-50 17-75 24-52 13-78 18-52 8-78 10-53 3-79 3c-27 0-53-1-80-4-26-2-52-5-78-10s-52-10-77-17c-26-7-51-15-76-24s-49-19-73-30c-25-11-48-23-71-37-23-13-45-27-67-43-22-15-43-31-63-48-21-17-40-35-59-54s-36-38-54-58c-17-20-33-41-48-63s-29-44-43-67c-13-23-25-46-36-70s-22-49-31-74-17-50-24-75c-7-26-13-52-17-78-5-26-9-52-11-79-2-26-3-53-3-79s1-53 4-80c2-26 6-52 10-78 5-26 10-52 17-77 7-26 15-51 24-76 7-18 14-37 22-54"
       class="fil11 str1"
       stroke-width="19.77560043" />
    <path
       id="path27788"
       d="M4519.0047 8165.3c-3 45-10 90-23 135-27 102-76 193-139 269-66 80-150 143-243 186-55 26-114 44-175 55-60 11-121 14-183 8-40-3-81-10-121-21-20-5-39-11-58-18-79-29-150-70-212-122-47-40-89-86-125-136-70-100-114-218-124-342-7-80 0-161 22-243 12-44 28-87 47-127"
       class="fil11 str2"
       stroke-width="91.68109894" />
    <path
       id="path27798"
       d="M6468.0047 7762.3c7 16 14 33 20 50 9 25 17 49 24 75m0 0v1m0 0c7 26 13 52 17 77 5 26 8 53 10 78 3 27 4 53 4 79 0 27-1 54-3 80s-6 53-11 79c-4 26-10 52-17 77-7 26-15 51-24 76s-19 49-31 73c-11 24-23 47-37 71-13 23-27 45-42 67-16 21-32 43-49 63s-35 40-53 59c-19 19-38 37-59 54-20 17-41 33-63 48-21 16-44 30-67 43s-46 26-70 37-48 21-73 31c-25 9-50 17-76 24s-52 12-77 17c-26 5-53 8-79 10-27 3-53 4-79 4-27 0-53-1-80-3-26-2-53-6-78-11-26-4-52-10-78-17s-51-15-76-24-49-19-73-31c-24-11-48-23-71-37-23-13-45-27-67-43-22-15-43-31-63-48s-40-35-58-54c-19-18-37-38-54-58s-33-41-48-63c-15-21-29-43-43-67-13-23-25-46-37-71-11-24-21-48-31-73-9-24-17-50-24-76s-12-52-17-77c-4-20-7-39-9-58"
       class="fil11 str1"
       stroke-width="19.77560043" />
    <path
       id="path27800"
       d="M6264.0047 7813.3c20 41 36 83 48 128 16 61 24 122 24 182 0 83-15 164-42 240-21 58-49 113-85 163-47 67-105 126-173 173-65 46-140 81-221 103-40 11-80 18-120 21-62 6-124 3-183-8-102-18-198-58-281-116-131-92-232-228-276-394-12-44-19-89-22-133"
       class="fil11 str2"
       stroke-width="91.68109894" />
    <path
       id="path27808"
       d="M7750.0047 6490.3c15 10 29 21 43 33 20 17 40 35 59 54s37 38 53 59c17 20 34 41 48 63 15 22 30 44 43 67 14 23 26 46 37 70s21 49 30 74 17 50 24 76 13 52 17 77c5 26 9 52 10 78 3 27 4 53 4 80 0 26-1 53-4 79-2 26-5 53-11 78-4 26-10 52-17 78s-15 51-24 75c-9 25-19 50-30 74s-23 47-37 70c-13 23-27 45-43 67-15 22-31 43-48 63s-35 40-53 58m0 0h-1m0 0c-19 19-38 37-58 53-21 18-41 34-63 49-21 16-43 30-66 43s-47 25-71 37-49 22-73 31c-25 9-50 17-76 24-25 7-51 12-77 17s-52 9-79 10c-26 3-53 4-79 4s-53-1-79-4c-26-2-53-5-79-10-26-4-52-10-77-17-26-7-51-15-76-24s-49-19-73-31c-24-11-47-23-71-37-23-13-45-27-66-43-22-15-43-30-63-48-20-17-40-35-59-53-19-19-37-39-53-59-13-15-25-30-37-46"
       class="fil11 str1"
       stroke-width="19.77560043" />
    <path
       id="path27810"
       d="M7599.0047 6636.3c37 25 73 54 105 87 15 15 29 30 42 46 40 48 73 100 99 155 44 94 65 195 65 297 0 101-22 202-65 296-34 73-80 141-141 201-60 60-128 107-200 141-56 26-115 44-175 55-61 10-122 13-183 8-81-7-160-28-235-63-55-26-107-59-155-99-16-13-31-27-46-42-33-33-61-68-86-104"
       class="fil11 str2"
       stroke-width="91.68109894" />
    <path
       id="path27820"
       d="M8224.0047 4747.3c18 2 36 4 53 8 26 5 52 10 77 17 26 7 51 15 76 24s49 19 73 31c25 11 48 23 71 37 23 13 45 27 67 43 22 15 43 31 63 48 21 17 40 35 59 53 19 19 37 38 53 59 17 20 34 41 49 63s30 44 43 67 25 46 37 70c11 24 21 49 31 74 9 25 17 50 24 75s13 51 17 77c5 26 9 52 11 78s3 53 3 80c0 26-1 53-4 79-2 26-6 53-10 79-5 26-10 52-17 77-7 26-15 51-24 76s-19 49-31 73c-11 24-23 47-37 70-13 23-27 45-43 67-15 21-31 43-48 63s-35 40-53 59c-19 19-38 37-59 53-20 17-41 33-62 49-22 15-44 29-67 43-23 13-47 25-71 36-24 12-48 21-73 31-25 9-50 17-75 24s-52 13-78 17c-26 5-52 9-78 11s-53 3-80 3c-26 0-53-1-79-4-26-2-52-6-78-10-26-5-52-10-77-17m-3-1c-26-7-51-15-75-24-19-7-37-14-55-22"
       class="fil11 str1"
       stroke-width="19.77560043" />
    <path
       id="path27822"
       d="M8167.0047 4948.3c45 3 90 11 135 23 20 6 39 12 59 19 119 43 221 116 298 208 79 94 133 208 154 330 18 98 14 201-13 304-17 61-40 117-70 170-42 72-95 135-157 187-125 104-284 165-451 164-60 0-121-8-182-24-44-12-87-28-127-47"
       class="fil11 str2"
       stroke-width="91.68109894" />
    <path
       id="path27836"
       d="M7889.0047 2957.3c26-7 51-13 77-17 26-5 53-8 79-10 27-3 53-4 79-4 27 0 53 1 80 3 26 2 53 6 78 11 26 4 52 10 77 17s51 14 75 24c25 9 50 19 74 31 24 11 47 23 71 36 23 13 45 27 67 43 21 15 43 31 63 48s40 35 59 54 37 38 54 58 33 41 48 63c15 21 29 44 43 67 13 23 25 47 37 71 11 24 21 48 31 73 8 25 17 50 24 76s13 52 17 78c5 26 8 52 10 78 3 27 4 53 4 80s-1 53-3 79-6 52-11 78c-4 26-10 53-17 78s-15 51-24 75c-9 25-19 49-31 73-11 24-23 47-37 71-13 23-27 45-43 67-15 22-31 43-48 63s-35 40-54 59-38 37-59 53c-20 17-41 33-63 49-22 15-44 29-67 43-22 13-46 25-70 36s-48 21-73 31c-25 9-50 17-76 24s-52 13-77 17c-19 3-39 7-58 9m-461-1742c16-7 33-14 50-20 24-9 49-17 75-24"
       class="fil11 str1"
       stroke-width="19.77560043" />
    <path
       id="path27838"
       d="M7814.0047 3205.3c41-20 83-36 128-48 20-5 40-10 60-13 62-11 124-14 184-8 206 18 396 127 515 297 46 65 81 140 103 221 16 61 24 122 24 182 0 104-24 206-67 298-26 55-59 107-98 154-77 92-179 165-299 209-19 7-38 13-58 18-44 12-89 19-133 22"
       class="fil11 str2"
       stroke-width="91.68109894" />
    <path
       id="path27846"
       d="M6491.0047 1718.3c11-14 21-28 34-42 16-20 34-40 53-59s38-37 58-54c20-18 41-34 63-48 21-16 44-30 67-43s47-26 71-37c24-12 48-22 73-31 24-9 50-17 75-24 26-7 52-12 78-17s52-9 78-10c24-3 48-4 71-4 26 0 53 1 80 3s53 5 80 10c26 4 52 9 78 16 26 6 52 15 77 24s49 19 74 30c24 11 47 23 71 37 23 13 46 27 67 43 22 15 43 31 64 49 20 16 40 35 59 54l2 2c19 18 36 37 52 57 18 21 35 42 49 63 16 22 30 44 43 67 14 23 27 47 37 71 12 24 21 48 31 73 9 24 17 50 24 75 7 26 13 52 17 78 5 26 9 52 10 78 3 26 4 53 4 79 0 27-1 53-4 80-2 26-5 53-10 78-4 26-10 52-17 78-7 25-15 51-24 75-9 25-19 49-31 73-11 24-23 47-37 70-13 23-27 45-43 67-15 21-31 43-48 63-16 20-35 39-53 59-19 19-38 37-59 53-15 13-31 25-46 36"
       class="fil11 str1"
       stroke-width="19.77560043" />
    <path
       id="path27848"
       d="M6637.0047 1869.3c25-37 54-73 87-105 60-60 128-107 200-140 130-61 274-79 413-56 41 7 80 17 119 31 58 20 113 49 165 85 34 24 66 50 97 81 153 153 220 360 203 559-14 159-82 314-203 435-33 33-68 62-105 86"
       class="fil11 str2"
       stroke-width="91.68109894" />
    <path
       id="path27860"
       d="M4773.0047 1113.3c7-26 15-51 24-75 9-25 19-50 31-74 11-24 23-48 36-70 14-23 28-46 43-67 15-22 32-43 48-63 17-21 35-40 54-59s38-37 59-53c20-17 41-34 63-49 21-15 44-29 67-43 23-13 46-25 71-37 24-11 48-22 73-31s50-17 76-24c25-7 51-13 77-17 26-5 52-9 79-11 21-2 42-3 64-3 83-1 167 9 251 31 21 6 43 13 64 20 25 9 50 19 74 29 25 11 49 23 71 36 24 13 47 27 69 42s43 31 63 48c21 17 40 34 59 53 19 18 37 37 54 58 17 20 33 41 49 63 16 21 30 43 44 66 15 26 29 52 42 80 11 24 21 48 30 73s17 50 24 76c7 25 13 51 17 78 5 26 9 52 11 78 2 27 3 53 3 80 0 26-1 53-4 80-2 26-5 52-10 79-5 26-11 51-17 77m-2 0c-7 26-15 51-24 75-7 19-14 37-22 54m-1736-468c2-18 5-36 8-54 5-26 10-51 17-77"
       class="fil11 str1"
       stroke-width="19.77560043" />
    <path
       id="path27862"
       d="M4950.0047 1302.3c3-45 11-90 23-135 16-61 40-117 70-169 42-72 95-135 157-187 122-102 278-162 441-165 64-1 128 7 193 24 79 21 151 55 216 99 68 47 127 105 174 171 61 85 102 183 121 286 18 98 14 201-14 304-12 45-28 87-47 127"
       class="fil11 str2"
       stroke-width="91.68109894" />
    <path
       id="path27872"
       d="M3002.0047 1705.3c-7-16-14-33-20-50-8-25-17-50-24-76s-13-52-17-77c-5-26-8-53-10-78-3-27-4-53-4-80s1-53 3-79 5-53 11-78c4-26 10-52 17-78s15-51 24-75c9-25 19-49 31-73 11-24 23-47 37-71 13-23 27-45 43-67 15-22 31-43 48-63s35-40 54-58c18-19 38-37 58-54s41-33 63-48 44-29 67-42 46-26 71-37c24-11 48-21 73-31 25-9 50-17 76-24s52-12 77-17c26-5 52-8 79-10 26-3 53-4 79-4 27 0 53 1 80 3 26 2 53 6 78 10 26 5 52 10 77 17 26 7 51 15 76 24s50 19 73 30c24 11 48 23 71 37 23 13 45 27 67 42 21 15 43 31 63 49 20 17 40 34 59 53s37 38 53 59c17 20 33 41 48 63 16 21 30 44 43 67s26 46 37 71c11 24 22 48 31 73s17 50 24 76 13 52 17 78c3 19 6 39 8 58"
       class="fil11 str1"
       stroke-width="19.77560043" />
    <path
       id="path27874"
       d="M3206.0047 1654.3c-20-40-36-83-48-128-22-82-29-164-21-243 11-124 54-241 124-341 35-51 77-96 124-136 61-52 133-94 212-122 19-7 38-13 58-18 103-27 205-31 303-13 102 18 198 58 281 116 50 35 96 77 136 124 51 61 93 131 121 209 7 20 14 40 19 61 12 44 19 89 22 133"
       class="fil11 str2"
       stroke-width="91.68109894" />
    <path
       id="path27884"
       d="M1720.0047 2977.3c-14-10-28-22-42-33-20-17-40-35-59-54s-37-38-53-59c-18-20-33-41-48-63-16-21-30-44-43-67s-26-47-37-70c-12-24-21-49-31-74-9-25-17-50-24-75s-13-51-17-77c-5-26-9-52-10-78-3-27-4-53-4-80 0-26 1-53 4-79 2-27 5-53 10-79 4-26 10-52 17-77 6-26 15-51 24-76s19-49 31-73c11-24 23-47 36-71 13-23 28-45 43-67 15-21 31-43 48-63s35-40 54-59 39-37 59-53c20-18 41-34 63-48 22-16 44-30 67-43s46-26 70-37c24-12 49-21 74-31 25-9 51-17 76-24 26-7 52-13 77-17 26-5 53-8 79-11 26-2 53-3 79-3 27 0 53 1 80 4 26 2 53 5 78 10 26 4 52 10 78 17 25 6 51 15 76 24s49 19 74 31c24 11 47 23 70 37 23 13 45 27 67 43 21 14 43 30 63 48 20 16 40 34 59 53s37 38 53 59c13 15 25 31 37 46"
       class="fil11 str1"
       stroke-width="19.77560043" />
    <path
       id="path27886"
       d="M1871.0047 2831.3c-37-25-73-54-106-87-60-60-107-128-140-200-79-169-86-363-23-537 33-94 88-182 164-257 60-60 127-107 200-141 113-53 237-74 359-63 81 7 160 28 235 63 72 34 140 81 200 141 33 33 61 68 86 104"
       class="fil11 str2"
       stroke-width="91.68109894" />
    <path
       id="path27888"
       d="M648.00472 3629.3l-177-48-7-1m170 110l-180-31-7-1m179 96l-182-17h-7m186 80h-190m193 63l-183 16h-6m197 47l-180 31-7 2m201 29l-177 47-7 2m203 11l-172 63-6 2m202-6l-166 77-6 3m201-24l-158 92-6 3m199-41l-150 105-6 4m194-59l-140 118-5 4m188-75l-129 129-5 5m181-91l-118 140-4 5m172-107l-105 150-4 6m162-122l-91 158-3 6m150.99998-134l-76.99998 165-3 7m137.99998-148l-62 172-2 6m125-159l-47 176-2 7m111-170l-32 180-1 7m95-178v9m371-1393l4-6m-62-18l62-171 3-7m-126 160l48-177 1-7m-111 170l32-180 1-7m-96 179l16-183 1-7m-80 186v-189m-64 193l-15-183-1-7m-46 198l-32-180-1-7m-29 201l-47-177-2-7m-12 202l-62-171-2-7m6 202l-76.99998-165-3-6m23 201l-91-158-3-6m41 198l-105-150-4-5m59 194l-118-140-4-5m75 188l-129-130-5-5m91 181l-140-117-5-5m106 173l-149-105-6-4m121 162l-158-91-6-4m135 151l-166-77-6-3m148 139l-172-63-6-2m154 2317l-176 47-7 2m202 11l-172 63-6 2m202-6l-165 77-7 3m201-24l-158 91-6 4m198-41l-149 105-6 4m194-59l-140 117-5 5m188-75l-129 129-5 5m181-92l-117 140-5 6m172-107l-105 150-4 6m163-122l-92 159-3 6m150.99998-135l-76.99998 165-3 6m138.99998-147l-63 172-3 6m126-159l-48 176-1 7m111-169l-32 180-1 7m96-179l-16 182-1 7m80-186v189m63-192l17 182v7m46-197l32 180 1 7m29-201l48 176 1 7m12-202l62 172 2 6m-6-202l4 8m-374-1391l-1-9m-62 17l-32-180-1-7m-29 201l-48-177-1-7m-11 202l-63-171-3-7m7 203l-77.99998-165-3-7m25 201l-92-158-3-6m41 198l-105-150-4-5m59 194l-118-140-4-5m75 188l-129-130-5-5m91 182l-140-118-5-5m106 173l-149-105-6-4m121 162l-158-91-6-3m135 150l-165-77-7-3m148 139l-172-62-6-3m159 126l-176-48-7-2m169 112l-180-32-6-2m178 96l-182-16h-7m186 80h-190m193 63l-182 16-7 1m197 46l-180 32-6 1m1290.99998 1929l-129 129-5 6m181-92l-117 140-5 6m172-107l-105 149-3 6m161-121l-91 158-3 6m151-135l-77 166-3 6m139-148l-63 172-2 7m125-159l-47 176-2 7m111-170l-32 180-1 7m96-178l-16 181-1 7m80-186v190m64-192l16 181v7m47-197l31 180 2 7m29-200l47 176 2 7m11-203l63 172 2 7m-6-203l76 166 4 6m-24-201l91 158 4 6m-42-198l105 149 4 6m-58-194l117 140 5 6m-75-189l128 129 6 6m-92-182l140 118 6 5m-107-173l8 6m-1021-1018l-4-6m-46 44l-117-140-5-5m75 188l-129-129-5-5m91 181l-139-117-6-5m107 172l-150-104-6-5m122 163l-159-92-6-3m136 151l-166-77-7-3m148 139l-171-63-7-2m159 125l-176-47-7-2m169 111l-179-32-8-1m179 96l-182-16h-7m186 79h-189m192 63l-182 17h-7m197 46l-179 32-8 1m201 29l-176 48-7 1m202 12l-171 62-7 3m203-6l-166 77-7 3m202-24l-158 91-7 4m199-42l-150 105-6 4m194-59l-139 118-6 5m2083 1025l-46 176-2 7m110-170l-31 180-1 7m95-178l-16 181v8m80-187v190m63-192l16 182 1 7m46-198l32 180 1 7m29-200l48 176 1 7m12-203l62 172 3 6m-7-202l77 166 3 6m-24-201l92 158 3 6m-41-198l105 150 4 5m-59-194l117 140 5 6m-75-188l129 128 5 5m-91-181l140 118 5 4m-106-172l149 105 6 4m-121-162l158 91 6 4m-135-152l165 78 7 3m-148-139l172 62 6 3m-159-125l177 47 6 1m-169-111l180 32 7 1m-179-96l10 1m-1393-371l-7-3m-17 61l-172-62-7-2m159 125l-176-47-7-2m170 111l-180-32-7-1m179 96l-182-16-7-1m186 80h-190m193 63l-183 16-6 1m197 46l-180 32-7 1m201 30l-177 47-7 1m203 12l-172 62-7 3m203-7l-165 78-7 3m201-24l-158 91-6 4m198-42l-149 105-6 4m194-59l-140 118-5 4m188-74l-129 128-5 5m180-91l-117 140-4 6m172-107l-105 149-4 6m162-121l-91 158-3 6m151-135l-77 166-4 6m139-148l-62 172-3 6m2317-154l48 177 2 7m11-203l63 172 2 7m-7-203l78 166 3 6m-24-201l91 158 3 6m-41-198l105 149 4 6m-59-194l118 140 4 5m-75-188l130 129 4 5m-91-180l140 117 6 5m-107-173l150 105 5 4m-121-162l158 91 6 3m-135-150l165 76 7 4m-148-139l172 62 6 3m-158-126l176 48 6 1m-169-111l180 32 7 1m-178-96l182 17h6m-186-80h190m-192-63l181-16 7-1m-197-46l180-32 7-1m-200-29l176-48 6-1m-202-11l172-63 6-3m-202 7l10-5m-1393 376h-9m17 62l-180 32-7 1m201 29l-177 48-7 1m203 12l-172 62-7 3m203-6l-165 76-7 4m202-24l-159 91-6 3m199-41l-150 105-6 4m194-58l-140 117-5 5m188-76l-129 129-5 5m180-91l-117 140-4 5m172-106l-105 149-4 6m163-121l-92 158-3 6m151-135l-77 166-3 6m138-148l-62 172-2 7m125-160l-47 177-2 7m111-170l-32 180-1 7m96-179l-17 183v6m80-186v190m64-193l16 182v7m46-197l32 180 2 7m1929-1292l128 129 6 5m-91-181l139 117 6 5m-107-172l150 104 6 5m-122-163l159 92 6 3m-136-151l166 78 6 2m-147-139l171 63 7 2m-159-125l176 47 7 2m-169-111l179 32 8 1m-179-96l182 16 7 1m-187-80h190m-192-63l182-17h7m-197-46l179-32 8-1m-201-29l176-48 7-1m-202-12l171-62 7-3m-203 6l166-77 6-3m-201 24l158-91 7-4m-199 42l150-105 6-4m-195 59l140-118 6-5m-188 76l129-129 5-6m-181 92l117-140 5-5m-172 106l5-8m-1018 1021l-7 4m46 46l-140 117-6 5m188-75l-129 129-4 5m180-91l-117 140-5 5m173-107l-105 150-4 6m162-122l-92 158-3 6m151-134l-77 165-3 7m139-148l-63 172-2 6m125-159l-47 176-2 7m112-169l-32 179-2 8m96-179l-16 181v8m80-186v189m63-192l16 181v8m47-197l32 179 1 8m29-201l47 176 2 7m11-202l63 172 2 6m-6-202l77 165 3 7m-24-202l92 158 3 6m-42-198l105 150 4 6m-58-194l117 139 5 6m1025-2084l176 48 7 2m-170-112l180 32 7 2m-178-96l182 16h7m-186-80h189m-192-63l182-17h7m-198-46l180-32 7-1m-200-29l176-47 7-2m-202-11l171-63 7-2m-202 6l165-77 6-3m-201 24l158-91 6-4m-198 41l150-105 5-4m-194 59l140-117 6-5m-188 75l129-129 5-5m-181 91l117-139 5-6m-173 107l105-150 4-6m-162 122l91-158 4-7m-151 136l77-166 3-7m-139 148l63-171 2-7m-125 159l47-176 1-8m-110 170l31-179 2-8m-96 179l1-10m-372 1393l-3 7m62 18l-63 171-2 7m126-159l-48 176-2 7m111-170l-31 180-2 7m96-178l-16 181v8m80-187l-1 183v7m64-192l16 182v7m47-198l31 180 2 7m29-200l47 176 2 7m11-203l63 172 2 7m-6-203l77 165 3 7m-24-201l91 158 4 6m-42-198l106 150 3 5m-58-194l117 140 5 6m-75-189l129 130 5 4m-92-180l140 117 6 5m-107-173l150 105 5 4m-121-162l158 91 6 3m-134-150l165 77 6 3m-147-139l171 63 7 2m-154-2317l176-47 7-2m-202-12l172-62 6-3m-203 7l166-77 6-3m-201 23l158-91 7-3m-199 41l150-105 5-3m-193 58l140-118 5-4m-188 75l129-129 5-5m-181 91l117-140 4-5m-171 106l104-149 4-6m-162 122l92-159 3-6m-151 136l77-166 3-7m-139 148l62-171 3-7m-125 159l47-176 2-8m-111 170l31-179 2-8m-96 179l16-182v-7m-80 186v-189m-63 192l-16-182v-7m-47 197l-32-179-1-8m-76 25l-2-8"
       class="fil11 str4"
       stroke-width="15.8071003" />
    <path
       id="path27892"
       d="M7936.0047 3133.3l-47-176m-13 195l-62-171-3-7m6 202l-4-9m375 1393l1 8m62-16l31 179 2 7m29-200l47 176 2 7m11-203l63 172 2 6m-6-202l77 166 3 6m-24-201l91 158 4 6m-41-198l104 150 4 5m-58-194l117 140 5 6m-75-188l129 129 5 4m-92-181l141 118 5 4m-107-172l150 105 5 4m-121-162l158 91 7 4m-136-152l166 78 6 2m-147-138l172 62 6 3m-159-125l176 47 7 2m-169-111l180 31 6 1m-178-95l182 16h7m-187-80h190m-192-63l182-16 7-1m-197-46l180-32 6-1m-1869-2139l-16-182-1-7m-46 197l-32-180-1-7m-29 201l-48-177-1-7m-12 202l-62-171-3-7m7 203l-77-166-3-6m24 201l-92-158-3-6m41 198l-105-149-4-7m59 195l-118-140-4-5m75 188l-129-129-5-6m91 181l-139-116-7-6m107 173l-7-6m1020 1018l5 7m45-45l118 139 4 6m-75-188l129 129 6 5m-92-181l140 117 5 5m-106-172l149 105 6 4m-121-162l158 91 6 3m-135-151l166 77 6 3m-148-139l172 63 7 3m-160-126l177 48 7 1m-170-111l180 32 7 1m-179-96l182 16 7 1m-189-144l182-16h7m-197-47l180-31 7-1m-201-30l177-47 7-2m-203-11l172-62 7-3m-203 6l166-77 6-3m-104 388h190m-797-711l31-186v-1m358 387l132-134 1-1m-181 92l121-145 1-1m-172 108l107-156h1m-162 122l94-164v-1m-150 136l79-172m-138 148l64-178m-124 159l47-183m-173 162l16-188v-1m-79 187l-1-189v-1m633 550l162-95 1-1m-198 43l154-109 1-1m-193 59l143-122h1m-2329-1049l-16-183v-6m-47 197l-31-180-2-7m-28 200l-48-176-1-7m-12 203l-63-172-2-7m6 203l-77-166-3-6m24 201l-91-158-4-6m42 198l-105-149-4-6m58 194l-117-140-5-6m75 189l-129-129-5-6m92 181l-140-117-6-4m107 172l-150-105-5-4m121 162l-158-91-6-3m135 150l-166-77-6-3m147 139l-171-62-7-3m-17 78l-7-1"
       class="fil11 str4"
       stroke-width="15.8071003" />
    <path
       id="path27894"
       d="M4773.0047 1114.3v-1"
       class="fil11 str1"
       stroke-width="19.77560043" />
    <path
       id="path27896"
       d="M4949.0047 1161.3l-176-47m162 108l-179-31-7-1m178 96l-10-1m1394 371l7 3m17-62l171 63 7 2m-159-125l176 47 7 2m-170-111l180 32 7 1m-178-96l182 17h7m-186-80h189m-192-63l182-17h7m-198-47l180-31 7-1m-200-29l176-48 7-1m-202-12l171-62 7-3m-202 6l165-77 6-3m-652-309l44-184m-107 172l28-188m-91 181l12-189m-75 188l-5-190m644 537l154-94 7-5m-197 47l146-108 7-5m-193 63l138-121 4-4m-186 80l127-134 4-4m-179 96l116-145 2-3m-169 111l104-156 1-2m-159 125l89-165 1-1m-147 138l75-173m-135 151l61-180m-2303 151l-47-176-2-7m-11 203l-63-172-2-7m6 203l-77-165-3-7m24 201l-92-158-3-6m41 198l-104-149-5-6m59 194l-118-140-4-5m75 188l-129-129-5-5m91 180l-139-117-6-4m107 172l-150-105-6-4m122 162l-159-91-6-3m135 151l-165-77-6-3m147 138l-172-62-6-3m159 126l-176-48-7-2m169 112l-180-32-6-1m178 95l-182-16h-7m186 80h-189m192 63l-182 16-7 1m197 46l-180 32-6 1m200 29l-176 47-7 2m202 12l-172 62-6 3m202-7l-8 4m1392-375h8m-17-62l180-32 7-1m-200-29l176-48 7-2m-203-11l172-63 7-2m-203 7l166-77 6-3m-201 23l158-91 6-3m-198 41l149-105 6-4m-194 58l140-117 6-4m-189 75l130-130 5-4m-181 91l117-140 5-5m-173 106l106-150 3-5m-162 121l91-158 4-6m-151 135l77-166 3-6m-139 148l62-172 3-7m-126 159l48-176 1-7m-111 170l32-180 1-7m-96 178l17-182v-7m-80 187v-190m-63 192l-16-181v-7m-47 197l-31-180-2-7"
       class="fil11 str4"
       stroke-width="15.8071003" />
    <path
       id="path27900"
       d="M1748.0047 1733.3l-130-129-4-5m91 181l-140-118-6-4m107 172l-150-105-5-4m121 163l-158-92-6-3m135 151l-165-77-7-3m148 139l-172-63-6-2m158 125l-176-47-7-2m170 111l-179-32-8-1m179 96l-182-16-8-1m187 80h-190m193 64l-182 16h-7m197 46l-179 32-8 2m200 28l-176 48-7 2m202 11l-171 62-6 3m202-6l-165 77-7 3m201-24l-158 91-6 3m198-41l-149 105-6 4m194-58l-139 116-7 6m189-76l-129 129-5 6m180-92l-117 140-4 5m172-106l-6 8m1018-1021l7-4m-45-46l140-118 5-4m-188 75l129-129 5-5m-180 91l117-140 4-5m-172 107l105-150 4-6m-162 122l91-159 3-6m-151 135l78-165 2-6m-138 147l62-172 2-7m-125 160l47-177 2-7m-111 170l32-180 1-7m-96 179l17-182v-7m-80 186v-190m-64 193l-16-182v-7m-46 197l-32-180-2-7m-28 201l-48-177-2-6m-11 202l-63-172-2-6m6 202l-77-165-3-6m24 201l-91-159-3-6m41 199l-105-150-4-6m58 194l-117-140-4-5"
       class="fil11 str4"
       stroke-width="15.8071003" />
  </g>
</svg>
