<?xml version="1.0" encoding="UTF-8" standalone="no"?>
<svg
   xmlns:dc="http://purl.org/dc/elements/1.1/"
   xmlns:cc="http://creativecommons.org/ns#"
   xmlns:rdf="http://www.w3.org/1999/02/22-rdf-syntax-ns#"
   xmlns:svg="http://www.w3.org/2000/svg"
   xmlns="http://www.w3.org/2000/svg"
   xmlns:sodipodi="http://sodipodi.sourceforge.net/DTD/sodipodi-0.dtd"
   xmlns:inkscape="http://www.inkscape.org/namespaces/inkscape"
   id="_a_1_animate_background_wireframe"
   width="908.7"
   height="908.9"
   fill-rule="evenodd"
   viewBox="0 0 9465.3 9467.4"
   clip-rule="evenodd"
   image-rendering="optimizeQuality"
   shape-rendering="geometricPrecision"
   text-rendering="geometricPrecision"
   version="1.1"
   inkscape:version="0.91 r13725"
   sodipodi:docname="_a_1_animate_background_wireframe.svg">
  <metadata
     id="metadata545">
    <rdf:RDF>
      <cc:Work
         rdf:about="">
        <dc:format>image/svg+xml</dc:format>
        <dc:type
           rdf:resource="http://purl.org/dc/dcmitype/StillImage" />
        <dc:title />
      </cc:Work>
    </rdf:RDF>
  </metadata>
  <sodipodi:namedview
     pagecolor="#ffffff"
     bordercolor="#666666"
     borderopacity="1"
     objecttolerance="10"
     gridtolerance="10"
     guidetolerance="10"
     inkscape:pageopacity="0"
     inkscape:pageshadow="2"
     inkscape:window-width="1167"
     inkscape:window-height="665"
     id="namedview543"
     showgrid="false"
     inkscape:zoom="0.55047813"
     inkscape:cx="493.98524"
     inkscape:cy="459.63015"
     inkscape:window-x="0"
     inkscape:window-y="0"
     inkscape:window-maximized="0"
     inkscape:current-layer="g4193" />
  <defs
     id="defs26580">
    <style
       id="style26900"><![CDATA[
    @font-face { font-family:"Raleway";src:url("#FontID1") format(svg)}
    @font-face { font-family:"Arial";src:url("#FontID0") format(svg)}
    .str12 {stroke:#FEFEFE;stroke-width:7.39764}
    .str10 {stroke:#383332;stroke-width:12.9173}
    .str0 {stroke:#B6B6BB;stroke-width:13.8898}
    .str4 {stroke:#383332;stroke-width:15.8071}
    .str14 {stroke:#383332;stroke-width:17.2244}
    .str3 {stroke:#383332;stroke-width:17.437}
    .str11 {stroke:#383332;stroke-width:18.6457}
    .str1 {stroke:#383332;stroke-width:19.7756}
    .str8 {stroke:#383332;stroke-width:21.5315}
    .str7 {stroke:#383332;stroke-width:25.8386}
    .str6 {stroke:#383332;stroke-width:30.5394}
    .str9 {stroke:#383332;stroke-width:34.4488}
    .str13 {stroke:#383332;stroke-width:43.063}
    .str5 {stroke:#383332;stroke-width:64.5945}
    .str2 {stroke:#383332;stroke-width:91.6811}
    .fil11 {fill:none;fill-rule:nonzero}
    .fil6 {fill:#383332}
    .fil4 {fill:#E7992F}
    .fil3 {fill:#949595}
    .fil5 {fill:#D5D5D5}
    .fil9 {fill:#383332;fill-rule:nonzero}
    .fil1 {fill:#575658;fill-rule:nonzero}
    .fil8 {fill:#E7A56F;fill-rule:nonzero}
    .fil7 {fill:#FCD967;fill-rule:nonzero}
    .fil10 {fill:#FDDF84;fill-rule:nonzero}
    .fil2 {fill:#FEFEFE;fill-rule:nonzero}
    .fil0 {fill:url(#id0);fill-rule:nonzero}
    .fnt0 {font-weight:bold;font-size:138.886;font-family:'Arial'}
    .fnt1 {font-weight:bold;font-size:239.988;font-family:'Arial'}
    .fnt4 {font-weight:bold;font-size:239.988;font-family:'Arial'}
    .fnt3 {font-weight:normal;font-size:396.744;font-family:'Raleway'}
    .fnt2 {font-weight:normal;font-size:534.323;font-family:'Raleway'}
   ]]></style>
    <style
       id="style26900-5"><![CDATA[
    @font-face { font-family:"Raleway";src:url("#FontID1") format(svg)}
    @font-face { font-family:"Arial";src:url("#FontID0") format(svg)}
    .str12 {stroke:#FEFEFE;stroke-width:7.39764}
    .str10 {stroke:#383332;stroke-width:12.9173}
    .str0 {stroke:#B6B6BB;stroke-width:13.8898}
    .str4 {stroke:#383332;stroke-width:15.8071}
    .str14 {stroke:#383332;stroke-width:17.2244}
    .str3 {stroke:#383332;stroke-width:17.437}
    .str11 {stroke:#383332;stroke-width:18.6457}
    .str1 {stroke:#383332;stroke-width:19.7756}
    .str8 {stroke:#383332;stroke-width:21.5315}
    .str7 {stroke:#383332;stroke-width:25.8386}
    .str6 {stroke:#383332;stroke-width:30.5394}
    .str9 {stroke:#383332;stroke-width:34.4488}
    .str13 {stroke:#383332;stroke-width:43.063}
    .str5 {stroke:#383332;stroke-width:64.5945}
    .str2 {stroke:#383332;stroke-width:91.6811}
    .fil11 {fill:none;fill-rule:nonzero}
    .fil6 {fill:#383332}
    .fil4 {fill:#E7992F}
    .fil3 {fill:#949595}
    .fil5 {fill:#D5D5D5}
    .fil9 {fill:#383332;fill-rule:nonzero}
    .fil1 {fill:#575658;fill-rule:nonzero}
    .fil8 {fill:#E7A56F;fill-rule:nonzero}
    .fil7 {fill:#FCD967;fill-rule:nonzero}
    .fil10 {fill:#FDDF84;fill-rule:nonzero}
    .fil2 {fill:#FEFEFE;fill-rule:nonzero}
    .fil0 {fill:url(#id0);fill-rule:nonzero}
    .fnt0 {font-weight:bold;font-size:138.886;font-family:'Arial'}
    .fnt1 {font-weight:bold;font-size:239.988;font-family:'Arial'}
    .fnt4 {font-weight:bold;font-size:239.988;font-family:'Arial'}
    .fnt3 {font-weight:normal;font-size:396.744;font-family:'Raleway'}
    .fnt2 {font-weight:normal;font-size:534.323;font-family:'Raleway'}
   ]]></style>
    <style
       id="style26900-4"><![CDATA[
    @font-face { font-family:"Raleway";src:url("#FontID1") format(svg)}
    @font-face { font-family:"Arial";src:url("#FontID0") format(svg)}
    .str12 {stroke:#FEFEFE;stroke-width:7.39764}
    .str10 {stroke:#383332;stroke-width:12.9173}
    .str0 {stroke:#B6B6BB;stroke-width:13.8898}
    .str4 {stroke:#383332;stroke-width:15.8071}
    .str14 {stroke:#383332;stroke-width:17.2244}
    .str3 {stroke:#383332;stroke-width:17.437}
    .str11 {stroke:#383332;stroke-width:18.6457}
    .str1 {stroke:#383332;stroke-width:19.7756}
    .str8 {stroke:#383332;stroke-width:21.5315}
    .str7 {stroke:#383332;stroke-width:25.8386}
    .str6 {stroke:#383332;stroke-width:30.5394}
    .str9 {stroke:#383332;stroke-width:34.4488}
    .str13 {stroke:#383332;stroke-width:43.063}
    .str5 {stroke:#383332;stroke-width:64.5945}
    .str2 {stroke:#383332;stroke-width:91.6811}
    .fil11 {fill:none;fill-rule:nonzero}
    .fil6 {fill:#383332}
    .fil4 {fill:#E7992F}
    .fil3 {fill:#949595}
    .fil5 {fill:#D5D5D5}
    .fil9 {fill:#383332;fill-rule:nonzero}
    .fil1 {fill:#575658;fill-rule:nonzero}
    .fil8 {fill:#E7A56F;fill-rule:nonzero}
    .fil7 {fill:#FCD967;fill-rule:nonzero}
    .fil10 {fill:#FDDF84;fill-rule:nonzero}
    .fil2 {fill:#FEFEFE;fill-rule:nonzero}
    .fil0 {fill:url(#id0);fill-rule:nonzero}
    .fnt0 {font-weight:bold;font-size:138.886;font-family:'Arial'}
    .fnt1 {font-weight:bold;font-size:239.988;font-family:'Arial'}
    .fnt4 {font-weight:bold;font-size:239.988;font-family:'Arial'}
    .fnt3 {font-weight:normal;font-size:396.744;font-family:'Raleway'}
    .fnt2 {font-weight:normal;font-size:534.323;font-family:'Raleway'}
   ]]></style>
  </defs>
  <g
     id="g4193">
    <path
       sodipodi:nodetypes="ccccccc"
       style="fill:#fcd967;fill-rule:nonzero;stroke:#383332;stroke-width:17.43700027;fill-opacity:0.39215687"
       inkscape:connector-curvature="0"
       class="fil11 str3"
       d="m 1440.0047,4249.3 c -5,17 -11,34 -17,51 -6,18 -11,35 -29,45 -35,21 -83,3 -115,-15 -28,-17 -61,-47 -52,-83 5,-21 21,-41 31,-59 2,-3 3,-6 5,-9"
       id="path27742" />
    <path
       sodipodi:nodetypes="ccccccccc"
       style="fill:#fcd967;fill-rule:nonzero;stroke:#383332;stroke-width:17.43700027;fill-opacity:0.39215687"
       inkscape:connector-curvature="0"
       class="fil11 str3"
       d="m 1413.0047,4047.3 c -17,14 -32,26 -41,33 -37,32 -72,65 -108,99 -3,3 -6,6 -9,8 -20,18 -41,37 -62,54 -16,14 -31,27 -53,27 -45,1 -82,-43 -103,-79 -18,-32 -33,-80 -4,-110 10,-11 24,-19 38,-26"
       id="path27744" />
    <path
       sodipodi:nodetypes="cccccccccccccscsc"
       style="fill:#fcd967;fill-rule:nonzero;stroke:#383332;stroke-width:17.43700027;fill-opacity:0.39215687"
       inkscape:connector-curvature="0"
       class="fil11 str3"
       d="m 1336.0047,3980.3 c -33,8 -61,14 -77,19 -57,15 -112,33 -169,50 -6,2 -12,3 -18,5 0,0 0,1 -1,1 -23,6 -46,13 -70,19 -22.99998,5 -43.99998,13 -65.99998,2 -46,-22 -61,-84 -64,-129 -3,-41 5,-96 49,-112 6,-2 12,-4 19,-5 m 702.99998,-334 c 4,-20 9,-41 12,-61 3,-19 7,-36 -3,-53 -20,-35 -70,-44 -107,-44 -32,0 -76,10 -87,46 -6,20 -2,45 -2,66 l 0,11"
       id="path27746" />
    <path
       sodipodi:nodetypes="ccccccccc"
       style="fill:#fcd967;fill-rule:nonzero;stroke:#383332;stroke-width:17.43700027;fill-opacity:0.39215687"
       inkscape:connector-curvature="0"
       class="fil11 str3"
       d="m 1519.0047,3648.3 c -8,-20 -15,-37 -19,-48 -16,-46 -29,-93 -44,-139 -1,-4 -2,-8 -4,-13 -9,-26 -17,-52 -27,-78 -7,-20 -13,-39 -32,-50 -40,-23 -93,-3 -129,17 -31,18 -69,52 -59,93 3,15 13,29 22,43"
       id="path27748" />
    <path
       sodipodi:nodetypes="cccccccc"
       style="fill:#fcd967;fill-rule:nonzero;stroke:#383332;stroke-width:17.43700027;fill-opacity:0.39215687"
       inkscape:connector-curvature="0"
       class="fil11 str3"
       d="m 1419.0047,3668.3 c -24,-23 -46,-43 -58,-54 -42,-41 -81,-85 -121,-128 -4,-4 -8,-8 -12,-13 -17,-18 -35,-35 -52,-53 -17,-16 -32,-33 -56,-34 -51,-4 -95,42 -120,80 -16.99998,25 -32.99998,61 -26.99998,92"
       id="path27750" />
    <path
       sodipodi:nodetypes="ccccccccccccc"
       style="fill:#fcd967;fill-rule:nonzero;stroke:#383332;stroke-width:17.43700027;fill-opacity:0.39215687"
       inkscape:connector-curvature="0"
       class="fil11 str3"
       d="m 1292.0047,3881.3 c -33,-6 -61,-13 -78,-15 -62,-10 -125,-17 -188,-25 -28.99998,-4 -57.99998,-8 -86.99998,-13 -3,-1 -7,-1 -9,-2 -25,-5 -49,-7 -66,-27 -35,-42 -23,-109 -6,-155 15,-41 47,-92 97,-89 l 19,3 c 22,6 44.99998,18 65.99998,25 31,12 61,25 92,37 41,17 148,52 232,80 l 1,0"
       id="path27752" />
    <path
       sodipodi:nodetypes="cccscsc"
       style="fill:#fcd967;fill-rule:nonzero;stroke:#383332;stroke-width:17.43700027;fill-opacity:0.39215687"
       inkscape:connector-curvature="0"
       class="fil11 str3"
       d="m 1639.0047,5962.3 c 4,17 7,35 10,52 3,19 8,36 -2,53 -20,35 -71,44 -107,44 -33,0 -76,-10 -87,-46 -6,-20 -2,-46 -2,-67 0,-3 0,-7 1,-11"
       id="path27758" />
    <path
       sodipodi:nodetypes="ccccccccc"
       style="fill:#fcd967;fill-rule:nonzero;stroke:#383332;stroke-width:17.43700027;fill-opacity:0.39215687"
       inkscape:connector-curvature="0"
       class="fil11 str3"
       d="m 1514.0047,5800.3 c -8,21 -15,38 -19,49 -16,46 -30,92 -44,139 -1,4 -3,8 -4,13 -8,26 -17,52 -26,77 -7,20 -13,39 -32,50 -39,23 -93,3 -129,-17 -31,-19 -69,-53 -59,-93 3,-15 12,-29 20,-42"
       id="path27760" />
    <path
       sodipodi:nodetypes="csscccccccccccccc"
       style="fill:#fcd967;fill-rule:nonzero;stroke:#383332;stroke-width:17.43700027;fill-opacity:0.39215687"
       inkscape:connector-curvature="0"
       class="fil11 str3"
       d="m 1222.0047,5976.3 c -17,17 -34,35 -51,51 -17,16 -32,33 -57,35 -50,4 -94,-42 -119.99998,-80 -23,-33 -43,-85 -14,-121 4,-5 9,-9 14,-14 m 419.99998,-67 c -24,24 -46,43 -57,55 -42,41 -81,85 -121,128 l -13,13 m 215,-768 c -7,-20 -13,-39 -20,-59 -7,-18 -12,-35 -29,-45 -35,-20 -83,-3 -114,16 -28,16 -61,47 -53,83 5,21 21,41 32,59 2,3 3,6 5,9"
       id="path27762" />
    <path
       sodipodi:nodetypes="cscsccsccc"
       style="fill:#fcd967;fill-rule:nonzero;stroke:#383332;stroke-width:17.43700027;fill-opacity:0.39215687"
       inkscape:connector-curvature="0"
       class="fil11 str3"
       d="m 1407.0047,5401.3 c -17,-14 -31,-25 -40,-33 -36,-32 -72,-65 -108,-98 l -1,-1 c -3,-3 -7,-6 -9,-9 -20,-19 -41,-37 -62,-54 -16,-13 -30,-27 -53,-27 -46,0 -82,43 -103,80 -18,31 -32.99998,79 -4,110 10,11 25,19 39,26"
       id="path27764" />
    <path
       sodipodi:nodetypes="cccccccc"
       style="fill:#fcd967;fill-rule:nonzero;stroke:#383332;stroke-width:17.43700027;fill-opacity:0.39215687"
       inkscape:connector-curvature="0"
       class="fil11 str3"
       d="m 1330.0047,5468.3 c -32,-8 -61,-14 -76,-18 -57,-15 -113,-33 -169,-50 -6,-2 -12,-3 -18,-5 -23,-7 -46,-13 -69.99998,-19 -23,-5 -44,-12 -67,-2 -45,22 -61,83 -64,129 -2,30 2,69 23,93"
       id="path27766" />
    <path
       sodipodi:nodetypes="ccccccccccccc"
       style="fill:#fcd967;fill-rule:nonzero;stroke:#383332;stroke-width:17.43700027;fill-opacity:0.39215687"
       inkscape:connector-curvature="0"
       class="fil11 str3"
       d="m 1327.0047,5716.3 c -32,12 -60,20 -75,26 -59,22 -117,48 -175,72 -27,11 -54,22 -80.99998,32 l -10,3 c -24,9 -46,18 -71,9 -51,-18 -75,-82 -83,-131 -8,-43 -5,-103 40,-125 6,-3 11,-5 18,-7 22,-7 48,-8 70,-11 33,-5 64.99998,-9 97.99998,-13 45,-5 154,-29 240,-47 1,-1 1,-1 1,0"
       id="path27768" />
    <path
       sodipodi:nodetypes="ccscccc"
       style="fill:#fcd967;fill-rule:nonzero;stroke:#383332;stroke-width:17.43700027;fill-opacity:0.39215687"
       inkscape:connector-curvature="0"
       class="fil11 str3"
       d="m 2668.0047,7345.3 c 12,13 24,27 35,40 12,15 24,28 24,47 0,41 -39,73 -71,92 -28,16 -71,30 -98,4 -15,-15 -25,-38 -35,-57 -2,-3 -3,-5 -5,-9"
       id="path27774" />
    <path
       sodipodi:nodetypes="ccccccscc"
       style="fill:#fcd967;fill-rule:nonzero;stroke:#383332;stroke-width:17.43700027;fill-opacity:0.39215687"
       inkscape:connector-curvature="0"
       class="fil11 str3"
       d="m 2479.0047,7268.3 c 4,21 6,40 8,51 9,48 21,96 31,144 l 3,11 c 6,27 11,54 16,81 3,21 8,41 -3,60 -22,39 -79,49 -120,49 -37,0 -86,-11 -97,-51 -4,-15 -4,-32 -4,-48"
       id="path27776" />
    <path
       sodipodi:nodetypes="cccccccccccscccc"
       style="fill:#fcd967;fill-rule:nonzero;stroke:#383332;stroke-width:17.43700027;fill-opacity:0.39215687"
       inkscape:connector-curvature="0"
       class="fil11 str3"
       d="m 2382.0047,7300.3 c -9,32 -18,60 -22,76 -15,56 -27,114 -41,171 -1,6 -3,11 -4,17 -5,24 -12,48 -18,71 -7,23 -12,44 -32,58 -42,29 -103,11 -144,-9 -37,-18 -81,-52 -73,-98 1,-6 3,-12 5,-19 m 64,-774 -47,-41 c -15,-12 -27,-25 -47,-25 -41,0 -74,39 -92,71 -16,28 -30,71 -4,98 15,16 38,25 56,35 3,2 6,3 9,5"
       id="path27778" />
    <path
       sodipodi:nodetypes="ccccccscccccccccc"
       style="fill:#fcd967;fill-rule:nonzero;stroke:#383332;stroke-width:17.43700027;fill-opacity:0.39215687"
       inkscape:connector-curvature="0"
       class="fil11 str3"
       d="m 2187.0047,6975.3 c -21,-3 -40,-6 -51,-8 -48,-9 -95,-21 -143,-31 l -12,-3 c -27,-6 -54,-11 -81,-16 -21,-4 -41,-8 -60,3 -40,23 -49,79 -49,120 0,37 11,86 51,97 15,4 32,4 48,3 m 264,-67 c -32,9 -60,18 -76,23 -56,15 -114,27 -171,41 -5,1 -11,3 -17,4 -24,6 -48,12 -71,19 -22,7 -44,11 -58,32 -29,42 -11,103 9,144 13,27 36,59 66,70"
       id="path27780" />
    <path
       sodipodi:nodetypes="cccccccccc"
       style="fill:#fcd967;fill-rule:nonzero;stroke:#383332;stroke-width:17.43700027;fill-opacity:0.39215687"
       inkscape:connector-curvature="0"
       class="fil11 str3"
       d="m 2052.0047,7568.3 c -2,3 -5,6 -7,8 -16,19 -31,38 -57,43 -53,10 -105,-34 -137,-72 -28,-33 -56,-87 -28,-128 4,-5 7,-10 12,-14 16,-17 38,-31 55,-45 26,-21 52,-41 79,-61 36,-27 119,-102 184,-161 1,0 1,0 1,-1"
       id="path27782" />
    <path
       sodipodi:nodetypes="cccc"
       style="fill:#fcd967;fill-rule:nonzero;stroke:#383332;stroke-width:17.43700027;fill-opacity:0.39215687"
       inkscape:connector-curvature="0"
       class="fil11 str3"
       d="m 2275.0047,7289.3 c -22,26 -42,48 -52,60 -40,49 -77,100 -116,150 -18,23 -36,46 -55,68"
       id="path27784" />
    <path
       sodipodi:nodetypes="ccccccc"
       style="fill:#fcd967;fill-rule:nonzero;stroke:#383332;stroke-width:17.43700027;fill-opacity:0.39215687"
       inkscape:connector-curvature="0"
       class="fil11 str3"
       d="m 4251.0047,8028.3 c 17,6 34,11 50,18 18,7 35,12 45,29 21,35 3,83 -16,115 -16,28 -46,61 -83,53 -21,-5 -41,-21 -59,-32 l -9,-6"
       id="path27790" />
    <path
       sodipodi:nodetypes="cccccscccccccccccccccscsc"
       style="fill:#fcd967;fill-rule:nonzero;stroke:#383332;stroke-width:17.43700027;fill-opacity:0.39215687"
       inkscape:connector-curvature="0"
       class="fil11 str3"
       d="m 4049.0047,8056.3 c 14,17 25,31 33,40 32,37 65,72 98,108 3,3 6,7 9,9 19,20 37,41 54,62 14,16 27,31 27,53 0,46 -43,82 -79,103 -31,18 -80,33 -110,4 -12,-11 -20,-26 -27,-41 m -73,-261 c 8,32 14,61 18,77 15,57 33,113 50,169 2,5 3,10 4,15 7,24 14,48 20,72 6,23 12,44 2,67 -22,45 -83,61 -129,64 -41,3 -96,-5 -112,-49 -3,-6 -4,-13 -5,-20 m -332,-702 c -20,-5 -41,-9 -61,-12 -19,-3 -36,-7 -53,3 -35,20 -44,71 -44,107 0,33 9,76 45,87 21,6 46,2 67,2 l 11,0"
       id="path27792" />
    <path
       sodipodi:nodetypes="ccccccccc"
       style="fill:#fcd967;fill-rule:nonzero;stroke:#383332;stroke-width:17.43700027;fill-opacity:0.39215687"
       inkscape:connector-curvature="0"
       class="fil11 str3"
       d="m 3649.0047,7949.3 -48,19 c -46,16 -93,30 -139,45 -4,1 -8,3 -12,4 -26,8 -52,17 -78,26 -20,7 -39,13 -50,32 -23,39 -3,93 18,129 18,31 52,68 92,58 15,-3 29,-12 42,-20"
       id="path27794" />
    <path
       sodipodi:nodetypes="ccsccccccccccccccccccc"
       style="fill:#fcd967;fill-rule:nonzero;stroke:#383332;stroke-width:17.43700027;fill-opacity:0.39215687"
       inkscape:connector-curvature="0"
       class="fil11 str3"
       d="m 3474.0047,8241.3 c -17,17 -35,33 -51,51 -16,17 -33,32 -35,57 -4,50 42,94 80,120 25,17 60,33 92,27 m 110,-447 c -24,24 -43,46 -54,57 -41,42 -85,81 -128,121 l -13,13 m 408,-64 c -6,33 -13,62 -15,78 -11,63 -17,125 -25,188 -4,29 -8,58 -13,86 -1,4 -1,7 -2,10 -4,25 -7,49 -27,66 -41,35 -109,23 -155,6 -41,-15 -91,-48 -88,-97 0,-6 1,-12 3,-18 5,-23 17,-46 25,-66 12,-31 25,-61 37,-92 17,-41 52,-147 80,-231 0,-1 0,-1 1,-2"
       id="path27796" />
    <path
       sodipodi:nodetypes="cccccsccccccccccc"
       style="fill:#fcd967;fill-rule:nonzero;stroke:#383332;stroke-width:17.43700027;fill-opacity:0.39215687"
       inkscape:connector-curvature="0"
       class="fil11 str3"
       d="m 5963.0047,7829.3 c 17,-4 35,-7 52,-10 18,-4 36,-8 53,2 35,20 44,70 44,107 -1,32 -10,76 -46,87 -21,6 -46,2 -67,2 -4,0 -7,0 -11,-1 m -186,-62 c 20,8 37,15 48,19 46,16 93,29 139,44 l 1,0 c 4,1 8,3 12,4 26,9 52,17 78,27 20,7 39,13 50,32 23,40 3,93 -18,129 -18,31 -52,68 -93,59 -15,-4 -30,-12 -43,-21"
       id="path27802" />
    <path
       sodipodi:nodetypes="cccccccccccccccc"
       style="fill:#fcd967;fill-rule:nonzero;stroke:#383332;stroke-width:17.43700027;fill-opacity:0.39215687"
       inkscape:connector-curvature="0"
       class="fil11 str3"
       d="m 5781.0047,8054.3 c 23,24 43,46 54,58 42,42 85,81 128,121 4,4 8,8 13,12 18,17 35,35 53,52 16,17 33,32 35,56 4,50 -42,95 -80,120 -33,23 -85,43 -121,14 -5,-4 -10,-9 -14,-14 m -640,-442 c -20,7 -39,13 -59,20 -18,7 -35,12 -45,29 -20,35 -3,83 15,115 16,28 47,61 83,52 21,-5 40,-21 58,-31 3,-2 7,-4 9,-6"
       id="path27804" />
    <path
       sodipodi:nodetypes="cccccscccccccccccccccccccccccc"
       style="fill:#fcd967;fill-rule:nonzero;stroke:#383332;stroke-width:17.43700027;fill-opacity:0.39215687"
       inkscape:connector-curvature="0"
       class="fil11 str3"
       d="m 5402.0047,8061.3 c -14,17 -25,32 -33,41 -32,37 -65,72 -98,108 -3,3 -5,6 -9,9 -19,20 -37,41 -54,61 -14,16 -28,31 -28,53 0,45 44,82 79,103 32,18 80,33 110,4 11,-11 20,-26 27,-40 m 74,-262 c -8,33 -14,61 -18,77 -15,57 -33,112 -50,169 -2,6 -3,11 -5,16 -7,24 -13,48 -20,72 -5,23 -12,44 -1,66 22,46 83,61 129,64 30,2 69,-2 93,-23 m 120,-438 c 12,32 20,59 26,75 23,59 48,117 72,175 11,27 22,54 32,82 1,3 3,7 4,10 9,24 18,46 9,71 -19,51 -83,75 -131,83 -43,7 -103,5 -125,-40 -3,-6 -5,-12 -7,-18 -6,-22 -8,-48 -11,-70 -5,-33 -10,-65 -14,-98 -6,-44 -29,-154 -47,-240 l -1,-1"
       id="path27806" />
    <path
       sodipodi:nodetypes="cccccccccccccscc"
       style="fill:#fcd967;fill-rule:nonzero;stroke:#383332;stroke-width:17.43700027;fill-opacity:0.39215687"
       inkscape:connector-curvature="0"
       class="fil11 str3"
       d="m 7346.0047,6800.3 c 13,-12 26,-24 40,-35 15,-13 27,-25 47,-25 41,-1 73,39 92,71 16,28 30,71 4,98 -15,15 -38,25 -57,35 -3,2 -7,4 -10,5 m -193,40 c 22,-3 40,-6 51,-8 48,-9 94,-20 142,-31 l 13,-3 c 27,-6 53,-11 80,-16 21,-3 41,-8 60,3 39,22 49,79 49,120 0,36 -11,85 -51,97 -15,4 -32,4 -48,3"
       id="path27812" />
    <path
       sodipodi:nodetypes="csccccccccccsccccccccccscc"
       style="fill:#fcd967;fill-rule:nonzero;stroke:#383332;stroke-width:17.43700027;fill-opacity:0.39215687"
       inkscape:connector-curvature="0"
       class="fil11 str3"
       d="m 7566.0047,7154.3 c 24,6 48,13 71,19 23,6 45,11 59,31 28,42 11,103 -9,144 -18,36 -52,80 -98,72 -7,-1 -13,-3 -19,-6 m -268,-328 c 32,9 60,18 75,23 57,15 114,27 171,41 5,1 10,3 16,4 m -770,198 c -14,15 -27,31 -41,47 -12,14 -25,27 -25,47 0,41 39,73 71,92 28,16 71,30 98,4 15,-15 25,-38 35,-57 2,-3 3,-6 5,-9 m 40,-194 c -3,21 -6,40 -8,51 -9,48 -21,95 -31,143 l -3,12 c -6,27 -11,53 -16,81 -4,21 -8,40 3,60 23,39 79,49 120,49 36,0 86,-11 97,-51 4,-15 4,-31 4,-48"
       id="path27814" />
    <path
       sodipodi:nodetypes="cccccccccccccccccc"
       style="fill:#fcd967;fill-rule:nonzero;stroke:#383332;stroke-width:17.43700027;fill-opacity:0.39215687"
       inkscape:connector-curvature="0"
       class="fil11 str3"
       d="m 7073.0047,7314.3 c 10,32 19,60 23,76 15,57 28,114 41,171 1,5 3,12 5,17 5,24 12,47 18,71 7,23 11,44 32,59 42,29 103,11 144,-9 27,-13 59,-36 70,-66 m 163,-218 c 3,2 5,5 8,7 19,16 39,30 43,57 9,53 -34,105 -72,137 -33,28 -87,55 -128,28 -5,-3 -10,-7 -14,-12 -17,-15 -31,-37 -45,-55 -21,-26 -41,-52 -61,-79 -27,-36 -102,-119 -161,-185 -1,0 -1,-1 -1,-1"
       id="path27816" />
    <path
       sodipodi:nodetypes="cccc"
       style="fill:#fcd967;fill-rule:nonzero;stroke:#383332;stroke-width:17.43700027;fill-opacity:0.39215687"
       inkscape:connector-curvature="0"
       class="fil11 str3"
       d="m 7291.0047,7193.3 c 26,22 47,41 60,52 49,40 100,77 150,116 23,18 46,36 68,55"
       id="path27818" />
    <path
       sodipodi:nodetypes="ccccccc"
       style="fill:#fcd967;fill-rule:nonzero;stroke:#383332;stroke-width:17.43700027;fill-opacity:0.39215687"
       inkscape:connector-curvature="0"
       class="fil11 str3"
       d="m 8030.0047,5218.3 c 5,-17 11,-33 17,-50 7,-18 12,-35 29,-45 35,-20 83,-3 115,15 28,16 61,47 52,83 -5,21 -21,41 -32,59 -2,3 -3,5 -6,9"
       id="path27824" />
    <path
       sodipodi:nodetypes="cccccsccc"
       style="fill:#fcd967;fill-rule:nonzero;stroke:#383332;stroke-width:17.43700027;fill-opacity:0.39215687"
       inkscape:connector-curvature="0"
       class="fil11 str3"
       d="m 8058.0047,5420.3 c 17,-14 31,-25 40,-33 37,-32 72,-65 108,-99 3,-3 6,-6 9,-8 20,-19 41,-37 62,-54 16,-13 31,-27 53,-27 46,0 82,44 103,80 18,31 33,79 4,110 -10,11 -25,19 -39,26"
       id="path27826" />
    <path
       sodipodi:nodetypes="ccccccccccccscsc"
       style="fill:#fcd967;fill-rule:nonzero;stroke:#383332;stroke-width:17.43700027;fill-opacity:0.39215687"
       inkscape:connector-curvature="0"
       class="fil11 str3"
       d="m 8134.0047,5488.3 c 32,-8 61,-14 77,-19 57,-15 113,-33 169,-50 6,-2 12,-3 18,-5 23,-7 46,-13 70,-19 23,-5 44,-13 66,-2 46,22 61,84 64,129 3,41 -5,96 -49,112 -6,2 -12,4 -19,5 m -703,333 c -4,20 -9,40 -12,61 -3,19 -7,36 3,53 20,35 70,44 107,44 32,0 76,-10 87,-46 6,-20 2,-46 2,-66 0,-3 0,-7 -1,-11"
       id="path27828" />
    <path
       sodipodi:nodetypes="ccccccccc"
       style="fill:#fcd967;fill-rule:nonzero;stroke:#383332;stroke-width:17.43700027;fill-opacity:0.39215687"
       inkscape:connector-curvature="0"
       class="fil11 str3"
       d="m 7950.0047,5820.3 c 8,20 15,37 19,48 16,46 30,93 44,139 1,4 3,8 4,12 8,26 17,52 26,77 7,20 13,39 32,50 39,23 93,3 129,-17 31,-18 69,-53 59,-93 -3,-15 -12,-28 -20,-42"
       id="path27830" />
    <path
       sodipodi:nodetypes="ccccccscc"
       style="fill:#fcd967;fill-rule:nonzero;stroke:#383332;stroke-width:17.43700027;fill-opacity:0.39215687"
       inkscape:connector-curvature="0"
       class="fil11 str3"
       d="m 8051.0047,5799.3 c 24,23 46,43 57,54 42,41 81,85 121,127 4,4 8,9 13,13 1,0 1,1 1,1 17,17 33,34 51,51 17,16 32,33 57,35 50,4 94,-42 120,-80 17,-25 33,-61 27,-92"
       id="path27832" />
    <path
       sodipodi:nodetypes="ccccccccccccc"
       style="fill:#fcd967;fill-rule:nonzero;stroke:#383332;stroke-width:17.43700027;fill-opacity:0.39215687"
       inkscape:connector-curvature="0"
       class="fil11 str3"
       d="m 8178.0047,5586.3 c 33,6 61,13 78,15 63,10 125,17 188,25 29,4 58,9 87,13 3,1 7,1 9,2 25,4 49,7 66,27 35,41 23,109 7,155 -15,41 -47,92 -97,88 -6,-1 -12,-1 -18,-3 -23,-5 -46,-17 -66,-25 -31,-12 -61,-25 -92,-38 -41,-17 -148,-52 -232,-80 l -1,0"
       id="path27834" />
    <path
       sodipodi:nodetypes="cccscsc"
       style="fill:#fcd967;fill-rule:nonzero;stroke:#383332;stroke-width:17.43700027;fill-opacity:0.39215687"
       inkscape:connector-curvature="0"
       class="fil11 str3"
       d="m 7831.0047,3505.3 c -4,-17 -7,-35 -10,-52 -3,-19 -7,-36 2,-53 20,-35 71,-44 108,-44 32,0 76,10 86,46 6,20 2,46 2,66 0,4 0,7 -1,11"
       id="path27840" />
    <path
       sodipodi:nodetypes="ccccccccccscccccsccccccccc"
       style="fill:#fcd967;fill-rule:nonzero;stroke:#383332;stroke-width:17.43700027;fill-opacity:0.39215687"
       inkscape:connector-curvature="0"
       class="fil11 str3"
       d="m 7955.0047,3666.3 c 8,-20 15,-37 19,-48 16,-46 30,-93 44,-139 1,-4 3,-8 4,-13 8,-26 17,-52 26,-78 7,-20 13,-39 32,-50 39,-23 93,-3 129,17 31,18 69,52 59,93 -3,14 -12,29 -20,42 m 0,1 c 17,-17 34,-35 51,-51 17,-16 32,-33 57,-34 50,-4 95,42 120,80 23,33 43,86 14,121 -4,5 -9,10 -15,14 m -419,66 c 24,-24 46,-43 57,-54 41,-41 81,-85 121,-128 4,-4 8,-9 13,-13 m -215,767 c 7,20 13,40 20,59 7,18 12,35 29,45 35,21 83,3 114,-15 29,-16 62,-47 53,-83 -5,-21 -21,-41 -32,-59 -2,-3 -3,-6 -5,-9"
       id="path27842" />
    <path
       sodipodi:nodetypes="cscsccccccccccscccccccccccccccc"
       style="fill:#fcd967;fill-rule:nonzero;stroke:#383332;stroke-width:17.43700027;fill-opacity:0.39215687"
       inkscape:connector-curvature="0"
       class="fil11 str3"
       d="m 8062.0047,4066.3 c 17,14 32,25 41,33 36,32 71,65 107,98 l 1,1 c 3,3 7,6 9,9 20,19 41,37 62,54 16,13 31,27 53,27 46,1 82,-43 103,-79 18,-31 33,-80 4,-110 -10,-11 -25,-19 -39,-26 m -264,-75 c 32,8 61,14 77,18 57,15 113,33 169,50 6,2 12,3 18,5 23,7 47,13 70,19 23,6 44,12 67,2 46,-22 61,-83 64,-129 2,-30 -2,-69 -23,-93 m -439,-120 c 32,-12 60,-20 75,-26 59,-22 117,-48 175,-72 27,-11 54,-22 81,-32 3,-1 7,-2 11,-4 24,-9 46,-19 70,-10 51,19 75,83 83,131 7,43 5,103 -40,125 -5,3 -11,5 -18,7 -23,7 -48,8 -70,11 -33,5 -65,9 -98,13 -45,5 -154,28 -240,47 0,0 -1,0 -1,1"
       id="path27844" />
    <path
       sodipodi:nodetypes="ccscccc"
       style="fill:#fcd967;fill-rule:nonzero;stroke:#383332;stroke-width:17.43700027;fill-opacity:0.39215687"
       inkscape:connector-curvature="0"
       class="fil11 str3"
       d="m 6802.0047,2122.3 c -12,-13 -24,-26 -35,-40 -13,-15 -25,-27 -25,-48 0,-41 39,-73 71,-92 28,-16 71,-29 98,-4 15,15 24,38 34,57 2,3 4,7 6,10"
       id="path27850" />
    <path
       sodipodi:nodetypes="ccccccscc"
       style="fill:#fcd967;fill-rule:nonzero;stroke:#383332;stroke-width:17.43700027;fill-opacity:0.39215687"
       inkscape:connector-curvature="0"
       class="fil11 str3"
       d="m 6990.0047,2199.3 c -3,-22 -6,-41 -8,-52 -9,-47 -20,-94 -30,-142 l -3,-13 c -6,-27 -12,-54 -16,-81 -4,-21 -8,-40 3,-59 22,-40 79,-49 120,-49 36,0 85,11 97,51 5,15 4,32 3,49"
       id="path27852" />
    <path
       sodipodi:nodetypes="cccccccccccccccccc"
       style="fill:#fcd967;fill-rule:nonzero;stroke:#383332;stroke-width:17.43700027;fill-opacity:0.39215687"
       inkscape:connector-curvature="0"
       class="fil11 str3"
       d="m 7087.0047,2167.3 c 9,-32 19,-60 23,-76 16,-57 28,-114 41,-171 1,-5 3,-11 4,-16 6,-24 13,-48 19,-72 6,-22 11,-44 31,-59 42,-29 103,-11 144,9 36,17 80,52 72,98 -1,6 -3,13 -6,19 m -62,775 c 15,14 31,27 47,41 14,12 27,24 47,25 40,0 73,-39 91,-71 16,-28 30,-71 4,-98 -15,-15 -39,-25 -57,-35 -3,-2 -6,-3 -9,-5 m -160,-202 -1,0"
       id="path27854" />
    <path
       sodipodi:nodetypes="ccccccscc"
       style="fill:#fcd967;fill-rule:nonzero;stroke:#383332;stroke-width:17.43700027;fill-opacity:0.39215687"
       inkscape:connector-curvature="0"
       class="fil11 str3"
       d="m 7282.0047,2492.3 c 22,3 41,6 52,8 48,9 95,20 143,31 l 12,3 c 27,5 54,11 81,16 21,3 40,8 59,-3 40,-22 49,-79 49,-120 0,-36 -11,-85 -51,-97 -15,-5 -33,-4 -50,-3"
       id="path27856" />
    <path
       sodipodi:nodetypes="cccccccccccccccccccccc"
       style="fill:#fcd967;fill-rule:nonzero;stroke:#383332;stroke-width:17.43700027;fill-opacity:0.39215687"
       inkscape:connector-curvature="0"
       class="fil11 str3"
       d="m 7315.0047,2395.3 c 32,-9 60,-18 76,-23 57,-15 114,-27 171,-41 5,-1 10,-3 15,-4 25,-6 49,-12 73,-19 22,-7 44,-12 59,-32 29,-42 11,-103 -9,-144 -13,-27 -36,-59 -66,-69 m -318,266 -1,1 m -121,-152 c 22,-26 42,-48 52,-61 40,-49 77,-100 116,-150 18,-23 36,-46 55,-68 2,-3 4,-6 7,-9 16,-19 31,-39 57,-44 53,-9 106,35 137,72 28,33 56,87 28,128 -3,5 -7,10 -12,14 -16,17 -38,31 -55,45 -26,21 -52,41 -79,61 -36,27 -119,102 -184,161"
       id="path27858" />
    <path
       sodipodi:nodetypes="ccccccc"
       style="fill:#fcd967;fill-rule:nonzero;stroke:#383332;stroke-width:17.43700027;fill-opacity:0.39215687"
       inkscape:connector-curvature="0"
       class="fil11 str3"
       d="m 5219.0047,1438.3 c -17,-5 -34,-11 -50,-17 -18,-7 -35,-12 -45,-29 -20,-35 -3,-83 15,-115 16,-28 47,-61 83,-53 21,5 41,21 58,32 3,2 6,4 10,6"
       id="path27864" />
    <path
       sodipodi:nodetypes="ccccccccccccccccccccccccscsc"
       style="fill:#fcd967;fill-rule:nonzero;stroke:#383332;stroke-width:17.43700027;fill-opacity:0.39215687"
       inkscape:connector-curvature="0"
       class="fil11 str3"
       d="m 5421.0047,1411.3 c -14,-17 -25,-32 -33,-41 -31,-36 -65,-71 -98,-107 -3,-3 -6,-7 -9,-10 -19,-20 -37,-41 -54,-61 -14,-16 -27,-31 -28,-53 0,-46 43,-83 80,-103 31,-18 79,-33 109,-4 11,10 19,24 27,38 m 74,264 c -8,-32 -14,-61 -18,-77 -15,-57 -33,-113 -50,-169 -2,-6 -4,-13 -5,-19 m -1,1 0,-1 m 0,0 c -7,-23 -13,-46 -19,-69 -6,-22 -12,-44 -2,-66 22,-46 83,-61 129,-64 40,-3 96,5 112,49 2,6 4,13 5,19 m 333,703 c 20,4 41,9 61,12 19,3 36,7 53,-3 35,-20 44,-70 44,-107 0,-33 -10,-76 -46,-87 -21,-6 -46,-2 -67,-2 -4,0 -7,0 -11,1"
       id="path27866" />
    <path
       sodipodi:nodetypes="cccccccccccccccccsscccccc"
       style="fill:#fcd967;fill-rule:nonzero;stroke:#383332;stroke-width:17.43700027;fill-opacity:0.39215687"
       inkscape:connector-curvature="0"
       class="fil11 str3"
       d="m 5821.0047,1518.3 c 20,-8 37,-15 48,-18 46,-16 92,-30 138,-44 l 1,0 c 4,-1 8,-3 12,-4 26,-8 52,-17 78,-26 20,-7 39,-13 50,-32 23,-40 3,-93 -17,-129 -18,-31 -53,-68 -93,-59 -15,4 -29,12 -42,20 m -196,192 c 23,-24 43,-46 54,-57 41,-42 85,-81 127,-121 l 13,-13 m 1,-1 1,0 m 0,0 c 17,-17 35,-34 51,-51 16,-17 33,-32 35,-57 4,-50 -42,-95 -80,-120 -25,-17 -60,-33 -92,-27 m -323,319 c 7,-33 13,-62 15,-78 10,-63 17,-125 26,-188 4,-29 8,-58 13,-87"
       id="path27868" />
    <path
       sodipodi:nodetypes="cccccccccc"
       style="fill:#fcd967;fill-rule:nonzero;stroke:#383332;stroke-width:17.43700027;fill-opacity:0.39215687"
       inkscape:connector-curvature="0"
       class="fil11 str3"
       d="m 5641.0047,938.3 c 0,-3 1,-7 2,-10 4,-25 7,-49 28,-66 41,-35 108,-23 155,-6 41,15 92,47 88,97 0,6 -1,12 -3,19 -6,22 -17,45 -25,66 -12,31 -25,61 -38,92 -17,41 -52,147 -79,231 0,1 -1,1 -1,2"
       id="path27870" />
    <path
       sodipodi:nodetypes="cccscsc"
       style="fill:#fcd967;fill-rule:nonzero;stroke:#383332;stroke-width:17.43700027;fill-opacity:0.39215687"
       inkscape:connector-curvature="0"
       class="fil11 str3"
       d="m 3507.0047,1638.3 c -18,3 -35,7 -52,10 -19,3 -36,7 -53,-2 -35,-20 -44,-71 -44,-107 0,-32 10,-76 46,-87 20,-6 45,-2 66,-2 l 11,0"
       id="path27876" />
    <path
       sodipodi:nodetypes="ccccccccc"
       style="fill:#fcd967;fill-rule:nonzero;stroke:#383332;stroke-width:17.43700027;fill-opacity:0.39215687"
       inkscape:connector-curvature="0"
       class="fil11 str3"
       d="m 3667.0047,1513.3 c -20,-8 -37,-15 -48,-19 -46,-16 -93,-30 -139,-44 -4,-1 -8,-3 -12,-4 -26,-8 -52,-17 -78,-26 -20,-7 -39,-13 -50,-32 -23,-39 -3,-93 18,-128 18,-32 52,-69 93,-59 15,3 29,12 42,20"
       id="path27878" />
    <path
       sodipodi:nodetypes="ccccccccccccccccccc"
       style="fill:#fcd967;fill-rule:nonzero;stroke:#383332;stroke-width:17.43700027;fill-opacity:0.39215687"
       inkscape:connector-curvature="0"
       class="fil11 str3"
       d="m 3688.0047,1413.3 c -23,-24 -43,-46 -54,-57 -41,-42 -85,-81 -128,-121 l -13,-13 m 0,-1 -1,0 m 0,0 c -17,-17 -34,-33 -51,-51 -16,-17 -33,-32 -35,-57 -4,-51 41,-94 80,-120 34,-22 85,-43 122,-13 5,4 9,8 13,13 m 639,443 c 20,-7 40,-13 59,-20 18,-7 35,-12 45,-29 21,-35 3,-83 -15,-115 -16,-28 -47,-61 -83,-53 -21,5 -41,21 -59,32 -3,2 -6,3 -9,5"
       id="path27880" />
    <path
       sodipodi:nodetypes="cccccscccccccccscccccccccccccc"
       style="fill:#fcd967;fill-rule:nonzero;stroke:#383332;stroke-width:17.43700027;fill-opacity:0.39215687"
       inkscape:connector-curvature="0"
       class="fil11 str3"
       d="m 4067.0047,1406.3 c 14,-17 25,-31 33,-40 32,-37 66,-73 99,-109 3,-3 6,-6 8,-9 18,-20 36,-41 54,-62 14,-16 28,-31 28,-53 0,-46 -44,-82 -79,-103 -31,-18 -80,-33 -110,-4 -11,11 -20,26 -27,41 m -74,262 c 8,-32 14,-61 19,-77 15,-57 33,-113 49,-169 2,-5 3,-10 5,-16 7,-24 13,-48 20,-72 6,-23 12,-44 2,-67 -22,-45 -84,-61 -129,-64 -30,-2 -69,2 -93,22 m -121,440 c -11,-32 -20,-60 -26,-76 -23,-59 -48,-117 -72,-175 -11,-27 -22,-55 -32,-82 -1,-3 -2,-6 -4,-9 -9,-24 -18,-46 -9,-71 19,-51 83,-74 131,-83 43,-8 103,-5 125,40 3,6 5,12 7,18 7,22 7,48 11,70 5,33 9,65 13,99 6,44 29,153 47,240 1,1 1,1 1,2"
       id="path27882" />
    <path
       sodipodi:nodetypes="cssccccccccccscccccccccccccccccc"
       style="fill:#fcd967;fill-rule:nonzero;stroke:#383332;stroke-width:17.43700027;fill-opacity:0.39215687"
       inkscape:connector-curvature="0"
       class="fil11 str3"
       d="m 2123.0047,2667.3 c -13,12 -26,23 -40,35 -14,12 -27,25 -47,25 -41,0 -73,-39 -92,-71 -16,-29 -30,-71 -4,-98 15,-15 38,-25 57,-35 3,-2 6,-4 9,-5 m 194,-40 c -21,3 -40,6 -51,8 -48,9 -95,21 -143,31 l -12,3 c -27,6 -54,11 -81,16 -21,4 -40,8 -59,-3 -40,-23 -50,-79 -50,-120 0,-37 11,-86 51,-97 15,-4 31,-4 48,-3 m 265,68 c -32,-10 -60,-19 -76,-23 -57,-15 -114,-27 -171,-41 -6,-1 -12,-3 -17,-5 -24,-6 -47,-12 -71,-19 -23,-6 -44,-11 -59,-32 -28,-42 -11,-102 9,-144 18,-36 53,-80 98,-72 6,1 13,3 19,5 m 775,65 c 14,-15 28,-31 41,-47 12,-15 24,-28 24,-47 1,-41 -39,-73 -70,-92 -29,-16 -71,-30 -98,-4 -15,15 -25,38 -34,57 -2,3 -4,7 -6,10"
       id="path27902" />
    <path
       sodipodi:nodetypes="ccccccsccccccccccc"
       style="fill:#fcd967;fill-rule:nonzero;stroke:#383332;stroke-width:17.43700027;fill-opacity:0.39215687"
       inkscape:connector-curvature="0"
       class="fil11 str3"
       d="m 2493.0047,2185.3 c 4,-21 6,-40 8,-51 9,-48 21,-94 31,-142 l 3,-13 c 6,-27 11,-54 16,-81 4,-21 9,-40 -3,-60 -23,-40 -79,-49 -120,-49 -36,0 -85,11 -97,51 -5,15 -4,33 -3,50 m 0,1 c -6,-25 -13,-49 -19,-73 -7,-22 -11,-44 -32,-58 -42,-29 -103,-11 -144,9 -27,13 -59,36 -69,66 m 332,318 c -9,-32 -18,-60 -22,-75 -16,-57 -28,-114 -41,-171 -1,-5 -2,-9 -4,-14"
       id="path27904" />
    <path
       sodipodi:nodetypes="ccccccccccccc"
       style="fill:#fcd967;fill-rule:nonzero;stroke:#383332;stroke-width:17.43700027;fill-opacity:0.39215687"
       inkscape:connector-curvature="0"
       class="fil11 str3"
       d="m 2179.0047,2274.3 c -26,-22 -47,-42 -60,-52 -49,-40 -100,-77 -150,-116 -23,-18 -47,-37 -69,-55 -3,-2 -5,-4 -7,-6 -19,-16 -39,-31 -43,-57 -9,-54 35,-106 72,-137 33,-28 87,-56 128,-28 5,3 10,7 14,12 17,16 31,38 45,55 21,25 41,52 61,78 27,36 102,118 161,184 l 1,1"
       id="path27906" />
    <path
       sodipodi:nodetypes="ccccccccccccccccsccccccccccscsccccccsscccccccccccccccccccccccccscccccccccccccccccccccccccccccccccccscccccccccccccccccccccccccscccccccccsccsccccscsccccccccccsccccccccccscccccccccccccccccccccccccccsccccccccccccccccccccccccccccccccccccccccsccccccccccccccccccccccccccccccccccccccccccccccccscccccccccscccsccccccccccccccccccccsccccccccccccccccccccccsccccsccccccscccsccccscsccccccccccccccccccccccscccccsccccccccccccccccccccccccccccccccccccccccsccccc"
       style="fill:#ffff00;fill-rule:nonzero;stroke:#383332;stroke-width:64.59449768"
       inkscape:connector-curvature="0"
       class="fil11 str5"
       d="m 5933.0047,7646.3 c -8,-9 -16,-19 -26,-26 1,-3 2,-5 3,-8 14,-38 25,-78 32,-120 1,-5 2,-10 2,-16 2,-9 3,-18 3,-27 5,-47 5,-96 -1,-145 -1,-4 -1,-8 198.5,-116 238.5,-75 279.5,-52 321.5,-33 m 0,0 c 13,6 27,11 40,17 4,2 9,3 14,5 40,14 81,24 121,29 0,1 1,1 2,1 1,2 1,3 1,5 4,17 10,35 20,51 8,13 17,25 29,37 29,29 65,47 101,52 43,7 85,-4 115,-34 16,-17 27,-37 32,-59 12,9 24,17 36,23 19,11 38,18 58,24 13,4 26,6 39,8 22,3 44,3 65,-1 l 1,0 c 40,-6 77,-23 107,-52 l 1,-1 1,-1 c 19,-19 33,-41 42,-65 5,-13 8,-27 10,-41 3,-21 4,-43 1,-66 -2,-13 -4,-26 -8,-39 -6,-20 -14,-40 -25,-58 -8,-14 -17,-27 -27,-40 26,-4 51,-15 69,-34 30,-30 41,-71 35,-114 -5,-36 -23,-72 -53,-102 -16,-16 -35,-29 -53,-38 -4,-2 -8,-3 -12,-5 -12,-5 -23,-8 -35,-9 -1,-3 -1,-6 -1,-8 -7,-41 -17,-81 -32,-121 -2,-5 -3,-9 -6,-14 -3,-9 -7,-18 -12,-27 -19,-43 -43,-85 -73,-125 -2,-3 -4,-7 113.5,-199 169.5,-184 217.5,-184 263.5,-189 14,-1 29,-3 42,-5 5,-1 9,-1 14,-3 42,-8 83,-19 121,-35 l 1,-1 2,2 c 13,14 29,27 48,37 0,1 1,1 1,1 12,6 25,11 39,15 40,11 80,8 113,-5 41,-16 71,-47 83,-87 6,-23 4,-46 -2,-67 14,2 29,3 42,3 22,-1 43,-3 63,-8 13,-3 26,-8 38,-13 21,-8 40,-19 56.5,-33 31.5,-25 54.5,-59 65.5,-99 l 0,-2 c 0,-1 1,-1 1,-2 7,-26 8,-52 3,-77 -2,-14 -6,-28 -12,-41 -7,-20 -18,-39 -32,-57 -8,-11 -17,-21 -27,-30 -15,-14 -31,-27 -49,-38 -14,-8 -28,-15 -43,-22 21,-16 36,-38 43,-64 11,-40 -1,-83 -27,-116 -22,-29 -56,-51 -96,-62 -22,-6 -44,-8 -73.5,-5 -19.5,3 -29.5,6 -39.5,10 -2,-2 -4,-5 -6,-7 -26,-32 -55,-61 -88,-87 -4,-4 -8,-7 -13,-10 -7,-6 -15,-11 -22,-17 -39,-28 -81,-52 -126,-72 -3,-1 -7,-3 -1.5,-228.5 53.5,-243.5 95.5,-267.5 132.5,-294.5 12,-9 23,-17 34,-26 4,-3 8,-6 12,-10 32,-27 61,-58 86,-89 0,-1 1,-1 1,-1 2,1 4,1 6,2 17,5 36,8 55,7 15,0 30,-2 45,-6 40,-11 73,-33 95,-62 28,-34 39,-76 28,-117 -6,-22 -19,-41 -35,-57 13,-5 26,-12 38,-19 19,-11 35,-24 50,-38 10,-9 19,-19 27,-30 14,-18 25,-36 32,-56 0,-1 1,-1 0,-1 15,-38 19,-79 8,-119 0,0 -1,-1 -1,-2 0,-1 -1,-1 -1,-2 -7,-26 -19,-49 -36,-69 -9,-11 -19,-21 -30,-30 -16,-13 -36,-25 -57,-33 -12,-5 -25,-9 -38,-13 -20,-5 -41,-7 -63,-8 -16,0 -32,1 -48,3 10,-25 12,-51 6,-77 -11,-40 -42,-71 -82,-87 -34,-13 -74,-16 -114,-6 -25,7 -47,18 -66,33 -11,9 -21,18 -29,29 l -9,-3 c -38,-14 -78,-25 -120,-32 l -15,-3 c -9,-1 -19,-3 -28,-3 -47,-5 -95,-4 -144,1 -4,0 -9,0 -115.5,-198 -74.5,-238 -51.5,-278 -32.5,-319 6,-14 12,-28 17,-42 2,-4 3,-9 5,-14 14,-40 23,-81 29,-121 l 0,-1 c 2,0 3,-1 5,-1 17,-4 35,-11 51,-21 13,-7 26,-17 37,-28 29,-29 47,-66 52,-101 7,-43 -4,-85 -34,-115 -16,-17 -37,-27 -59,-32 9,-12 16,-23 23,-36 11,-19 19,-38 25,-58 4,-13 7,-26 8,-39 3,-22 3,-44 0,-65 0,-1 0,-1 -1,-1 -6,-41 -24,-78 -53,-107 0,-1 0,-1 -1,-1 -1,0 -1,0 -1,-1 -19,-19 -41,-33 -66,-42 -13,-5 -27,-9 -41,-11 -21,-3 -43,-3 -66,-1 -13,2 -26,4 -39,8 -20,6 -39,14 -58,25 -14,7 -27,16 -40,27 -4,-26 -15,-50 -34,-69 -30,-30 -72,-41 -114,-35 -36,5 -72,23 -102,53 -18,18 -31,37 -39,58 -1,1 -1,2 -1,3 -6,13 -9,26 -11,40 -3,0 -6,1 -9,2 -40,7 -80,17 -120,32 l -15,6 c -9,3 -17,7 -26,11 -43,19 -84,43 -124,72 l -199.5,-113.5 c -183.5,-168.5 -183.5,-216.5 -188.5,-261.5 -1,-15 -3,-29 -6,-44 -1,-5 -2,-9 -2,-14 -8,-42 -19,-83 -35,-121 l 0,-1 c 0,0 1,-1 2,-1 1,-1 1,-1 1,-2 14,-13 26,-28 36,-46 7,-13 12,-26 16,-41 11,-40 8,-80 -5,-114 -16,-40 -47,-71 -87,-82 -23,-6 -46,-5 -67,2 2,-14 3,-29 3,-43 0,-21 -3,-43 -8,-62 -3,-13 -7,-26 -13,-38 -8,-21 -19,-39 -33,-56 l -0.5,-0.5 c -25.5,-31.5 -59.5,-54.5 -94.5,-64 -35,-9.5 -62,-9.5 -87,-5.5 -14,2 -28,6 -41,12 -20,7 -40,19 -57,32 -11,8 -21,17 -30,27 -14,15 -27,31 -37,50 -8,14 -15,28 -21,43 -16,-21 -38,-36 -64,-43 -41,-11 -83,1 -116,27 -28,22 -51,56 -61,96 -6,22 -8,44 -5,65 0,6 1,11 2,17 2,11 5,21 9,31 -2,2 -5,4 -7,6 -31,26 -61,55 -87,88 -3,4 -7,8 -10,13 -6,7 -11,15 -17,22 -27,38 -52,81 -71,126 -2,3 -4,7 -230.5,0.5 -245.5,-54.5 -269.5,-95.5 -296.5,-133.5 -9,-12 -17,-23 -26,-34 -4,-4 -7,-8 -10,-12 -27,-32 -57,-61 -89,-86 -1,0 -1,0 -1,-1 0,-1 0,-1 1,-2 l 0,-1 c 6,-19 9,-39 9,-59 -1,-14 -3,-29 -7,-43 -11,-40 -33,-73 -61,-96 -34,-27 -76,-39 -117,-28 -23,6 -41,19 -57,35 -6,-13 -12,-26 -19,-38 -11,-19 -23,-35 -38,-49 -9,-10 -19,-19 -30,-27 -18,-13 -37,-24 -56,-32 l -1,-1 c -37,-15 -78,-18 -118,-8 l -2,0 c 0,0 -1,1 -2,1 -26,7 -49,19 -69,36 -11,9 -21,19 -30,30 -14,17 -25,36 -33,56 -5,12 -9,25 -13,38 -5,20 -7,41 -8,62 0,16 1,32 3,48 -25,-9 -51,-12 -77,-5 -41,11 -71,41 -87,82 -13,33 -16,74 -5,114 5,21 15,41 27,57 2,3 4,6 6,8 9,11 19,21 29,29 l -3,9 c -15,38 -25,78 -32,120 -1,5 -1,9 -2,15 -1,9 -3,19 -3,29 -5,47 -5,95 1,144 1,4 1,9 -199.5,117.5 -239.5,75.5 -280.5,52.5 -335.5438,26.8099 -26.0439,-12.69 -14.9562,-5.3099 -27.9562,-10.3099 -5,-2 -9,-3 -14,-5 -40,-14 -81,-24 -121,-29 l -1,0 c -1,-2 -1,-3 -1,-5 -4,-17 -11,-35 -21,-51 -7,-13 -17,-26 -29,-38 -29,-29 -65,-47 -101,-52 -43,-7 -85,4 -115,34 -17,16 -27,37 -32,59 -12,-9 -24,-17 -36,-24 -18,-10 -38,-18 -57,-24 -13,-4 -27,-7 -40,-9 -22,-3 -43,-3 -65,1 0,0 -1,0 -1,1 -40,6 -77,23 -106,52 -1,0 -1,1 -1,1 -1,0 -1,1 -1,1 -19,19 -32,41 -42,65 -5,13 -9,27 -10,41 -4,21 -4,43 -1,66 2,13 4,26 8,39 5,20 14,39 24,58 7,14 16,27 27,40 -26,4 -51,15 -69,34 -30,30 -41,72 -35,115 6,36 23,72 53,101 17,17 36,30 56,39 1,0 2,1 3,1 3,1 5,2 7,3 12,4 24,7 35,9 1,3 1,6 2,9 6,40 17,81 32,120 2,5 3,10 6,15 3,8 6,16 10,25 19,43 44,85 73,125 3,3 5,7 -113,200.5 -169,185.5 -216,184.5 -262,189.5 -15,1 -29,3 -43,6 -5,1 -10,1 -15,2 -42,8 -82,20 -120,35 -1,0 -1,1 -1,1 l -3,-3 c -13,-14 -29,-27 -47,-36 -1,-1 -1,-1 -2,-1 -12,-6 -25,-11 -39,-15 -40,-11 -80,-8 -114,5 -41,15 -71,47 -82,87 -6,23 -5,45 2,67 -14,-2 -29,-3 -42,-3 -21,1 -43,3 -63,8 -13,3 -26,7 -38,13 -21,8 -39,19 -56,33 0,0 0,1 -1,1 -31,26 -55,59 -66,99 0,1 -1,1 -1,2 0,1 -1,1 -1,2 -6,26 -7,52 -3,77 2,14 6,27 12,41 7,20 18,40 32,57 8,11 17,21 27,30 15,14 32,27 50,37 13,9 27,16 43,22 -20,17 -36,38 -43,64 -11,41 1,82 27,116 22,28 56,51 96,62 40,11 80,8 113,-5 2,2 4,5 6,7 26,31 55,61 88,87 4,3 8,7 12,10 8,6 15,12 23,18 39,27 81,52 126,71 3,1 7,3 1.5,228.5 -52.5,244.5 -93.5,267.5 -131.5,294.5 -12,9 -24,18 -35,27 l -12,9 c -32,28 -60,58 -85,90 0,1 -1,1 -1,1 -2,-1 -4,-1 -6,-2 -17,-5 -36,-8 -55,-7 -15,0 -30,2 -45,6 -40,11 -73,33 -96,61 -27,33 -39,76 -28,117 6,23 19,42 36,57 -13,6 -26,12 -38,19 -19,11 -35,24 -50,38 -10,9 -19,19 -27,30 -13,18 -24,37 -32,57 l 0,1 c -15,38 -19,79 -8,119 l 0,2 c 0,1 1,1 1,2 7,26 19,49 36,68 9,11 19,21 30,31 17,13 36,25 57,33 12,6 25,10 38,13 20,5 41,7 62,8 16,1 32,0 48,-3 -9,25 -12,51 -5,77 11,41 42,72 82,87 34,13 74,16 114,5 21,-6 41,-15 57,-26 4,-3 7,-5 10,-7 10,-9 20,-18 28,-28 2,1 5,2 8,3 38,14 78,25 120,32 5,1 11,2 16,2 l 26,3 c 47,5 96,5 146,-1 4,0 8,-1 116.5,197.5 75.5,237.5 51.5,278.5 23.75,344.75 -26.25,71.75 -36.25,112.75 -42.25,152.75 l 0,1 -2,0 c -1,0 -1,1 -2,1 -18,4 -36,11 -53,21 -13,8 -24,17 -36,28 -29,29 -47,65 -52,101 -7,43 4,85 34,115 16,16 37,27 59,32 -9,12 -17,23 -23,36 -10,19 -19,38 -24,58 -4,13 -7,26 -9,40 -3,22 -3,43 0,64 l 0,1 c 7,40 24,78 53,107 l 1,1 c 1,0 1,1 1,1 19,19 41,33 65,42 13,5 27,9 41,11 21,3 44,3 65,1 13,-2 27,-4 40,-9 20,-5 39,-13 58,-24 14,-7 27,-16 40,-27 4,26 15,50 34,69 30,30 72,41 114,34 36,-5 72,-22 102,-52 17,-17 30,-36 39,-56 1,-1 1,-2 1,-3 1,-2 2,-5 3,-7 4,-12 7,-23 9,-35 3,-1 5,-1 8,-1 40,-7 81,-18 120,-33 5,-2 10,-4 15,-5 8,-3 17,-7 25,-11 43,-19 86,-44 126,-73 3,-3 6,-5 199.5,112.5 184.5,168.5 184.5,216.5 189.5,262.5 1,15 3,29 6,43 1,5 1,9 2,14 8,42 20,82 35,121 0,0 1,0 1,1 l -3,3 c -14,13 -27,29 -36,47 0,1 -1,1 -1,2 -6,11 -11,25 -15,39 -11,40 -8,80 5,114 16,41 46,71 87,82 22,6 45,4 67,-2 -2,14 -2,28 -2,42 0,22 3,42 8,62 3,13 8,26 13,38 8,21 19,39 33,56 0,1 0,1 1,1 25,31 59,55 99,66 0,0 1.2929,1.7071 2,1 l 0.5,-0.5 c 25.5,6.5 51.5,7.5 77.5,3.5 14,-2 27,-6 41,-11 20,-7 40,-19 58,-32 11,-8 21,-17 30,-27 14,-15 27,-31 37,-50 8,-14 15,-28 21,-43 17,21 38,36 64,43 41,11 83,-1 116,-28 28,-22 51,-55 61,-96 11,-40 8,-79 -6,-113 3,-2 5,-4 7,-6 31,-26 61,-55 87,-87 3,-4 7,-8 10,-12 5,-7 11,-15 17,-22 28,-39 52,-81 72,-127 2,-3 3,-7 229.5,-1.5 244.5,52.5 268.5,93.5 295.5,131.5 9,12 18,24 27,35 3,4 7,8 10,12 27,32 58,61 90,86 0,0 1,0 1,1 -1,2 -1,4 -2,6 -5,17 -8,36 -7,55 0,15 2,30 6,45 11,40 33,74 61,96 34,27 76,39 117,28 23,-6 42,-19 57,-35 6,13 12,26 19,38 11,19 23,35 38,50 9,10 19,19 30,27 18,13 37,24 56,32 l 1,0 c 38,15 79,19 119,8 l 2,0 c 0,0 1,-1 2,-1 26,-7 49,-19 69,-36 11,-9 21,-19 30,-31 14,-17 25,-36 33,-57 6,-12 9,-25 13,-38 5,-20 8,-41 8,-62 0,-16 -1,-32 -3,-48 25,9 51,12 77,5 41,-11 71,-42 87,-82 13,-33 16,-74 5,-114 -6,-21 -15,-41 -26,-58"
       id="base_color_background_animation"
       inkscape:label="#path27988" />
    <g
       transform="translate(10090.238,0.00247514)"
       id="g4881"
       style="clip-rule:evenodd;fill-rule:evenodd;image-rendering:optimizeQuality;shape-rendering:geometricPrecision;text-rendering:geometricPrecision">
      <path
         id="path27990"
         d="m -8102.2358,3645.2939 c 13,-4 27,-7 41,-9 2,-1 3,-1 4,-1 l 2,0 c 3,-1 5,-1 8,-1 6,-1 12,-2 18,-2 6,-1 12,-1 18,-1 5,-1 10,-1 16,-1 26,-1 53,0 80,4 3,0 6,1 9,1 3,0 7,1 10,1 16,2 33,5 49,9 2,0 3,1 5,1 m 0,1 1,0 m -411,68 c 4,-3 9,-6 13,-9 10,-7 21,-14 31,-19 2,-2 4,-3 7,-4 2,-1 4,-3 7,-3 7,-4 14,-7 20,-10 10,-5 20,-9 31,-12 2,-1 3,-1 4,-2 12,-4 23,-8 35,-11 m -192,107 c 3,-4 7,-7 11,-11 m -73,91 c 5,-11 12,-21 19,-31 2,-4 5,-7 8,-11 m -52,99 c 2,-6 4,-12 6,-17 5,-13 10,-25 17,-36 m 334,583 -14,-3 c -1,-1 -2,-1 -3,-1 -3,-1 -6,-1 -9,-3 -15,-4 -29,-9 -43,-14 -10,-4 -20,-8 -29,-13 -1,0 -1,-1 -2,-1 -1,0 -2,0 -2,-1 -8,-3 -16,-7 -24,-11 -3,-1 -5,-3 -8,-4 0,1 -1,0 -1,-1 -24,-13 -46,-27 -67,-44 0,1 -1,0 -1,0 -5,-3 -9,-7 -14,-11 -6,-5 -12,-10 -18,-16 -57,-51 -99,-113 -121,-179 -4,-12 -8,-24 -11,-36 l 0,-1 c -1,-1 -1,-3 -1,-4 -2,-6 -3,-13 -4,-19 -2,-6 -2,-13 -3,-20 -1,-6 -2,-11 -1,-17 -1,-3 -1,-6 -1,-8 -1,-12 -1,-24 0,-35 1,-22 5,-44 10,-66 0,-1 1,-1 1,-2 m 920,169 c -1,25 -5,50 -11,75 -7,27 -18,52 -31,76 -2,5 -5,10 -8,15 m -626,828 c 14,-8 29,-14 43,-19 12,-5 23,-9 35,-13 m -208,124 c 10,-9 20,-19 31,-28 22,-18 45,-34 70,-48 1,-1 2,-1 2,-1 9,-5 17,-10 26,-14 m -224,227 c 2,-5 4,-10 7,-15 4,-8 8,-16 12,-23 4,-8 9,-15 14,-23 1,-2 3,-4 4,-6 3,-5 7,-11 11,-16 5,-7 11,-14 17,-21 m -73,122 c 1,-4 3,-8 5,-12 m -29,112 c 0,-2 0,-4 1,-6 m 1,86 c -2,-13 -3,-27 -3,-40 m 581,338 c -5,2 -9,3 -14,4 -1,0 -3,1 -4,1 -3,1 -5,2 -9,2 -15,4 -29,7 -44,9 -5,2 -11,2 -16,3 m 0,-1 c -2,0 -3,1 -4,1 -7,1 -14,2 -21,2 -7,1 -13,1 -20,1 l -1,0 m 0,0 c -1,1 -1,0 -1,0 -31,2 -61,1 -89,-4 -6,-1 -12,-1 -18,-3 -2,0 -4,-1 -6,-1 -2,0 -4,-1 -6,-1 -4,-1 -8,-1 -12,-2 -74,-16 -141,-48 -194,-94 -10,-8 -19,-17 -28,-27 -8,-8 -16,-17 -23,-26 -5,-7 -10,-13 -15,-20 -2,-3 -4,-5 -6,-8 -3,-6 -7,-11 -9,-17 -2,-3 -3,-6 -5,-8 -2,-4 -4,-7 -5,-11 0,-1 0,-1 -1,-1 -2,-3 -3,-6 -4,-9 -1,-1 -2,-3 -2,-4 -6,-14 -11,-28 -15,-43 l 0,-3 c -2,-6 -3,-12 -4,-18 -1,-3 -2,-7 -2,-11 m 925,-154 c 0,4 1,8 1,13 0,3 1,6 0,9 1,6 0,13 0,19 m -40,-170 c 4,6 7,12 9,18 8,17 15,34 19,53 5,19 9,38 10,57 m -207,1382 c -1,-6 -1,-11 -1,-16 -1,-7 -1,-15 -1,-22 -1,-12 0,-24 1,-36 l 3,-28 0,-3 c 1,-7 1,-13 3,-19 0,-4 1,-8 2,-12 2,-9 4,-19 7,-28 0,-1 0,-1 1,-2 3,-13 8,-27 13,-40 1,-3 2,-6 4,-9 10,-26 23,-51 37,-76 8,-14 17,-27 26,-40 2,-3 4,-6 7,-9 2,-3 5,-7 8,-10 9,-11 18,-22 28,-33 1,-2 3,-3 4,-4 0,0 0,-1 1,-1 0,-1 0,-1 1,-1 0,-1 1,-1 1,-1 0,-1 1,-2 3,-3 m -135,458 c -1,-2 -1,-3 -2,-5 m 30,75 c -2,-4 -4,-7 -6,-11 m 39,61 c -8,-10 -16,-21 -23,-32 m 86,93 c -13,-9 -25,-19 -36,-31 l -2,-2 m 624,-59 c -3,4 -7,7 -10,11 l -3,3 c -2,2 -4,4 -7,6 -11,11 -22,21 -33,30 -3,3 -6,5 -8,7 l -13,10 c -3,2 -5,4 -8,6 -9,7 -19,13 -29,19 0,1 0,1 -1,1 -6,4 -12,7 -18,10 -1,1 -3,2 -4,2 -3,2 -6,3 -9,4 -19,10 -38,19 -58,26 -79,30 -162,38 -238,23 -6,-1 -12,-2 -19,-4 -7,-1 -13,-3 -19,-5 -1,-1 -3,-1 -4,-1 -1,0 -2,-1 -3,-1 -9,-3 -17,-6 -26,-9 -21,-8 -41,-19 -60,-31 m 568,-745 c 15,10 30,22 43,36 14,14 27,29 37,45 5,7 10,13 13,20 m -110,-112 c 5,3 10,6 15,10 m 524,1231 c -3,-12 -6,-25 -8,-38 0,-1 0,-2 -1,-3 -1,-2 -1,-4 -1,-5 -1,-5 -2,-10 -2,-15 -1,-4 -1,-9 -1,-13 -1,-12 -2,-25 -2,-37 -1,-31 1,-63 6,-95 2,-12 4,-24 7,-37 0,-1 0,-2 1,-3 m 355,546 c -15,0 -30,-1 -45,-3 -15,-2 -29,-5 -44,-9 -1,0 -2,0 -3,-1 -10,-3 -19,-6 -28,-9 -2,0 -4,-1 -6,-2 -1,0 -2,0 -3,-1 -12,-5 -24,-11 -36,-17 -1,-1 -3,-1 -4,-2 -7,-4 -14,-8 -21,-13 l -9,-6 c -6,-3 -11,-8 -16,-12 -26,-21 -50,-46 -70,-74 -3,-4 -7,-9 -9,-13 -4,-5 -7,-10 -10,-15 -4,-6 -7,-11 -10,-17 l -3,-6 m 1,-1 c -8,-13 -14,-26 -19,-41 -2,-6 -4,-11 -6,-16 -2,-4 -3,-9 -5,-13 -3,-7 -4,-13 -6,-19 m 385,288 c -2,0 -4,1 -5,1 m 20,-3 c 0,0 0,1 0,0 m 33,-7 c -1,1 -2,1 -4,1 -5,2 -9,3 -14,3 m 54,-14 c -2,1 -3,2 -5,2 -8,3 -16,5 -24,7 m 331,-365 -3,14 c -1,1 -1,2 -1,4 0,3 -1,6 -3,9 -4,15 -9,29 -14,42 -1,4 -3,8 -5,11 l 0,1 c -3,8 -6,15 -9,21 -1,2 -1,3 -3,5 -1,1 -1,3 -2,4 -1,2 -2,4 -3,5 -2,6 -6,11 -9,16 0,2 -1,4 -3,5 -4,9 -9,18 -15,27 -5,8 -10,16 -16,24 -1,2 -2,3 -4,5 m 0,2 c -2,2 -3,5 -5,7 -3,5 -7,10 -11,15 0,1 -1,1 -2,2 -1,1 -2,3 -3,4 l -3,3 c -1,2 -3,4 -5,5 -1,1 -2,2 -3,4 -50,56 -112,99 -179,121 m -40,-909 c 1,0 3,0 4,1 3,0 5,0 8,1 3,0 6,0 8,1 19,1 37,4 56,9 19,5 37,11 55,20 7,3 14,7 21,11 5,2 10,5 15,8 m 1574,436 c 0,8 1,15 1,22 l 0,10 c 0,26 -2,50 -7,75 l -3,16 c 0,3 -1,5 -1,7 -16,74 -49,141 -95,194 -8,10 -17,19 -26,27 -1,1 -2,3 -3,3 -1,2 -3,3 -4,4 -14,13 -29,24 -44,34 -1,1 -2,2 -4,2 -14,9 -29,17 -45,24 l -6,3 c -13,6 -27,11 -42,15 -1,1 -2,1 -3,1 -13,3 -25,6 -37,8 -13,2 -27,3 -40,3 -8,0 -15,0 -23,-1 -2,1 -5,0 -8,0 -5,0 -11,-1 -16,-1 l -21,-3 c -4,-1 -7,-1 -11,-2 -17,-3 -33,-8 -49,-14 -10,-3 -20,-7 -29,-11 l -1,0 c -21,-9 -42,-21 -62,-34 -6,-4 -11,-7 -16,-12 -9,-6 -18,-14 -27,-21 -1,-1 -2,-1 -3,-2 -9,-8 -19,-17 -28,-26 -5,-5 -10,-11 -15,-16 -1,-1 -2,-2 -2,-3 l -2,-2 c -3,-3 -6,-7 -9,-10 -4,-5 -8,-9 -11,-15 -2,-2 -3,-3 -4,-5 -1,-1 -2,-3 -3,-4 -6,-8 -12,-16 -17,-24 -25,-39 -46,-82 -60,-130 -2,-4 -3,-8 -4,-13 -1,-2 -2,-3 -2,-5 m 780,-115 c 1,4 1,8 1,13 m -22,-126 c 2,4 3,9 4,14 1,1 1,3 1,4 1,3 2,6 2,9 l 9,44 c 1,6 2,11 2,17 0,1 1,3 1,4 m -591,-401 c 23,-12 46,-21 71,-28 33,-9 65,-13 98,-11 m 1456,178 -6,3 c -9,4 -18,7 -28,10 -1,1 -2,1 -4,1 -12,4 -25,8 -38,10 -2,1 -5,1 -8,2 -2,1 -3,1 -6,1 -8,2 -18,3 -27,4 -16,2 -33,3 -50,2 l -11,0 c -5,0 -9,0 -14,-1 -5,0 -10,-1 -15,-1 l -23,-3 c -5,-1 -10,-1 -15,-3 -26,-5 -52,-12 -77,-21 m 1,-1 c -3,-1 -6,-2 -9,-4 -5,-2 -9,-3 -14,-6 -2,-1 -4,-1 -6,-3 -3,-1 -5,-2 -8,-3 -15,-7 -29,-14 -43,-23 -6,-3 -11,-7 -17,-10 -2,-1 -5,-3 -7,-4 -7,-4 -14,-9 -21,-14 -5,-3 -9,-7 -14,-11 -2,-1 -3,-2 -5,-4 -13,-10 -26,-21 -38,-33 -2,-1 -3,-3 -4,-4 m 527,107 c -3,2 -7,4 -11,5 m 61,-39 c -10,9 -21,16 -32,23 m 15,-659 6,6 c 10,11 21,22 30,34 12,14 23,29 32,44 1,1 1,2 2,3 5,7 9,13 13,20 1,1 1,1 1,2 l 12,21 c 1,1 1,1 1,2 0,1 1,1 1,2 1,2 2,5 3,7 3,6 6,12 8,18 0,1 1,2 1,3 4,9 8,17 11,26 29,80 37,162 23,239 -1,6 -2,13 -4,19 -1,3 -1,6 -2,9 l -3,9 c 0,1 0,2 -1,4 -2,10 -6,19 -10,28 -11,29 -26,55 -46,80 -9,12 -19,24 -30,35 l -2,2 -2,2 m -695,-626 c 10,-15 23,-30 36,-43 20,-20 41,-37 65,-50 5,-3 9,-7 15,-9 m -128,119 c 3,-5 7,-10 11,-16 m 1428,-632 -3,3 c -2,2 -3,4 -5,6 -12,11 -25,21 -38,31 -4,3 -9,6 -13,9 -1,1 -2,2 -3,2 -1,1 -2,2 -3,2 -2,1 -3,2 -5,3 -7,4 -13,8 -20,12 -14,8 -27,14 -41,20 -8,3 -16,7 -23,9 -2,1 -4,2 -6,2 -10,4 -21,7 -32,10 -1,0 -2,1 -3,1 -13,3 -27,7 -41,9 -2,1 -4,1 -6,1 -3,1 -5,1 -8,1 -6,1 -12,2 -19,2 -5,1 -10,1 -15,1 -6,1 -11,1 -16,1 -30,2 -60,0 -90,-4 -3,0 -7,-1 -10,-1 -16,-2 -33,-5 -49,-9 -2,0 -3,-1 -5,-1 m 531,-226 c -5,13 -11,24 -17,36 -1,2 -2,3 -3,5 -2,4 -5,9 -7,13 -6,9 -12,19 -19,27 m 68,-165 c -2,15 -5,29 -9,44 -1,1 -1,2 -1,3 -3,11 -6,21 -10,32 m 22,-136 c 1,11 1,22 0,34 m -1,-60 c 1,5 2,11 1,17 m -273,-362 24,12 c 6,3 12,6 18,10 6,3 12,6 17,10 17,10 32,21 47,34 2,2 5,3 7,6 6,4 12,10 18,16 57,50 99,112 121,179 5,12 9,24 11,37 1,1 1,2 1,3 m -366,-343 14,3 c 1,0 2,0 3,1 3,0 6,1 9,2 15,4 29,9 42,14 11,4 22,8 32,14 m -654,307 c 1,-25 5,-51 11,-75 8,-33 22,-63 39,-91 m 725,-892 c 0,1 -1,1 -2,1 -6,5 -12,9 -18,14 -3,2 -5,4 -8,6 l -9,6 c -1,1 -2,1 -3,2 -17,12 -34,22 -52,31 -1,1 -2,1 -4,2 -9,5 -17,9 -26,13 -6,3 -12,5 -18,8 -1,1 -3,1 -4,2 -13,5 -27,10 -41,15 m 312,-264 c -2,5 -4,10 -7,15 0,1 -1,2 -2,3 l -6,12 c -3,6 -6,12 -10,18 -6,10 -13,21 -21,31 -7,10 -15,20 -24,30 -7,8 -15,17 -23,25 l -3,3 c -5,5 -11,10 -16,15 -2,2 -5,5 -8,7 -2,2 -5,4 -7,6 m 135,-184 c -1,3 -2,5 -3,7 m 21,-71 c 1,1 0,2 -1,2 m 6,-36 0,5 m -2,-86 c 2,13 3,27 3,40 m -94,-228 c 1,1 2,2 2,3 7,7 14,15 20,24 7,8 13,16 18,25 1,1 2,2 2,4 5,8 10,15 14,23 5,9 9,19 13,29 6,13 10,27 14,41 0,1 0,2 1,3 m -357,-282 c 3,0 7,1 9,1 6,1 12,1 18,3 4,1 8,1 12,2 4,1 8,1 12,2 74,15 141,48 194,94 5,4 10,8 14,13 m -338,-117 12,0 c 12,-1 24,0 36,1 l 4,0 c 8,0 16,1 24,2 m -97,-2 1,0 c 7,-1 13,-1 20,-1 m -117,17 c 3,-1 5,-2 9,-2 15,-4 29,-7 44,-9 7,-2 15,-3 21,-3 m -400,591 c -4,-6 -7,-12 -9,-18 -8,-17 -15,-35 -19,-53 -9,-33 -12,-66 -11,-99 m 209,-1340 c 7,67 -2,137 -28,205 m 0,1 c -9,23 -19,46 -32,69 -10,19 -22,38 -35,56 -2,3 -5,6 -7,9 -2,3 -5,6 -8,9 -10,13 -21,26 -33,38 0,1 -1,1 -1,1 0,1 -1,1 -1,1 l -2,2 m 135,-455 c 2,8 4,15 5,24 1,3 1,5 2,8 1,3 1,7 2,10 m -38,-113 c 3,4 5,8 6,13 m -39,-63 c 9,10 16,21 22,33 m -83,-94 c 12,9 23,19 34,29 l 2,2 m -105,-71 c 3,2 7,3 10,5 16,7 31,16 46,27 1,1 2,2 3,2 m -83,-44 c 4,1 8,2 11,4 l 1,0 m -365,29 c 19,-10 38,-19 57,-26 m 0,0 1,0 m 0,0 c 79,-30 162,-37 238,-22 6,1 13,2 19,4 8,1 15,3 23,6 m -468,133 c 2,-3 4,-5 6,-7 16,-15 33,-30 51,-43 4,-3 8,-5 11,-8 20,-14 40,-27 61,-38 m -123,759 c -6,-3 -11,-7 -16,-12 -16,-10 -30,-22 -44,-36 -14,-14 -27,-29 -37,-45 -9,-11 -16,-22 -22,-34 m -419,-1114 c 2,7 4,14 5,21 l 0,1 c 2,6 3,12 3,18 m 1,1 c 1,2 1,4 1,6 l 3,23 c 2,12 3,24 3,36 l 0,42 c 0,13 -2,26 -3,39 m -1,-1 -3,20 c -2,12 -4,24 -7,36 0,4 -1,9 -3,13 0,1 0,1 -1,2 0,1 -1,2 -1,3 m -7,-294 c 4,11 7,22 10,33 m -24,-69 c 2,5 4,9 6,14 2,5 4,9 5,14 m -70,-126 c 5,5 9,11 13,16 18,24 33,50 45,77 m -85,-123 c 5,4 9,9 14,15 m -91,-73 c 11,6 21,12 31,20 3,1 5,3 7,5 l 3,3 c 1,1 3,2 4,3 m -100,-56 15,6 c 12,5 24,10 36,17 m -176,-41 14,0 c 29,-1 59,3 88,11 5,1 11,3 16,5 m -143,-15 c 5,-1 11,-1 17,-1 m -60,9 c 1,-1 3,-1 4,-1 2,-1 4,-1 6,-2 4,-1 9,-2 13,-2 m -308,233 c 4,-9 9,-18 15,-27 5,-9 11,-17 17,-25 1,-2 2,-3 3,-4 2,-3 4,-5 6,-8 3,-5 7,-10 11,-14 0,-1 1,-2 2,-2 1,-3 3,-5 6,-7 2,-3 5,-6 8,-9 50,-57 112,-98 179,-121 m -255,233 c 2,-4 3,-7 6,-11 m -47,116 c 0,-3 1,-6 3,-9 4,-15 9,-29 14,-42 2,-5 3,-10 6,-15 1,-3 2,-7 4,-10 1,-3 3,-6 4,-9 m 305,656 c -1,0 -3,0 -4,-1 -3,0 -5,0 -8,-1 -21,-1 -42,-4 -64,-10 -33,-9 -63,-22 -91,-39 m -817,-603 c 2,4 4,8 5,12 1,1 1,1 1,2 1,3 2,5 3,8 5,11 9,23 12,35 2,4 3,8 4,12 m -46,-112 c 0,1 1,1 1,2 3,4 5,9 7,14 0,1 1,1 1,1 m -29,-49 c 3,4 6,8 8,12 m -41,-58 c 1,1 1,1 1,2 4,4 7,8 10,12 l 18,24 m -40,-50 3,3 c 3,3 5,6 8,9 m -164,-127 c 37,16 72,38 104,66 1,0 1,1 1,1 0,0 1,0 1,1 1,0 1,1 2,1 4,3 9,7 13,12 3,2 5,4 8,7 3,2 5,5 8,8 5,5 11,11 15,16 m -170,-119 c 4,1 8,2 12,5 m -191,-27 c 13,-2 26,-3 40,-3 m -124,26 c 14,-6 28,-11 43,-15 1,-1 2,-1 3,-1 m -96,42 c 7,-5 15,-9 23,-13 8,-4 15,-8 24,-11 m -227,307 c 1,-6 2,-12 4,-18 16,-74 48,-141 94,-194 4,-5 8,-10 13,-14 5,-6 11,-12 16,-17 11,-10 23,-20 36,-29 4,-3 9,-6 13,-9 m -183,385 c -1,-16 -1,-33 1,-49 0,-3 1,-6 1,-8 0,-4 1,-8 1,-12 l 0,-3 c 0,-3 1,-7 1,-10 0,-4 1,-8 2,-12 0,-2 0,-3 1,-5 l 0,-1 m 15,241 c -1,-4 -2,-9 -4,-13 -1,-1 -1,-3 -1,-4 -1,-3 -2,-6 -2,-9 -4,-15 -7,-30 -9,-45 -1,-5 -2,-9 -2,-14 m 590,394 c -6,4 -12,7 -18,9 -17,8 -35,15 -53,19 -19,5 -38,9 -57,10 0,0 0,1 -1,0 l -4,0 m 1,0 -1,0 m 0,0 c -12,2 -25,2 -37,1 m -1204,-201 c 10,2 20,4 30,7 13,3 27,8 41,13 65,24 127,63 181,115 l 2,2 c 1,1 2,1 2,2 m -354,-148 19,0 c 6,0 11,0 17,1 9,0 18,1 27,3 1,0 2,0 4,1 3,0 5,0 8,1 3,0 7,1 11,2 m -123,-6 c 6,-1 11,-1 17,-1 m -95,17 c 12,-4 24,-8 37,-10 5,-2 11,-3 17,-3 m -86,25 c 9,-4 18,-7 28,-10 m -104,56 c 10,-9 21,-16 32,-23 m -93,84 c 9,-12 19,-24 30,-35 l 2,-2 m -71,103 c 6,-15 14,-29 23,-42 2,-4 5,-8 8,-12 l 3,-3 m 97,579 c -3,-3 -7,-6 -10,-9 -1,-1 -2,-2 -2,-3 -3,-2 -5,-4 -7,-7 -10,-11 -20,-22 -29,-33 -6,-7 -11,-14 -16,-21 -6,-7 -10,-14 -15,-21 -2,-3 -5,-7 -7,-11 -3,-5 -6,-9 -9,-14 -1,-1 -2,-2 -2,-4 -4,-6 -7,-13 -11,-19 -1,-1 -2,-3 -2,-4 -4,-7 -8,-15 -11,-23 -1,-2 -2,-4 -2,-5 -4,-9 -8,-17 -11,-26 -29,-80 -38,-162 -22,-239 0,-3 1,-6 2,-8 1,-3 2,-7 2,-10 1,-7 3,-13 5,-19 0,-1 1,-3 1,-4 3,-10 6,-19 10,-29 m 773,507 c -10,15 -22,30 -36,43 -14,14 -29,27 -45,37 -7,5 -13,9 -20,13 -5,3 -10,7 -15,9 m 128,-119 c -2,4 -4,8 -7,11"
         class="fil11 str7"
         inkscape:connector-curvature="0"
         style="fill:none;fill-rule:nonzero;stroke:#383332;stroke-width:25.83860016" />
    </g>
  </g>
</svg>
