<?xml version="1.0" encoding="UTF-8" standalone="no"?>
<svg
   xmlns:dc="http://purl.org/dc/elements/1.1/"
   xmlns:cc="http://creativecommons.org/ns#"
   xmlns:rdf="http://www.w3.org/1999/02/22-rdf-syntax-ns#"
   xmlns:svg="http://www.w3.org/2000/svg"
   xmlns="http://www.w3.org/2000/svg"
   xmlns:sodipodi="http://sodipodi.sourceforge.net/DTD/sodipodi-0.dtd"
   xmlns:inkscape="http://www.inkscape.org/namespaces/inkscape"
   id="_c_2_front-black_shade"
   width="908.69281"
   height="908.87585"
   viewBox="0 0 9465.3042 9467.3975"
   version="1.1"
   inkscape:version="0.91 r13725"
   sodipodi:docname="_c_2_front-black_shade.svg"
   style="clip-rule:evenodd;fill-rule:evenodd;image-rendering:optimizeQuality;shape-rendering:geometricPrecision;text-rendering:geometricPrecision">
  <metadata
     id="metadata710">
    <rdf:RDF>
      <cc:Work
         rdf:about="">
        <dc:format>image/svg+xml</dc:format>
        <dc:type
           rdf:resource="http://purl.org/dc/dcmitype/StillImage" />
        <dc:title />
      </cc:Work>
    </rdf:RDF>
  </metadata>
  <sodipodi:namedview
     pagecolor="#ffffff"
     bordercolor="#666666"
     borderopacity="1"
     objecttolerance="10"
     gridtolerance="10"
     guidetolerance="10"
     inkscape:pageopacity="0"
     inkscape:pageshadow="2"
     inkscape:window-width="1280"
     inkscape:window-height="675"
     id="namedview708"
     showgrid="false"
     fit-margin-top="0"
     fit-margin-left="0"
     fit-margin-right="0"
     fit-margin-bottom="0"
     inkscape:zoom="1.0434716"
     inkscape:cx="307.98531"
     inkscape:cy="410.99843"
     inkscape:window-x="4"
     inkscape:window-y="7"
     inkscape:window-maximized="0"
     inkscape:current-layer="_414782064" />
  <defs
     id="defs26580">
    <style
       id="style26900"><![CDATA[
    @font-face { font-family:"Raleway";src:url("#FontID1") format(svg)}
    @font-face { font-family:"Arial";src:url("#FontID0") format(svg)}
    .str12 {stroke:#FEFEFE;stroke-width:7.39764}
    .str10 {stroke:#383332;stroke-width:12.9173}
    .str0 {stroke:#B6B6BB;stroke-width:13.8898}
    .str4 {stroke:#383332;stroke-width:15.8071}
    .str14 {stroke:#383332;stroke-width:17.2244}
    .str3 {stroke:#383332;stroke-width:17.437}
    .str11 {stroke:#383332;stroke-width:18.6457}
    .str1 {stroke:#383332;stroke-width:19.7756}
    .str8 {stroke:#383332;stroke-width:21.5315}
    .str7 {stroke:#383332;stroke-width:25.8386}
    .str6 {stroke:#383332;stroke-width:30.5394}
    .str9 {stroke:#383332;stroke-width:34.4488}
    .str13 {stroke:#383332;stroke-width:43.063}
    .str5 {stroke:#383332;stroke-width:64.5945}
    .str2 {stroke:#383332;stroke-width:91.6811}
    .fil11 {fill:none;fill-rule:nonzero}
    .fil6 {fill:#383332}
    .fil4 {fill:#E7992F}
    .fil3 {fill:#949595}
    .fil5 {fill:#D5D5D5}
    .fil9 {fill:#383332;fill-rule:nonzero}
    .fil1 {fill:#575658;fill-rule:nonzero}
    .fil8 {fill:#E7A56F;fill-rule:nonzero}
    .fil7 {fill:#FCD967;fill-rule:nonzero}
    .fil10 {fill:#FDDF84;fill-rule:nonzero}
    .fil2 {fill:#FEFEFE;fill-rule:nonzero}
    .fil0 {fill:url(#id0);fill-rule:nonzero}
    .fnt0 {font-weight:bold;font-size:138.886;font-family:'Arial'}
    .fnt1 {font-weight:bold;font-size:239.988;font-family:'Arial'}
    .fnt4 {font-weight:bold;font-size:239.988;font-family:'Arial'}
    .fnt3 {font-weight:normal;font-size:396.744;font-family:'Raleway'}
    .fnt2 {font-weight:normal;font-size:534.323;font-family:'Raleway'}
   ]]></style>
  </defs>
  <g
     id="_414782064"
     style="fill-rule:nonzero"
     transform="translate(-1681.9547,-678.69896)">
    
      <path
         sodipodi:nodetypes="ccccccccccccccc"
         style="fill:inherit"
         inkscape:connector-curvature="0"
         class="fil9"
         d="m 7041.9948,5245.0011 c -1,-4 -2,-8 -4,-12 41,-45 97,-75 161,-82 12,13 20,29 25,46 3,13 5,27 3,40 -59,28 -124,31 -184,13 0,-2 -1,-3 -1,-5 z m 184,332 c 3,17 3,34 -2,52 -3,13 -9,26 -17,37 -65,-5 -124,-35 -166,-80 1,-2 1,-4 2,-5 l 3,-12 c 58,-18 122,-16 180,10 z"
         id="path27306" />
      <path
         sodipodi:nodetypes="ccccccccccc"
         style="fill:inherit"
         inkscape:connector-curvature="0"
         class="fil9"
         d="m 7226.9948,5237.0011 c -4,48 -37,90 -87,104 -28,8 -57,4 -81,-7 -3,-27 -9,-55 -16,-83 60,18 125,15 184,-13 z m -87,247 c 45,13 78,49 85,93 -59,-25 -122,-28 -180,-10 6,-24 11,-50 14,-75 25,-12 53,-16 81,-8 z"
         id="path27308" />
      <path
         sodipodi:nodetypes="ccccc"
         style="fill:inherit"
         inkscape:connector-curvature="0"
         class="fil9"
         d="m 7198.9948,5151.0011 c -64,7 -120,37 -161,82 -7,-25 -15,-49 -26,-72 15,-23 38,-40 67,-48 46,-12 92,4 120,38 z"
         id="path27318" />
      <path
         sodipodi:nodetypes="cccccc"
         style="fill:inherit"
         inkscape:connector-curvature="0"
         class="fil9"
         d="m 7040.9948,5585.0011 c 42,45 101,75 166,80 -27,40 -78,60 -127,47 -28,-8 -51,-25 -66,-47 11,-26 20,-52 28,-80 z"
         id="path27320" />
      <path
         sodipodi:nodetypes="ccccccscccc"
         style="fill:inherit"
         inkscape:connector-curvature="0"
         class="fil9"
         d="m 7007.9948,5836.0011 c 34,34 43,82 28,124 -38,-52 -93,-86 -152,-99 18,-18 35,-38 50,-59 27,2 53,14 74,34 z m 23,-981 c 21,44 13,98 -23,134 -21,21 -47,32 -74,34 -17,-23 -36,-44 -55,-64 60,-14 115,-50 153,-104 z"
         id="path27332" />
      <path
         sodipodi:nodetypes="ccccccccccccccc"
         style="fill:inherit"
         inkscape:connector-curvature="0"
         class="fil9"
         d="m 7034.9948,5960.0011 c -6,16 -15,31 -28,43 -10,10 -21,18 -34,23 -54,-37 -89,-93 -104,-153 1,-1 3,-2 4,-4 l 9,-9 c 59,13 114,47 152,99 z m -27,-1138 c 10,10 18,21 23,33 -37,54 -92,90 -153,104 l -4,-4 -9,-9 c 13,-59 47,-114 99,-151 16,5 31,15 44,27 z"
         id="path27334" />
      <path
         sodipodi:nodetypes="cscccccccccc"
         style="fill:inherit"
         inkscape:connector-curvature="0"
         class="fil9"
         d="m 6973.9948,6027.0011 c -44,21 -97,13 -133,-23 -21,-21 -32,-47 -34,-75 22,-17 44,-35 64,-55 14,60 50,116 104,153 z m -133,-1205 c 33,-33 82,-43 123,-27 -52,38 -86,92 -99,151 -19,-18 -38,-35 -59,-50 2,-27 13,-53 34,-74 z"
         id="path27350" />
      <path
         sodipodi:nodetypes="cccccccccccc"
         style="fill:inherit"
         inkscape:connector-curvature="0"
         class="fil9"
         d="m 6716.9948,6075.0011 c 12,46 -4,92 -38,121 -7,-64 -37,-121 -82,-161 25,-7 49,-15 72,-25 23,15 40,38 48,66 z m -47,-1452 c 40,27 60,78 47,127 -8,29 -25,52 -48,67 -26,-11 -52,-20 -79,-27 45,-43 75,-101 80,-166 z"
         id="path27376" />
      <path
         sodipodi:nodetypes="ccccccccccccc"
         style="fill:inherit"
         inkscape:connector-curvature="0"
         class="fil9"
         d="m 6664.9948,5346.0011 -71,114 5,135 -135,-5 -114,71 -63,-118 -119,-64 71,-114 -4,-134 134,4 114,-71 64,119 z"
         id="path27378" />
      <path
         sodipodi:nodetypes="cccccccc"
         style="fill:inherit"
         inkscape:connector-curvature="0"
         class="fil9"
         d="m 6596.9948,6034.0011 c 45,41 75,98 82,161 -13,11 -29,19 -46,24 -14,4 -28,5 -41,3 -27,-59 -31,-125 -13,-184 2,-1 3,-1 5,-1 l 12,-3 z"
         id="path27382" />
      <path
         sodipodi:nodetypes="ccccccccc"
         style="fill:inherit"
         inkscape:connector-curvature="0"
         class="fil9"
         d="m 6669.9948,4623.0011 c -5,66 -35,124 -80,166 -2,-1 -3,-1 -5,-1 l 0,-1 -13,-3 c -18,-58 -16,-122 10,-181 17,-3 35,-2 52,2 13,3 26,9 36,17 z"
         id="path27386" />
      <path
         sodipodi:nodetypes="ccccccccccc"
         style="fill:inherit"
         inkscape:connector-curvature="0"
         class="fil9"
         d="m 6578.9948,6039.0011 c -18,59 -15,125 13,184 -48,-4 -90,-37 -104,-87 -8,-29 -4,-57 8,-81 28,-3 55,-9 83,-16 z m 2,-1436 c -26,59 -28,123 -10,181 -25,-6 -49,-11 -75,-14 -13,-24 -16,-53 -8,-81 12,-46 49,-78 93,-85 z"
         id="path27396" />
      <path
         sodipodi:nodetypes="ccccccccccc"
         style="fill:inherit"
         inkscape:connector-curvature="0"
         class="fil9"
         d="m 6344.9948,4689.0011 c 7,29 4,57 -8,81 -27,4 -55,9 -83,16 18,-59 15,-125 -13,-184 48,4 91,37 104,87 z m -8,1366 c 13,25 16,53 8,81 -12,45 -49,77 -93,85 25,-59 27,-122 9,-181 25,6 49,11 75,14 z"
         id="path27412" />
      <path
         sodipodi:nodetypes="ccccccccccccccc"
         style="fill:inherit"
         inkscape:connector-curvature="0"
         class="fil9"
         d="m 6261.9948,6041.0011 c 18,58 16,122 -9,181 -17,3 -35,3 -52,-2 -13,-3 -26,-9 -37,-17 6,-65 35,-124 80,-167 2,1 4,1 6,2 z m -21,-1439 c 28,59 31,125 13,184 -2,1 -3,1 -5,1 l -12,3 c -45,-40 -75,-97 -83,-161 13,-11 29,-19 46,-24 14,-4 28,-5 40,-4 z"
         id="path27416" />
      <path
         sodipodi:nodetypes="cccccccccc"
         style="fill:inherit"
         inkscape:connector-curvature="0"
         class="fil9"
         d="m 6243.9948,6036.0011 c -45,43 -75,101 -80,167 -40,-27 -60,-78 -47,-128 8,-28 25,-51 47,-66 26,11 53,20 80,27 z m -7,-1245 c -25,7 -49,16 -73,26 -23,-15 -39,-38 -47,-67 -13,-46 4,-92 37,-120 7,64 37,121 83,161 z"
         id="path27424" />
      <path
         sodipodi:nodetypes="cccccccccccc"
         style="fill:inherit"
         inkscape:connector-curvature="0"
         class="fil9"
         d="m 5992.9948,4822.0011 c 21,21 32,47 34,74 -23,17 -44,35 -64,55 -14,-60 -50,-115 -103,-153 43,-21 97,-13 133,23 z m 34,1107 c -2,27 -14,54 -34,74 -33,34 -82,43 -123,28 52,-37 86,-92 99,-151 19,18 38,34 58,50 z"
         id="path27452" />
      <path
         sodipodi:nodetypes="cccscccccsccsccc"
         style="fill:inherit"
         inkscape:connector-curvature="0"
         class="fil9"
         d="m 5958.9948,5870.0011 c 3,4 6,6 9,9 -13,59 -47,114 -99,151 -16,-6 -30,-15 -43,-28 -10,-10 -18,-21 -23,-33 37,-54 93,-90 153,-104 1,2 3,3 4,4 z m 4,-919 -4,4 c -3,3 -7,6 -9,9 -59,-13 -114,-47 -151,-99 6,-16 15,-31 27,-43 10,-10 22,-18 34,-23 54,37 89,93 103,153 z"
         id="path27454" />
      <path
         sodipodi:nodetypes="cccccccscc"
         style="fill:inherit"
         inkscape:connector-curvature="0"
         class="fil9"
         d="m 5899.9948,5802.0011 c 17,23 36,44 56,64 -60,14 -116,49 -153,104 -21,-44 -13,-98 23,-134 21,-20 47,-32 74,-34 z m 50,-838 c -18,18 -34,38 -50,58 -27,-2 -53,-13 -74,-34 -33,-33 -43,-81 -27,-123 37,52 92,86 151,99 z"
         id="path27466" />
      <path
         sodipodi:nodetypes="ccccccccccc"
         style="fill:inherit"
         inkscape:connector-curvature="0"
         class="fil9"
         d="m 5794.9948,5592.0011 c 7,25 15,49 26,72 -15,23 -38,40 -67,48 -45,12 -92,-4 -120,-38 64,-7 121,-38 161,-82 z m 26,-432 c -11,26 -20,53 -27,80 -43,-45 -101,-75 -167,-81 28,-40 78,-60 128,-47 29,8 51,25 66,47 z"
         id="path27476" />
      <path
         sodipodi:nodetypes="ccccccccccccccc"
         style="fill:inherit"
         inkscape:connector-curvature="0"
         class="fil9"
         d="m 5791.9948,5580.0011 3,12 c -41,45 -97,75 -161,82 -11,-13 -20,-29 -25,-46 -3,-13 -5,-27 -3,-41 59,-28 125,-31 184,-13 0,2 1,4 1,5 z m 1,-340 c -2,6 -4,11 -5,18 -58,18 -122,16 -180,-10 -3,-17 -3,-34 2,-51 4,-14 10,-26 17,-37 65,6 124,35 167,81 z"
         id="path27478" />
      <path
         sodipodi:nodetypes="cccccccccccc"
         style="fill:inherit"
         inkscape:connector-curvature="0"
         class="fil9"
         d="m 5773.9948,5492.0011 c 3,28 9,55 16,83 -59,-18 -125,-15 -184,13 4,-48 37,-90 87,-104 28,-8 57,-4 81,8 z m 14,-235 c -6,25 -11,50 -14,75 -1,0 0,1 0,1 -24,12 -53,15 -81,8 -46,-13 -78,-49 -85,-93 59,26 123,28 180,10 z"
         id="path27482" />
  </g>
</svg>
