<?xml version="1.0" encoding="UTF-8" standalone="no"?>
<svg
   xmlns:dc="http://purl.org/dc/elements/1.1/"
   xmlns:cc="http://creativecommons.org/ns#"
   xmlns:rdf="http://www.w3.org/1999/02/22-rdf-syntax-ns#"
   xmlns:svg="http://www.w3.org/2000/svg"
   xmlns="http://www.w3.org/2000/svg"
   xmlns:sodipodi="http://sodipodi.sourceforge.net/DTD/sodipodi-0.dtd"
   xmlns:inkscape="http://www.inkscape.org/namespaces/inkscape"
   id="__base_background_wireframe"
   width="908.7"
   height="908.9"
   fill-rule="evenodd"
   viewBox="0 0 9465.3 9467.4"
   clip-rule="evenodd"
   image-rendering="optimizeQuality"
   shape-rendering="geometricPrecision"
   text-rendering="geometricPrecision"
   version="1.1"
   inkscape:version="0.91 r13725"
   sodipodi:docname="__base_background_wireframe.svg">
  <metadata
     id="metadata545">
    <rdf:RDF>
      <cc:Work
         rdf:about="">
        <dc:format>image/svg+xml</dc:format>
        <dc:type
           rdf:resource="http://purl.org/dc/dcmitype/StillImage" />
        <dc:title></dc:title>
      </cc:Work>
    </rdf:RDF>
  </metadata>
  <sodipodi:namedview
     pagecolor="#ffffff"
     bordercolor="#666666"
     borderopacity="1"
     objecttolerance="10"
     gridtolerance="10"
     guidetolerance="10"
     inkscape:pageopacity="0"
     inkscape:pageshadow="2"
     inkscape:window-width="1271"
     inkscape:window-height="665"
     id="namedview543"
     showgrid="false"
     inkscape:zoom="0.36720694"
     inkscape:cx="201.98808"
     inkscape:cy="540.82019"
     inkscape:window-x="0"
     inkscape:window-y="0"
     inkscape:window-maximized="0"
     inkscape:current-layer="svg26578" />
  <defs
     id="defs26580">
    <style
       id="style26900"><![CDATA[
    @font-face { font-family:"Raleway";src:url("#FontID1") format(svg)}
    @font-face { font-family:"Arial";src:url("#FontID0") format(svg)}
    .str12 {stroke:#FEFEFE;stroke-width:7.39764}
    .str10 {stroke:#383332;stroke-width:12.9173}
    .str0 {stroke:#B6B6BB;stroke-width:13.8898}
    .str4 {stroke:#383332;stroke-width:15.8071}
    .str14 {stroke:#383332;stroke-width:17.2244}
    .str3 {stroke:#383332;stroke-width:17.437}
    .str11 {stroke:#383332;stroke-width:18.6457}
    .str1 {stroke:#383332;stroke-width:19.7756}
    .str8 {stroke:#383332;stroke-width:21.5315}
    .str7 {stroke:#383332;stroke-width:25.8386}
    .str6 {stroke:#383332;stroke-width:30.5394}
    .str9 {stroke:#383332;stroke-width:34.4488}
    .str13 {stroke:#383332;stroke-width:43.063}
    .str5 {stroke:#383332;stroke-width:64.5945}
    .str2 {stroke:#383332;stroke-width:91.6811}
    .fil11 {fill:none;fill-rule:nonzero}
    .fil6 {fill:#383332}
    .fil4 {fill:#E7992F}
    .fil3 {fill:#949595}
    .fil5 {fill:#D5D5D5}
    .fil9 {fill:#383332;fill-rule:nonzero}
    .fil1 {fill:#575658;fill-rule:nonzero}
    .fil8 {fill:#E7A56F;fill-rule:nonzero}
    .fil7 {fill:#FCD967;fill-rule:nonzero}
    .fil10 {fill:#FDDF84;fill-rule:nonzero}
    .fil2 {fill:#FEFEFE;fill-rule:nonzero}
    .fil0 {fill:url(#id0);fill-rule:nonzero}
    .fnt0 {font-weight:bold;font-size:138.886;font-family:'Arial'}
    .fnt1 {font-weight:bold;font-size:239.988;font-family:'Arial'}
    .fnt4 {font-weight:bold;font-size:239.988;font-family:'Arial'}
    .fnt3 {font-weight:normal;font-size:396.744;font-family:'Raleway'}
    .fnt2 {font-weight:normal;font-size:534.323;font-family:'Raleway'}
   ]]></style>
  </defs>
  <g
     id="g4201"
     style="fill-rule:nonzero">
    <path
       style="fill:none;fill-rule:nonzero;stroke:#383332;stroke-width:19.77560043"
       inkscape:connector-curvature="0"
       class="fil11 str1"
       d="m 1246.0047,4720.3 c -18,-2 -36,-4 -53,-8 -26,-5 -52,-10 -77,-17 -26,-7 -51,-15 -76,-24 -25,-9 -48.99998,-19 -72.99998,-31 -25,-11 -48,-23 -71,-37 -23,-13 -45,-27 -67,-42 -22,-15 -43,-31 -63,-49 -21,-17 -40,-35 -59,-54 -19,-19 -37,-38 -54,-58 -17,-20 -33,-41 -48,-63 -15,-22 -29,-44 -43,-67 -13,-23 -26,-47 -37,-71 -11,-24 -21,-48 -31,-73 -9,-25 -17,-50 -24,-75 -7,-25 -13,-52 -17,-78 -5,-26 -9,-52 -11,-78 -2,-26 -3,-53 -3,-79 0,-26 1,-53 4,-80 2,-26 6,-52 10,-78 5,-26 10,-52 17,-77 7,-26 15,-51 24,-76 10,-25 19,-49 31,-73 11,-25 23,-48 37,-71 13,-23 27,-45 43,-67 15,-22 31,-43 48,-63 17,-20 35,-40 54,-58 19,-19 38,-37 58,-54 20,-17 41,-33 63,-48 22,-15 44,-30 67,-43 23,-13 47,-26 71,-37 24,-12 47.99998,-21 72.99998,-31 25,-9 50,-17 76,-24 25,-7 51,-13 77,-17 26,-5 52,-9 78,-11 26,-2 53,-3 80,-3 26,0 53,1 79,4 26,2 52,6 78,10 26,5 52,10 78,17 m 0,2 1,0 m 0,0 c 26,7 51,15 75,24 19,7 37,14 55,23"
       id="path27738" />
    <path
       style="fill:none;fill-rule:nonzero;stroke:#383332;stroke-width:91.68109894"
       inkscape:connector-curvature="0"
       class="fil11 str2"
       d="m 1303.0047,4518.3 c -45,-3 -90,-10 -135,-22 -20,-5 -39,-12 -58,-19 -79,-28 -149.99998,-70 -210.99998,-121 -47,-40 -89,-86 -124,-136 -59,-83 -99,-179 -117,-281 -17,-98 -14,-202 13,-304 16,-61 40,-117 70,-169 52,-91 123,-167 206,-225 82.99998,-58 178.99998,-98 280.99998,-116 60,-11 122,-14 184,-8 40,3 80,10 120,21 44,12 87,28 126,47"
       id="path27740" />
    <path
       style="fill:none;fill-rule:nonzero;stroke:#383332;stroke-width:19.77560043"
       inkscape:connector-curvature="0"
       class="fil11 str1"
       d="m 1706.0047,6466.3 c -16,7 -33,14 -49,20 -25,9 -50,17 -76,24 -26,7 -52,13 -78,17 -26,5 -52,8 -78,10 -27,3 -53,4 -80,4 -26,0 -53,-1 -79,-3 -26,-2 -52,-6 -78,-10 -26,-5 -53,-10 -78,-18 -26,-7 -51,-15 -75,-24 -25,-9 -48.99998,-19 -72.99998,-30 -24,-11 -48,-23 -71,-37 -23,-13 -45,-27 -67,-43 -21,-15 -42,-31 -62,-49 -21,-17 -40,-35 -59,-53 -18,-19 -37,-38 -54,-59 -17,-20 -33,-41 -48,-63 -15,-21 -29,-44 -42,-67 -13,-22 -25,-46 -37,-70 -11,-24 -21,-48 -31,-73 -9,-25 -17,-50 -24,-76 -7,-26 -13,-52 -17,-78 -5,-26 -8,-53 -10,-79 -3,-26 -4,-53 -4,-79 0,-27 1,-53 3,-80 2,-26 6,-53 11,-78 4,-26 10,-52 17,-77 6,-26 15,-51 24,-75 9,-25 19,-49 31,-74 11,-24 23,-47 36,-70 13,-23 28,-45 43,-67 16,-21 31,-42 49,-63 17,-21 35,-40 54,-59 19,-19 38,-37 58,-54 20,-17 41,-33 63,-48 22,-15 44,-29 67,-43 23,-13 46,-25 70,-36 24,-11 47.99998,-21 73.99998,-31 25,-9 49,-17 75,-24 26,-7 52,-13 77,-17 19,-3 39,-7 58,-9"
       id="path27754" />
    <path
       style="fill:none;fill-rule:nonzero;stroke:#383332;stroke-width:91.68109894"
       inkscape:connector-curvature="0"
       class="fil11 str2"
       d="m 1655.0047,6263.3 c -40,20 -83,36 -128,48 -40,11 -80,18 -120,21 -252,22 -494.99998,-94 -637.99998,-297 -46,-65 -81,-140 -103,-221 -16,-61 -24,-122 -24,-182 0,-83 15,-165 43,-241 28,-77 69,-148 121,-210 40,-47 85,-89 136,-124 64.99998,-46 139.99998,-81 220.99998,-103 44,-12 88,-19 133,-23"
       id="path27756" />
    <path
       style="fill:none;fill-rule:nonzero;stroke:#383332;stroke-width:19.77560043"
       inkscape:connector-curvature="0"
       class="fil11 str1"
       d="m 2978.0047,7749.3 c -10,14 -21,28 -33,42 -17,20 -35,40 -54,59 -19,19 -38,37 -58,53 -20,18 -41,34 -63,48 -22,16 -44,30 -67,43 -23,13 -47,26 -71,37 -24,12 -48,22 -73,31 -25,9 -50,17 -76,24 -25,7 -51,12 -77,17 -26,5 -53,9 -79,10 -26,3 -53,4 -79,4 -27,0 -53,-1 -80,-4 -26,-2 -53,-5 -78,-10 -26,-4 -52,-10 -77,-17 -26,-7 -51,-15 -76,-24 -25,-9 -49,-19 -73,-31 -24,-11 -47,-23 -70,-37 -23,-13 -45,-27 -67,-43 -21,-15 -42,-31 -63,-49 -20,-16 -40,-34 -59,-53 -19,-19 -37,-38 -53,-59 -18,-21 -34,-42 -48,-63 -16,-22 -30,-44 -43,-67 -14,-23 -26,-46 -37,-70 -12,-24 -21,-49 -30,-74 -9,-25 -17,-50 -24,-75 -7,-26 -13,-52 -17,-78 -5,-26 -9,-52 -10,-78 -3,-27 -4,-53 -4,-80 0,-26 1,-53 3,-79 2,-26 6,-53 11,-79 4,-26 10,-52 17,-77 7,-25 15,-50 24,-75 9,-25 19,-49 30,-74 11,-24 23,-47 37,-70 13,-23 27,-45 43,-67 15,-21 31,-43 48,-63 17,-20 35,-40 53,-59 19,-19 38,-37 59,-54 15,-12 31,-24 46,-36"
       id="path27770" />
    <path
       style="fill:none;fill-rule:nonzero;stroke:#383332;stroke-width:91.68109894"
       inkscape:connector-curvature="0"
       class="fil11 str2"
       d="m 2832.0047,7597.3 c -25,37 -54,73 -87,106 -60,60 -128,107 -201,140 -113,53 -237,74 -358,63 -61,-5 -120,-19 -178,-39 -94,-34 -182,-89 -257,-164 -60,-60 -106,-127 -140,-200 -52,-113 -74,-237 -63,-359 7,-81 28,-160 63,-235 34,-72 80,-140 140,-200 33,-33 68,-61 104,-86"
       id="path27772" />
    <path
       style="fill:none;fill-rule:nonzero;stroke:#383332;stroke-width:19.77560043"
       inkscape:connector-curvature="0"
       class="fil11 str1"
       d="m 4721.0047,8223.3 c -2,18 -4,36 -8,53 -4,26 -10,52 -17,78 -7,26 -15,51 -24,76 -9,25 -19,50 -30,73 -11,24 -23,48 -37,70 -13,23 -27,46 -43,67 -15,22 -31,43 -48,63 -17,20 -35,40 -53,59 -19,19 -38,37 -59,53 -20,17 -41,33 -63,49 -22,15 -44,29 -67,42 -23,14 -46,26 -71,37 -24,11 -48,21 -73,30 -25,9 -50,17 -75,24 -25,7 -52,13 -78,18 -26,5 -52,8 -78,10 -26,2 -53,3 -79,3 -27,0 -53,-1 -80,-4 -26,-2 -52,-5 -78,-10 -26,-5 -52,-10 -77,-17 -26,-7 -51,-15 -76,-24 -25,-9 -49,-19 -73,-30 -25,-11 -48,-23 -71,-37 -23,-13 -45,-27 -67,-43 -22,-15 -43,-31 -63,-48 -21,-17 -40,-35 -59,-54 -19,-19 -36,-38 -54,-58 -17,-20 -33,-41 -48,-63 -15,-22 -29,-44 -43,-67 -13,-23 -25,-46 -36,-70 -11,-24 -22,-49 -31,-74 -9,-25 -17,-50 -24,-75 -7,-26 -13,-52 -17,-78 -5,-26 -9,-52 -11,-79 -2,-26 -3,-53 -3,-79 0,-26 1,-53 4,-80 2,-26 6,-52 10,-78 5,-26 10,-52 17,-77 7,-26 15,-51 24,-76 7,-18 14,-37 22,-54"
       id="path27786" />
    <path
       style="fill:none;fill-rule:nonzero;stroke:#383332;stroke-width:91.68109894"
       inkscape:connector-curvature="0"
       class="fil11 str2"
       d="m 4519.0047,8165.3 c -3,45 -10,90 -23,135 -27,102 -76,193 -139,269 -66,80 -150,143 -243,186 -55,26 -114,44 -175,55 -60,11 -121,14 -183,8 -40,-3 -81,-10 -121,-21 -20,-5 -39,-11 -58,-18 -79,-29 -150,-70 -212,-122 -47,-40 -89,-86 -125,-136 -70,-100 -114,-218 -124,-342 -7,-80 0,-161 22,-243 12,-44 28,-87 47,-127"
       id="path27788" />
    <path
       style="fill:none;fill-rule:nonzero;stroke:#383332;stroke-width:19.77560043"
       inkscape:connector-curvature="0"
       class="fil11 str1"
       d="m 6468.0047,7762.3 c 7,16 14,33 20,50 9,25 17,49 24,75 m 0,0 0,1 m 0,0 c 7,26 13,52 17,77 5,26 8,53 10,78 3,27 4,53 4,79 0,27 -1,54 -3,80 -2,26 -6,53 -11,79 -4,26 -10,52 -17,77 -7,26 -15,51 -24,76 -9,25 -19,49 -31,73 -11,24 -23,47 -37,71 -13,23 -27,45 -42,67 -16,21 -32,43 -49,63 -17,20 -35,40 -53,59 -19,19 -38,37 -59,54 -20,17 -41,33 -63,48 -21,16 -44,30 -67,43 -23,13 -46,26 -70,37 -24,11 -48,21 -73,31 -25,9 -50,17 -76,24 -26,7 -52,12 -77,17 -26,5 -53,8 -79,10 -27,3 -53,4 -79,4 -27,0 -53,-1 -80,-3 -26,-2 -53,-6 -78,-11 -26,-4 -52,-10 -78,-17 -26,-7 -51,-15 -76,-24 -25,-9 -49,-19 -73,-31 -24,-11 -48,-23 -71,-37 -23,-13 -45,-27 -67,-43 -22,-15 -43,-31 -63,-48 -20,-17 -40,-35 -58,-54 -19,-18 -37,-38 -54,-58 -17,-20 -33,-41 -48,-63 -15,-21 -29,-43 -43,-67 -13,-23 -25,-46 -37,-71 -11,-24 -21,-48 -31,-73 -9,-24 -17,-50 -24,-76 -7,-26 -12,-52 -17,-77 -4,-20 -7,-39 -9,-58"
       id="path27798" />
    <path
       style="fill:none;fill-rule:nonzero;stroke:#383332;stroke-width:91.68109894"
       inkscape:connector-curvature="0"
       class="fil11 str2"
       d="m 6264.0047,7813.3 c 20,41 36,83 48,128 16,61 24,122 24,182 0,83 -15,164 -42,240 -21,58 -49,113 -85,163 -47,67 -105,126 -173,173 -65,46 -140,81 -221,103 -40,11 -80,18 -120,21 -62,6 -124,3 -183,-8 -102,-18 -198,-58 -281,-116 -131,-92 -232,-228 -276,-394 -12,-44 -19,-89 -22,-133"
       id="path27800" />
    <path
       style="fill:none;fill-rule:nonzero;stroke:#383332;stroke-width:19.77560043"
       inkscape:connector-curvature="0"
       class="fil11 str1"
       d="m 7750.0047,6490.3 c 15,10 29,21 43,33 20,17 40,35 59,54 19,19 37,38 53,59 17,20 34,41 48,63 15,22 30,44 43,67 14,23 26,46 37,70 11,24 21,49 30,74 9,25 17,50 24,76 7,26 13,52 17,77 5,26 9,52 10,78 3,27 4,53 4,80 0,26 -1,53 -4,79 -2,26 -5,53 -11,78 -4,26 -10,52 -17,78 -7,26 -15,51 -24,75 -9,25 -19,50 -30,74 -11,24 -23,47 -37,70 -13,23 -27,45 -43,67 -15,22 -31,43 -48,63 -17,20 -35,40 -53,58 m 0,0 -1,0 m 0,0 c -19,19 -38,37 -58,53 -21,18 -41,34 -63,49 -21,16 -43,30 -66,43 -23,13 -47,25 -71,37 -24,12 -49,22 -73,31 -25,9 -50,17 -76,24 -25,7 -51,12 -77,17 -26,5 -52,9 -79,10 -26,3 -53,4 -79,4 -26,0 -53,-1 -79,-4 -26,-2 -53,-5 -79,-10 -26,-4 -52,-10 -77,-17 -26,-7 -51,-15 -76,-24 -25,-9 -49,-19 -73,-31 -24,-11 -47,-23 -71,-37 -23,-13 -45,-27 -66,-43 -22,-15 -43,-30 -63,-48 -20,-17 -40,-35 -59,-53 -19,-19 -37,-39 -53,-59 -13,-15 -25,-30 -37,-46"
       id="path27808" />
    <path
       style="fill:none;fill-rule:nonzero;stroke:#383332;stroke-width:91.68109894"
       inkscape:connector-curvature="0"
       class="fil11 str2"
       d="m 7599.0047,6636.3 c 37,25 73,54 105,87 15,15 29,30 42,46 40,48 73,100 99,155 44,94 65,195 65,297 0,101 -22,202 -65,296 -34,73 -80,141 -141,201 -60,60 -128,107 -200,141 -56,26 -115,44 -175,55 -61,10 -122,13 -183,8 -81,-7 -160,-28 -235,-63 -55,-26 -107,-59 -155,-99 -16,-13 -31,-27 -46,-42 -33,-33 -61,-68 -86,-104"
       id="path27810" />
    <path
       style="fill:none;fill-rule:nonzero;stroke:#383332;stroke-width:19.77560043"
       inkscape:connector-curvature="0"
       class="fil11 str1"
       d="m 8224.0047,4747.3 c 18,2 36,4 53,8 26,5 52,10 77,17 26,7 51,15 76,24 25,9 49,19 73,31 25,11 48,23 71,37 23,13 45,27 67,43 22,15 43,31 63,48 21,17 40,35 59,53 19,19 37,38 53,59 17,20 34,41 49,63 15,22 30,44 43,67 13,23 25,46 37,70 11,24 21,49 31,74 9,25 17,50 24,75 7,25 13,51 17,77 5,26 9,52 11,78 2,26 3,53 3,80 0,26 -1,53 -4,79 -2,26 -6,53 -10,79 -5,26 -10,52 -17,77 -7,26 -15,51 -24,76 -9,25 -19,49 -31,73 -11,24 -23,47 -37,70 -13,23 -27,45 -43,67 -15,21 -31,43 -48,63 -17,20 -35,40 -53,59 -19,19 -38,37 -59,53 -20,17 -41,33 -62,49 -22,15 -44,29 -67,43 -23,13 -47,25 -71,36 -24,12 -48,21 -73,31 -25,9 -50,17 -75,24 -25,7 -52,13 -78,17 -26,5 -52,9 -78,11 -26,2 -53,3 -80,3 -26,0 -53,-1 -79,-4 -26,-2 -52,-6 -78,-10 -26,-5 -52,-10 -77,-17 m -3,-1 c -26,-7 -51,-15 -75,-24 -19,-7 -37,-14 -55,-22"
       id="path27820" />
    <path
       style="fill:none;fill-rule:nonzero;stroke:#383332;stroke-width:91.68109894"
       inkscape:connector-curvature="0"
       class="fil11 str2"
       d="m 8167.0047,4948.3 c 45,3 90,11 135,23 20,6 39,12 59,19 119,43 221,116 298,208 79,94 133,208 154,330 18,98 14,201 -13,304 -17,61 -40,117 -70,170 -42,72 -95,135 -157,187 -125,104 -284,165 -451,164 -60,0 -121,-8 -182,-24 -44,-12 -87,-28 -127,-47"
       id="path27822" />
    <path
       style="fill:none;fill-rule:nonzero;stroke:#383332;stroke-width:19.77560043"
       inkscape:connector-curvature="0"
       class="fil11 str1"
       d="m 7889.0047,2957.3 c 26,-7 51,-13 77,-17 26,-5 53,-8 79,-10 27,-3 53,-4 79,-4 27,0 53,1 80,3 26,2 53,6 78,11 26,4 52,10 77,17 25,7 51,14 75,24 25,9 50,19 74,31 24,11 47,23 71,36 23,13 45,27 67,43 21,15 43,31 63,48 20,17 40,35 59,54 19,19 37,38 54,58 17,20 33,41 48,63 15,21 29,44 43,67 13,23 25,47 37,71 11,24 21,48 31,73 8,25 17,50 24,76 7,26 13,52 17,78 5,26 8,52 10,78 3,27 4,53 4,80 0,27 -1,53 -3,79 -2,26 -6,52 -11,78 -4,26 -10,53 -17,78 -7,25 -15,51 -24,75 -9,25 -19,49 -31,73 -11,24 -23,47 -37,71 -13,23 -27,45 -43,67 -15,22 -31,43 -48,63 -17,20 -35,40 -54,59 -19,19 -38,37 -59,53 -20,17 -41,33 -63,49 -22,15 -44,29 -67,43 -22,13 -46,25 -70,36 -24,11 -48,21 -73,31 -25,9 -50,17 -76,24 -26,7 -52,13 -77,17 -19,3 -39,7 -58,9 m -461,-1742 c 16,-7 33,-14 50,-20 24,-9 49,-17 75,-24"
       id="path27836" />
    <path
       style="fill:none;fill-rule:nonzero;stroke:#383332;stroke-width:91.68109894"
       inkscape:connector-curvature="0"
       class="fil11 str2"
       d="m 7814.0047,3205.3 c 41,-20 83,-36 128,-48 20,-5 40,-10 60,-13 62,-11 124,-14 184,-8 206,18 396,127 515,297 46,65 81,140 103,221 16,61 24,122 24,182 0,104 -24,206 -67,298 -26,55 -59,107 -98,154 -77,92 -179,165 -299,209 -19,7 -38,13 -58,18 -44,12 -89,19 -133,22"
       id="path27838" />
    <path
       style="fill:none;fill-rule:nonzero;stroke:#383332;stroke-width:19.77560043"
       inkscape:connector-curvature="0"
       class="fil11 str1"
       d="m 6491.0047,1718.3 c 11,-14 21,-28 34,-42 16,-20 34,-40 53,-59 19,-19 38,-37 58,-54 20,-18 41,-34 63,-48 21,-16 44,-30 67,-43 23,-13 47,-26 71,-37 24,-12 48,-22 73,-31 24,-9 50,-17 75,-24 26,-7 52,-12 78,-17 26,-5 52,-9 78,-10 24,-3 48,-4 71,-4 26,0 53,1 80,3 27,2 53,5 80,10 26,4 52,9 78,16 26,6 52,15 77,24 25,9 49,19 74,30 24,11 47,23 71,37 23,13 46,27 67,43 22,15 43,31 64,49 20,16 40,35 59,54 l 2,2 c 19,18 36,37 52,57 18,21 35,42 49,63 16,22 30,44 43,67 14,23 27,47 37,71 12,24 21,48 31,73 9,24 17,50 24,75 7,26 13,52 17,78 5,26 9,52 10,78 3,26 4,53 4,79 0,27 -1,53 -4,80 -2,26 -5,53 -10,78 -4,26 -10,52 -17,78 -7,25 -15,51 -24,75 -9,25 -19,49 -31,73 -11,24 -23,47 -37,70 -13,23 -27,45 -43,67 -15,21 -31,43 -48,63 -16,20 -35,39 -53,59 -19,19 -38,37 -59,53 -15,13 -31,25 -46,36"
       id="path27846" />
    <path
       style="fill:none;fill-rule:nonzero;stroke:#383332;stroke-width:91.68109894"
       inkscape:connector-curvature="0"
       class="fil11 str2"
       d="m 6637.0047,1869.3 c 25,-37 54,-73 87,-105 60,-60 128,-107 200,-140 130,-61 274,-79 413,-56 41,7 80,17 119,31 58,20 113,49 165,85 34,24 66,50 97,81 153,153 220,360 203,559 -14,159 -82,314 -203,435 -33,33 -68,62 -105,86"
       id="path27848" />
    <path
       style="fill:none;fill-rule:nonzero;stroke:#383332;stroke-width:19.77560043"
       inkscape:connector-curvature="0"
       class="fil11 str1"
       d="m 4773.0047,1113.3 c 7,-26 15,-51 24,-75 9,-25 19,-50 31,-74 11,-24 23,-48 36,-70 14,-23 28,-46 43,-67 15,-22 32,-43 48,-63 17,-21 35,-40 54,-59 19,-19 38,-37 59,-53 20,-17 41,-34 63,-49 21,-15 44,-29 67,-43 23,-13 46,-25 71,-37 24,-11 48,-22 73,-31 25,-9 50,-17 76,-24 25,-7 51,-13 77,-17 26,-5 52,-9 79,-11 21,-2 42,-3 64,-3 83,-1 167,9 251,31 21,6 43,13 64,20 25,9 50,19 74,29 25,11 49,23 71,36 24,13 47,27 69,42 22,15 43,31 63,48 21,17 40,34 59,53 19,18 37,37 54,58 17,20 33,41 49,63 16,21 30,43 44,66 15,26 29,52 42,80 11,24 21,48 30,73 9,25 17,50 24,76 7,25 13,51 17,78 5,26 9,52 11,78 2,27 3,53 3,80 0,26 -1,53 -4,80 -2,26 -5,52 -10,79 -5,26 -11,51 -17,77 m -2,0 c -7,26 -15,51 -24,75 -7,19 -14,37 -22,54 m -1736,-468 c 2,-18 5,-36 8,-54 5,-26 10,-51 17,-77"
       id="path27860" />
    <path
       style="fill:none;fill-rule:nonzero;stroke:#383332;stroke-width:91.68109894"
       inkscape:connector-curvature="0"
       class="fil11 str2"
       d="m 4950.0047,1302.3 c 3,-45 11,-90 23,-135 16,-61 40,-117 70,-169 42,-72 95,-135 157,-187 122,-102 278,-162 441,-165 64,-1 128,7 193,24 79,21 151,55 216,99 68,47 127,105 174,171 61,85 102,183 121,286 18,98 14,201 -14,304 -12,45 -28,87 -47,127"
       id="path27862" />
    <path
       style="fill:none;fill-rule:nonzero;stroke:#383332;stroke-width:19.77560043"
       inkscape:connector-curvature="0"
       class="fil11 str1"
       d="m 3002.0047,1705.3 c -7,-16 -14,-33 -20,-50 -8,-25 -17,-50 -24,-76 -7,-26 -13,-52 -17,-77 -5,-26 -8,-53 -10,-78 -3,-27 -4,-53 -4,-80 0,-27 1,-53 3,-79 2,-26 5,-53 11,-78 4,-26 10,-52 17,-78 7,-26 15,-51 24,-75 9,-25 19,-49 31,-73 11,-24 23,-47 37,-71 13,-23 27,-45 43,-67 15,-22 31,-43 48,-63 17,-20 35,-40 54,-58 18,-19 38,-37 58,-54 20,-17 41,-33 63,-48 22,-15 44,-29 67,-42 23,-13 46,-26 71,-37 24,-11 48,-21 73,-31 25,-9 50,-17 76,-24 26,-7 52,-12 77,-17 26,-5 52,-8 79,-10 26,-3 53,-4 79,-4 27,0 53,1 80,3 26,2 53,6 78,10 26,5 52,10 77,17 26,7 51,15 76,24 25,9 50,19 73,30 24,11 48,23 71,37 23,13 45,27 67,42 21,15 43,31 63,49 20,17 40,34 59,53 19,19 37,38 53,59 17,20 33,41 48,63 16,21 30,44 43,67 13,23 26,46 37,71 11,24 22,48 31,73 9,25 17,50 24,76 7,26 13,52 17,78 3,19 6,39 8,58"
       id="path27872" />
    <path
       style="fill:none;fill-rule:nonzero;stroke:#383332;stroke-width:91.68109894"
       inkscape:connector-curvature="0"
       class="fil11 str2"
       d="m 3206.0047,1654.3 c -20,-40 -36,-83 -48,-128 -22,-82 -29,-164 -21,-243 11,-124 54,-241 124,-341 35,-51 77,-96 124,-136 61,-52 133,-94 212,-122 19,-7 38,-13 58,-18 103,-27 205,-31 303,-13 102,18 198,58 281,116 50,35 96,77 136,124 51,61 93,131 121,209 7,20 14,40 19,61 12,44 19,89 22,133"
       id="path27874" />
    <path
       style="fill:none;fill-rule:nonzero;stroke:#383332;stroke-width:19.77560043"
       inkscape:connector-curvature="0"
       class="fil11 str1"
       d="m 1720.0047,2977.3 c -14,-10 -28,-22 -42,-33 -20,-17 -40,-35 -59,-54 -19,-19 -37,-38 -53,-59 -18,-20 -33,-41 -48,-63 -16,-21 -30,-44 -43,-67 -13,-23 -26,-47 -37,-70 -12,-24 -21,-49 -31,-74 -9,-25 -17,-50 -24,-75 -7,-25 -13,-51 -17,-77 -5,-26 -9,-52 -10,-78 -3,-27 -4,-53 -4,-80 0,-26 1,-53 4,-79 2,-27 5,-53 10,-79 4,-26 10,-52 17,-77 6,-26 15,-51 24,-76 9,-25 19,-49 31,-73 11,-24 23,-47 36,-71 13,-23 28,-45 43,-67 15,-21 31,-43 48,-63 17,-20 35,-40 54,-59 19,-19 39,-37 59,-53 20,-18 41,-34 63,-48 22,-16 44,-30 67,-43 23,-13 46,-26 70,-37 24,-12 49,-21 74,-31 25,-9 51,-17 76,-24 26,-7 52,-13 77,-17 26,-5 53,-8 79,-11 26,-2 53,-3 79,-3 27,0 53,1 80,4 26,2 53,5 78,10 26,4 52,10 78,17 25,6 51,15 76,24 25,9 49,19 74,31 24,11 47,23 70,37 23,13 45,27 67,43 21,14 43,30 63,48 20,16 40,34 59,53 19,19 37,38 53,59 13,15 25,31 37,46"
       id="path27884" />
    <path
       style="fill:none;fill-rule:nonzero;stroke:#383332;stroke-width:91.68109894"
       inkscape:connector-curvature="0"
       class="fil11 str2"
       d="m 1871.0047,2831.3 c -37,-25 -73,-54 -106,-87 -60,-60 -107,-128 -140,-200 -79,-169 -86,-363 -23,-537 33,-94 88,-182 164,-257 60,-60 127,-107 200,-141 113,-53 237,-74 359,-63 81,7 160,28 235,63 72,34 140,81 200,141 33,33 61,68 86,104"
       id="path27886" />
    <path
       style="fill:none;fill-rule:nonzero;stroke:#383332;stroke-width:15.8071003"
       inkscape:connector-curvature="0"
       class="fil11 str4"
       d="m 648.00472,3629.3 -177,-48 -7,-1 m 170,110 -180,-31 -7,-1 m 179,96 -182,-17 -7,0 m 186,80 -190,0 m 193,63 -183,16 -6,0 m 197,47 -180,31 -7,2 m 201,29 -177,47 -7,2 m 203,11 -172,63 -6,2 m 202,-6 -166,77 -6,3 m 201,-24 -158,92 -6,3 m 199,-41 -150,105 -6,4 m 194,-59 -140,118 -5,4 m 188,-75 -129,129 -5,5 m 181,-91 -118,140 -4,5 m 172,-107 -105,150 -4,6 m 162,-122 -91,158 -3,6 m 150.99998,-134 -76.99998,165 -3,7 m 137.99998,-148 -62,172 -2,6 m 125,-159 -47,176 -2,7 m 111,-170 -32,180 -1,7 m 95,-178 0,9 m 371,-1393 4,-6 m -62,-18 62,-171 3,-7 m -126,160 48,-177 1,-7 m -111,170 32,-180 1,-7 m -96,179 16,-183 1,-7 m -80,186 0,-189 m -64,193 -15,-183 -1,-7 m -46,198 -32,-180 -1,-7 m -29,201 -47,-177 -2,-7 m -12,202 -62,-171 -2,-7 m 6,202 -76.99998,-165 -3,-6 m 23,201 -91,-158 -3,-6 m 41,198 -105,-150 -4,-5 m 59,194 -118,-140 -4,-5 m 75,188 -129,-130 -5,-5 m 91,181 -140,-117 -5,-5 m 106,173 -149,-105 -6,-4 m 121,162 -158,-91 -6,-4 m 135,151 -166,-77 -6,-3 m 148,139 -172,-63 -6,-2 m 154,2317 -176,47 -7,2 m 202,11 -172,63 -6,2 m 202,-6 -165,77 -7,3 m 201,-24 -158,91 -6,4 m 198,-41 -149,105 -6,4 m 194,-59 -140,117 -5,5 m 188,-75 -129,129 -5,5 m 181,-92 -117,140 -5,6 m 172,-107 -105,150 -4,6 m 163,-122 -92,159 -3,6 m 150.99998,-135 -76.99998,165 -3,6 m 138.99998,-147 -63,172 -3,6 m 126,-159 -48,176 -1,7 m 111,-169 -32,180 -1,7 m 96,-179 -16,182 -1,7 m 80,-186 0,189 m 63,-192 17,182 0,7 m 46,-197 32,180 1,7 m 29,-201 48,176 1,7 m 12,-202 62,172 2,6 m -6,-202 4,8 m -374,-1391 -1,-9 m -62,17 -32,-180 -1,-7 m -29,201 -48,-177 -1,-7 m -11,202 -63,-171 -3,-7 m 7,203 -77.99998,-165 -3,-7 m 25,201 -92,-158 -3,-6 m 41,198 -105,-150 -4,-5 m 59,194 -118,-140 -4,-5 m 75,188 -129,-130 -5,-5 m 91,182 -140,-118 -5,-5 m 106,173 -149,-105 -6,-4 m 121,162 -158,-91 -6,-3 m 135,150 -165,-77 -7,-3 m 148,139 -172,-62 -6,-3 m 159,126 -176,-48 -7,-2 m 169,112 -180,-32 -6,-2 m 178,96 -182,-16 -7,0 m 186,80 -190,0 m 193,63 -182,16 -7,1 m 197,46 -180,32 -6,1 m 1290.99998,1929 -129,129 -5,6 m 181,-92 -117,140 -5,6 m 172,-107 -105,149 -3,6 m 161,-121 -91,158 -3,6 m 151,-135 -77,166 -3,6 m 139,-148 -63,172 -2,7 m 125,-159 -47,176 -2,7 m 111,-170 -32,180 -1,7 m 96,-178 -16,181 -1,7 m 80,-186 0,190 m 64,-192 16,181 0,7 m 47,-197 31,180 2,7 m 29,-200 47,176 2,7 m 11,-203 63,172 2,7 m -6,-203 76,166 4,6 m -24,-201 91,158 4,6 m -42,-198 105,149 4,6 m -58,-194 117,140 5,6 m -75,-189 128,129 6,6 m -92,-182 140,118 6,5 m -107,-173 8,6 m -1021,-1018 -4,-6 m -46,44 -117,-140 -5,-5 m 75,188 -129,-129 -5,-5 m 91,181 -139,-117 -6,-5 m 107,172 -150,-104 -6,-5 m 122,163 -159,-92 -6,-3 m 136,151 -166,-77 -7,-3 m 148,139 -171,-63 -7,-2 m 159,125 -176,-47 -7,-2 m 169,111 -179,-32 -8,-1 m 179,96 -182,-16 -7,0 m 186,79 -189,0 m 192,63 -182,17 -7,0 m 197,46 -179,32 -8,1 m 201,29 -176,48 -7,1 m 202,12 -171,62 -7,3 m 203,-6 -166,77 -7,3 m 202,-24 -158,91 -7,4 m 199,-42 -150,105 -6,4 m 194,-59 -139,118 -6,5 m 2083,1025 -46,176 -2,7 m 110,-170 -31,180 -1,7 m 95,-178 -16,181 0,8 m 80,-187 0,190 m 63,-192 16,182 1,7 m 46,-198 32,180 1,7 m 29,-200 48,176 1,7 m 12,-203 62,172 3,6 m -7,-202 77,166 3,6 m -24,-201 92,158 3,6 m -41,-198 105,150 4,5 m -59,-194 117,140 5,6 m -75,-188 129,128 5,5 m -91,-181 140,118 5,4 m -106,-172 149,105 6,4 m -121,-162 158,91 6,4 m -135,-152 165,78 7,3 m -148,-139 172,62 6,3 m -159,-125 177,47 6,1 m -169,-111 180,32 7,1 m -179,-96 10,1 m -1393,-371 -7,-3 m -17,61 -172,-62 -7,-2 m 159,125 -176,-47 -7,-2 m 170,111 -180,-32 -7,-1 m 179,96 -182,-16 -7,-1 m 186,80 -190,0 m 193,63 -183,16 -6,1 m 197,46 -180,32 -7,1 m 201,30 -177,47 -7,1 m 203,12 -172,62 -7,3 m 203,-7 -165,78 -7,3 m 201,-24 -158,91 -6,4 m 198,-42 -149,105 -6,4 m 194,-59 -140,118 -5,4 m 188,-74 -129,128 -5,5 m 180,-91 -117,140 -4,6 m 172,-107 -105,149 -4,6 m 162,-121 -91,158 -3,6 m 151,-135 -77,166 -4,6 m 139,-148 -62,172 -3,6 m 2317,-154 48,177 2,7 m 11,-203 63,172 2,7 m -7,-203 78,166 3,6 m -24,-201 91,158 3,6 m -41,-198 105,149 4,6 m -59,-194 118,140 4,5 m -75,-188 130,129 4,5 m -91,-180 140,117 6,5 m -107,-173 150,105 5,4 m -121,-162 158,91 6,3 m -135,-150 165,76 7,4 m -148,-139 172,62 6,3 m -158,-126 176,48 6,1 m -169,-111 180,32 7,1 m -178,-96 182,17 6,0 m -186,-80 190,0 m -192,-63 181,-16 7,-1 m -197,-46 180,-32 7,-1 m -200,-29 176,-48 6,-1 m -202,-11 172,-63 6,-3 m -202,7 10,-5 m -1393,376 -9,0 m 17,62 -180,32 -7,1 m 201,29 -177,48 -7,1 m 203,12 -172,62 -7,3 m 203,-6 -165,76 -7,4 m 202,-24 -159,91 -6,3 m 199,-41 -150,105 -6,4 m 194,-58 -140,117 -5,5 m 188,-76 -129,129 -5,5 m 180,-91 -117,140 -4,5 m 172,-106 -105,149 -4,6 m 163,-121 -92,158 -3,6 m 151,-135 -77,166 -3,6 m 138,-148 -62,172 -2,7 m 125,-160 -47,177 -2,7 m 111,-170 -32,180 -1,7 m 96,-179 -17,183 0,6 m 80,-186 0,190 m 64,-193 16,182 0,7 m 46,-197 32,180 2,7 m 1929,-1292 128,129 6,5 m -91,-181 139,117 6,5 m -107,-172 150,104 6,5 m -122,-163 159,92 6,3 m -136,-151 166,78 6,2 m -147,-139 171,63 7,2 m -159,-125 176,47 7,2 m -169,-111 179,32 8,1 m -179,-96 182,16 7,1 m -187,-80 190,0 m -192,-63 182,-17 7,0 m -197,-46 179,-32 8,-1 m -201,-29 176,-48 7,-1 m -202,-12 171,-62 7,-3 m -203,6 166,-77 6,-3 m -201,24 158,-91 7,-4 m -199,42 150,-105 6,-4 m -195,59 140,-118 6,-5 m -188,76 129,-129 5,-6 m -181,92 117,-140 5,-5 m -172,106 5,-8 m -1018,1021 -7,4 m 46,46 -140,117 -6,5 m 188,-75 -129,129 -4,5 m 180,-91 -117,140 -5,5 m 173,-107 -105,150 -4,6 m 162,-122 -92,158 -3,6 m 151,-134 -77,165 -3,7 m 139,-148 -63,172 -2,6 m 125,-159 -47,176 -2,7 m 112,-169 -32,179 -2,8 m 96,-179 -16,181 0,8 m 80,-186 0,189 m 63,-192 16,181 0,8 m 47,-197 32,179 1,8 m 29,-201 47,176 2,7 m 11,-202 63,172 2,6 m -6,-202 77,165 3,7 m -24,-202 92,158 3,6 m -42,-198 105,150 4,6 m -58,-194 117,139 5,6 m 1025,-2084 176,48 7,2 m -170,-112 180,32 7,2 m -178,-96 182,16 7,0 m -186,-80 189,0 m -192,-63 182,-17 7,0 m -198,-46 180,-32 7,-1 m -200,-29 176,-47 7,-2 m -202,-11 171,-63 7,-2 m -202,6 165,-77 6,-3 m -201,24 158,-91 6,-4 m -198,41 150,-105 5,-4 m -194,59 140,-117 6,-5 m -188,75 129,-129 5,-5 m -181,91 117,-139 5,-6 m -173,107 105,-150 4,-6 m -162,122 91,-158 4,-7 m -151,136 77,-166 3,-7 m -139,148 63,-171 2,-7 m -125,159 47,-176 1,-8 m -110,170 31,-179 2,-8 m -96,179 1,-10 m -372,1393 -3,7 m 62,18 -63,171 -2,7 m 126,-159 -48,176 -2,7 m 111,-170 -31,180 -2,7 m 96,-178 -16,181 0,8 m 80,-187 -1,183 0,7 m 64,-192 16,182 0,7 m 47,-198 31,180 2,7 m 29,-200 47,176 2,7 m 11,-203 63,172 2,7 m -6,-203 77,165 3,7 m -24,-201 91,158 4,6 m -42,-198 106,150 3,5 m -58,-194 117,140 5,6 m -75,-189 129,130 5,4 m -92,-180 140,117 6,5 m -107,-173 150,105 5,4 m -121,-162 158,91 6,3 m -134,-150 165,77 6,3 m -147,-139 171,63 7,2 m -154,-2317 176,-47 7,-2 m -202,-12 172,-62 6,-3 m -203,7 166,-77 6,-3 m -201,23 158,-91 7,-3 m -199,41 150,-105 5,-3 m -193,58 140,-118 5,-4 m -188,75 129,-129 5,-5 m -181,91 117,-140 4,-5 m -171,106 104,-149 4,-6 m -162,122 92,-159 3,-6 m -151,136 77,-166 3,-7 m -139,148 62,-171 3,-7 m -125,159 47,-176 2,-8 m -111,170 31,-179 2,-8 m -96,179 16,-182 0,-7 m -80,186 0,-189 m -63,192 -16,-182 0,-7 m -47,197 -32,-179 -1,-8 m -76,25 -2,-8"
       id="path27888" />
    <path
       style="fill:none;fill-rule:nonzero;stroke:#383332;stroke-width:15.8071003"
       inkscape:connector-curvature="0"
       class="fil11 str4"
       d="m 7936.0047,3133.3 -47,-176 m -13,195 -62,-171 -3,-7 m 6,202 -4,-9 m 375,1393 1,8 m 62,-16 31,179 2,7 m 29,-200 47,176 2,7 m 11,-203 63,172 2,6 m -6,-202 77,166 3,6 m -24,-201 91,158 4,6 m -41,-198 104,150 4,5 m -58,-194 117,140 5,6 m -75,-188 129,129 5,4 m -92,-181 141,118 5,4 m -107,-172 150,105 5,4 m -121,-162 158,91 7,4 m -136,-152 166,78 6,2 m -147,-138 172,62 6,3 m -159,-125 176,47 7,2 m -169,-111 180,31 6,1 m -178,-95 182,16 7,0 m -187,-80 190,0 m -192,-63 182,-16 7,-1 m -197,-46 180,-32 6,-1 m -1869,-2139 -16,-182 -1,-7 m -46,197 -32,-180 -1,-7 m -29,201 -48,-177 -1,-7 m -12,202 -62,-171 -3,-7 m 7,203 -77,-166 -3,-6 m 24,201 -92,-158 -3,-6 m 41,198 -105,-149 -4,-7 m 59,195 -118,-140 -4,-5 m 75,188 -129,-129 -5,-6 m 91,181 -139,-116 -7,-6 m 107,173 -7,-6 m 1020,1018 5,7 m 45,-45 118,139 4,6 m -75,-188 129,129 6,5 m -92,-181 140,117 5,5 m -106,-172 149,105 6,4 m -121,-162 158,91 6,3 m -135,-151 166,77 6,3 m -148,-139 172,63 7,3 m -160,-126 177,48 7,1 m -170,-111 180,32 7,1 m -179,-96 182,16 7,1 m -189,-144 182,-16 7,0 m -197,-47 180,-31 7,-1 m -201,-30 177,-47 7,-2 m -203,-11 172,-62 7,-3 m -203,6 166,-77 6,-3 m -104,388 190,0 m -797,-711 31,-186 0,-1 m 358,387 132,-134 1,-1 m -181,92 121,-145 1,-1 m -172,108 107,-156 1,0 m -162,122 94,-164 0,-1 m -150,136 79,-172 m -138,148 64,-178 m -124,159 47,-183 m -173,162 16,-188 0,-1 m -79,187 -1,-189 0,-1 m 633,550 162,-95 1,-1 m -198,43 154,-109 1,-1 m -193,59 143,-122 1,0 m -2329,-1049 -16,-183 0,-6 m -47,197 -31,-180 -2,-7 m -28,200 -48,-176 -1,-7 m -12,203 -63,-172 -2,-7 m 6,203 -77,-166 -3,-6 m 24,201 -91,-158 -4,-6 m 42,198 -105,-149 -4,-6 m 58,194 -117,-140 -5,-6 m 75,189 -129,-129 -5,-6 m 92,181 -140,-117 -6,-4 m 107,172 -150,-105 -5,-4 m 121,162 -158,-91 -6,-3 m 135,150 -166,-77 -6,-3 m 147,139 -171,-62 -7,-3 m -17,78 -7,-1"
       id="path27892" />
    <path
       style="fill:none;fill-rule:nonzero;stroke:#383332;stroke-width:19.77560043"
       inkscape:connector-curvature="0"
       class="fil11 str1"
       d="m 4773.0047,1114.3 0,-1"
       id="path27894" />
    <path
       style="fill:none;fill-rule:nonzero;stroke:#383332;stroke-width:15.8071003"
       inkscape:connector-curvature="0"
       class="fil11 str4"
       d="m 4949.0047,1161.3 -176,-47 m 162,108 -179,-31 -7,-1 m 178,96 -10,-1 m 1394,371 7,3 m 17,-62 171,63 7,2 m -159,-125 176,47 7,2 m -170,-111 180,32 7,1 m -178,-96 182,17 7,0 m -186,-80 189,0 m -192,-63 182,-17 7,0 m -198,-47 180,-31 7,-1 m -200,-29 176,-48 7,-1 m -202,-12 171,-62 7,-3 m -202,6 165,-77 6,-3 m -652,-309 44,-184 m -107,172 28,-188 m -91,181 12,-189 m -75,188 -5,-190 m 644,537 154,-94 7,-5 m -197,47 146,-108 7,-5 m -193,63 138,-121 4,-4 m -186,80 127,-134 4,-4 m -179,96 116,-145 2,-3 m -169,111 104,-156 1,-2 m -159,125 89,-165 1,-1 m -147,138 75,-173 m -135,151 61,-180 m -2303,151 -47,-176 -2,-7 m -11,203 -63,-172 -2,-7 m 6,203 -77,-165 -3,-7 m 24,201 -92,-158 -3,-6 m 41,198 -104,-149 -5,-6 m 59,194 -118,-140 -4,-5 m 75,188 -129,-129 -5,-5 m 91,180 -139,-117 -6,-4 m 107,172 -150,-105 -6,-4 m 122,162 -159,-91 -6,-3 m 135,151 -165,-77 -6,-3 m 147,138 -172,-62 -6,-3 m 159,126 -176,-48 -7,-2 m 169,112 -180,-32 -6,-1 m 178,95 -182,-16 -7,0 m 186,80 -189,0 m 192,63 -182,16 -7,1 m 197,46 -180,32 -6,1 m 200,29 -176,47 -7,2 m 202,12 -172,62 -6,3 m 202,-7 -8,4 m 1392,-375 8,0 m -17,-62 180,-32 7,-1 m -200,-29 176,-48 7,-2 m -203,-11 172,-63 7,-2 m -203,7 166,-77 6,-3 m -201,23 158,-91 6,-3 m -198,41 149,-105 6,-4 m -194,58 140,-117 6,-4 m -189,75 130,-130 5,-4 m -181,91 117,-140 5,-5 m -173,106 106,-150 3,-5 m -162,121 91,-158 4,-6 m -151,135 77,-166 3,-6 m -139,148 62,-172 3,-7 m -126,159 48,-176 1,-7 m -111,170 32,-180 1,-7 m -96,178 17,-182 0,-7 m -80,187 0,-190 m -63,192 -16,-181 0,-7 m -47,197 -31,-180 -2,-7"
       id="path27896" />
    <path
       style="fill:none;fill-rule:nonzero;stroke:#383332;stroke-width:64.59449768"
       inkscape:connector-curvature="0"
       class="fil11 str5"
       d="m 9375.0047,3500.3 c -120,-9 -230,-79 -288,-187 -6,-10 -38,-69 -50,-88 -186,-279 -491,-458 -825,-486 143,-299 143,-649 1,-949 -11,-25 -70,-121 -82,-147 -41,-95 -39,-204 6,-298 -109,52 -239,46 -344,-18 -10,-6 -67,-41 -87,-51 -301,-148 -655,-151 -957,-8 -26,-331 -200,-635 -474,-822 -22,-16 -121,-69 -144,-87 -83,-62 -136,-157 -144,-261 -69,100 -184,160 -307,156 -12,-1 -79,-2 -101,-1 -335,21 -642,196 -833,471 -188,-273 -491,-449 -821,-475 -27,-2 -140,1 -168,-3 -102,-12 -196,-68 -255,-153 -9,121 -80,230 -187,288 -10,5 -69,38 -88,50 -279,186 -458,492 -486,825 -299,-143 -650,-144 -949,-1 -24,12 -121,70 -147,81 -95,41 -204,39 -297,-6 52,109 46,239 -19,344 -6,10 -41,68 -51,87 -149,300 -151,654 -9,957 -330.99998,26 -633.99998,201 -821.99998,474 -15,22 -70,121 -87,144 -61,83 -157,136 -261.000005,144 100.000005,69 159.000005,184 156.000005,307 0,12 -2,79 0,101 21,335 196,643 471,833 -273,188 -449,491 -475,822 -2,26 0,139 -3,168 -12,103 -68,196 -154.000005,255 121.000005,9 230.000005,80 288.000005,188 6,10 38,69 50,87 186,279 491,458 824.99998,486 -143,299 -144,649 -1,949 12,24 70,121 82,147 41,95 39,204 -6,298 109,-52 239,-46 344,18 10,6 68,41 87,51 301,149 655,151 957,8 26,331 201,634 474,822 22,15 121,69 144,87 83,62 136,157 144,261 69,-100 184,-160 307,-156 12,0 79,2 101,1 335,-22 643,-197 833,-471 188,273 491,449 822,475 27,2 139,-1 168,2 102,12 196,68 255,154 9,-121 80,-231 188,-288 10,-5 69,-38 87,-50 279,-187 458,-492 486,-825 299,143 649,143 949,1 24,-12 121,-70 147,-82 95,-41 204,-39 298,6 -52,-109 -46,-239 19,-343 6,-10 41,-68 50,-87 149,-301 151,-655 9,-957 331,-26 634,-200 823,-474 15,-22 69,-121 86,-144 62,-83 157,-136 261,-144 -100,-68 -159,-184 -156,-306 0,-12 2,-79 1,-101 -22,-334 -197,-642 -471,-834 273,-187 449,-491 475,-821 2,-27 -1,-140 3,-168 12,-103 68,-196 154,-255"
       id="path27898" />
    <path
       style="fill:none;fill-rule:nonzero;stroke:#383332;stroke-width:15.8071003"
       inkscape:connector-curvature="0"
       class="fil11 str4"
       d="m 1748.0047,1733.3 -130,-129 -4,-5 m 91,181 -140,-118 -6,-4 m 107,172 -150,-105 -5,-4 m 121,163 -158,-92 -6,-3 m 135,151 -165,-77 -7,-3 m 148,139 -172,-63 -6,-2 m 158,125 -176,-47 -7,-2 m 170,111 -179,-32 -8,-1 m 179,96 -182,-16 -8,-1 m 187,80 -190,0 m 193,64 -182,16 -7,0 m 197,46 -179,32 -8,2 m 200,28 -176,48 -7,2 m 202,11 -171,62 -6,3 m 202,-6 -165,77 -7,3 m 201,-24 -158,91 -6,3 m 198,-41 -149,105 -6,4 m 194,-58 -139,116 -7,6 m 189,-76 -129,129 -5,6 m 180,-92 -117,140 -4,5 m 172,-106 -6,8 m 1018,-1021 7,-4 m -45,-46 140,-118 5,-4 m -188,75 129,-129 5,-5 m -180,91 117,-140 4,-5 m -172,107 105,-150 4,-6 m -162,122 91,-159 3,-6 m -151,135 78,-165 2,-6 m -138,147 62,-172 2,-7 m -125,160 47,-177 2,-7 m -111,170 32,-180 1,-7 m -96,179 17,-182 0,-7 m -80,186 0,-190 m -64,193 -16,-182 0,-7 m -46,197 -32,-180 -2,-7 m -28,201 -48,-177 -2,-6 m -11,202 -63,-172 -2,-6 m 6,202 -77,-165 -3,-6 m 24,201 -91,-159 -3,-6 m 41,199 -105,-150 -4,-6 m 58,194 -117,-140 -4,-5"
       id="path27900" />
    <path
       style="fill:none;fill-rule:nonzero;stroke:#383332;stroke-width:30.5394001"
       inkscape:connector-curvature="0"
       class="fil11 str6"
       d="m 1578.0047,5140.3 c -8,-2 -15,-3 -23,-6 -116,-31 -207,-107 -260,-205 -6,-10 -10,-20 -15,-31 -24,-53 -36,-112 -36,-172 0,-3 0,-5 1,-7 1,-32 5,-65 14,-98 7,-25 15,-49 26,-72 5,-11 11,-22 17,-33 73,-124 207,-202 351,-205 m -13,837 c -2,0 -4,0 -7,-1"
       id="path27908" />
    <path
       style="fill:none;fill-rule:nonzero;stroke:#383332;stroke-width:30.5394001"
       inkscape:connector-curvature="0"
       class="fil11 str6"
       d="m 1725.0047,5058.3 c -48,9 -98,8 -148,-5 -75,-20 -137,-64 -181,-122 -23,-31 -41,-65 -52,-102 -10,-33 -15,-67 -15,-103 l 0,-4 c 1,-26 4,-52 11,-78 3,-9 5,-18 9,-27 13,-37 33,-71 58,-100 77,-93 202,-140 327,-112 l 15,3 c 1,0 3,1 4,1 m 151,89 c 3,2 5,5 7,7"
       id="path27910" />
    <path
       style="fill:none;fill-rule:nonzero;stroke:#383332;stroke-width:30.5394001"
       inkscape:connector-curvature="0"
       class="fil11 str6"
       d="m 1825.0047,4904.3 c -26,24 -57,42 -90,52 -25,8 -52,12 -80,11 -17,-1 -35,-3 -53,-8 -25,-7 -48,-17 -69,-31 -21,-14 -41,-32 -55,-51 -34,-43 -53,-96 -51,-152 l 0,-2 c 1,-5 1,-10 1,-15 1,-13 3,-26 7,-39 9,-35 27,-67 49,-93 16,-19 36,-35 57,-48 19,-11 38,-20 59,-25 21,-6 43,-9 66,-9 19,0 40,3 60,8 8,2 17,5 25,9 30,11 56,29 77,50"
       id="path27912" />
    <path
       style="fill:none;fill-rule:nonzero;stroke:#383332;stroke-width:30.5394001"
       inkscape:connector-curvature="0"
       class="fil11 str6"
       d="m 1742.0047,4839.3 c -11,8 -23,14 -36,18 -24,9 -51,10 -77,3 -1,0 -2,0 -3,-1 -25,-7 -47,-21 -63,-40 -19,-21 -31,-49 -33,-78 -1,-11 0,-21 2,-32 0,-4 1,-8 2,-12 7,-24 19,-44 35,-60 18,-18 41,-30 66,-36 20,-4 42,-4 63,2 7,2 14,4 21,7 10,4 18,9 26,16 m 75,1308 c 12,-9 24,-18 36,-25 m 348,755 c -7,3 -15,5 -22,7 -115,31 -233,10 -327,-47 -10,-6 -20,-12 -29,-19 -47,-35 -87,-78 -117,-131 -1,-2 -3,-5 -4,-7 -15,-29 -28,-59 -36,-92 -7,-25 -11,-50 -13,-75 -1,-12 -2,-25 -1,-37 1,-126 59,-244 155,-322 m 452,699 c -1,1 -2,1 -2,2"
       id="path27914" />
    <path
       style="fill:none;fill-rule:nonzero;stroke:#383332;stroke-width:30.5394001"
       inkscape:connector-curvature="0"
       class="fil11 str6"
       d="m 2292.0047,6519.3 c -37,32 -81,56 -132,70 -75,20 -152,13 -218,-15 -35,-15 -67,-36 -95,-62 -25,-24 -47,-51 -65,-82 0,-1 -1,-2 -2,-3 -13,-22 -23,-47 -29,-73 -3,-9 -5,-18 -6,-27 -7,-39 -7,-77 -1,-115 20,-119 105,-223 227,-261 5,-2 10,-4 15,-5 2,0 3,-1 5,-1 m 173,0 10,3"
       id="path27916" />
    <path
       style="fill:none;fill-rule:nonzero;stroke:#383332;stroke-width:30.5394001"
       inkscape:connector-curvature="0"
       class="fil11 str6"
       d="m 2300.0047,6336.3 c -10,33 -28,64 -52,90 -18,20 -39,37 -64,49 -16,9 -32,15 -50,20 -25,7 -51,9 -75,8 -25,-1 -50,-7 -74,-16 -50,-20 -93,-57 -120,-106 -1,-1 -1,-2 -1,-3 -2,-4 -5,-8 -6,-12 -6,-12 -10,-25 -14,-38 -9,-36 -10,-71 -4,-105 5,-24 13,-48 25,-70 10,-19 23,-37 38,-52 15,-16 33,-30 53,-41 17,-10 36,-18 55,-23 9,-3 18,-4 26,-5 31,-5 63,-3 93,4"
       id="path27918" />
    <path
       style="fill:none;fill-rule:nonzero;stroke:#383332;stroke-width:30.5394001"
       inkscape:connector-curvature="0"
       class="fil11 str6"
       d="m 2196.0047,6322.3 c -5,13 -13,24 -22,33 -17,19 -39,33 -65,41 -1,1 -2,1 -3,1 -26,6 -52,5 -75,-3 -27,-9 -50,-27 -67,-51 -6,-9 -12,-19 -15,-29 -1,-4 -3,-8 -4,-12 -6,-24 -6,-48 0,-70 7,-25 20,-46 39,-64 m 0,0 c 15,-14 34,-25 55,-30 7,-2 15,-3 23,-4 10,-1 20,-1 30,0 m 720,1093 c 5,-12 11,-24 18,-36 m 677,483 -14,14 c -85,85 -196,125 -307,122 -12,0 -23,-1 -35,-2 -58,-7 -115,-25 -167,-55 -2,-1 -4,-3 -7,-4 -27,-17 -54,-37 -77,-61 -18,-18 -35,-38 -49,-58 -7,-10 -14,-21 -20,-32 -63,-111 -71,-244 -25,-361 m 741,385 c -1,1 -2,3 -2,3"
       id="path27920" />
    <path
       style="fill:none;fill-rule:nonzero;stroke:#383332;stroke-width:30.5394001"
       inkscape:connector-curvature="0"
       class="fil11 str6"
       d="m 3511.0047,7501.3 c -15,46 -42,89 -79,126 -55,55 -124,87 -196,95 -38,5 -77,3 -115,-6 -33,-7 -65,-20 -95,-38 -1,-1 -3,-1 -4,-2 -22,-13 -43,-29 -62,-48 -6,-7 -13,-13 -18,-20 -27,-31 -46,-65 -59,-101 -42,-113 -20,-245 66,-339 3,-4 7,-8 11,-12 1,-1 2,-2 4,-3 m 151,-85 c 3,-1 6,-2 10,-3"
       id="path27922" />
    <path
       style="fill:none;fill-rule:nonzero;stroke:#383332;stroke-width:30.5394001"
       inkscape:connector-curvature="0"
       class="fil11 str6"
       d="m 3428.0047,7338.3 c 8,34 8,70 0,104 -5,26 -16,51 -31,75 -9,15 -20,29 -33,42 -19,19 -39,34 -62,44 -23,12 -47,19 -72,23 -53,8 -109,-2 -156,-31 -1,0 -2,-1 -3,-1 -4,-2 -8,-5 -12,-8 -11,-7 -22,-16 -31,-26 -26,-26 -44,-56 -55,-88 -9,-24 -13,-49 -13,-74 -1,-22 1,-43 7,-64 5,-21 13,-42 25,-61 9,-17 22,-33 36,-47 7,-7 13,-12 20,-18 25,-20 53,-34 82,-42"
       id="path27924" />
    <path
       style="fill:none;fill-rule:nonzero;stroke:#383332;stroke-width:30.5394001"
       inkscape:connector-curvature="0"
       class="fil11 str6"
       d="m 3330.0047,7378.3 c 1,13 0,27 -3,40 -5,25 -17,48 -36,68 l -2,2 c -19,19 -42,30 -67,35 -28,6 -57,2 -83,-10 -10,-5 -19,-11 -28,-18 -4,-2 -7,-5 -10,-8 -17,-17 -29,-38 -34,-60 -7,-25 -6,-51 2,-75 7,-20 17,-38 33,-54 6,-6 11,-10 18,-15 8,-6 17,-11 26,-15 m 1373,897 c -125,-73 -203,-207 -205,-352"
       id="path27926" />
    <path
       style="fill:none;fill-rule:nonzero;stroke:#383332;stroke-width:30.5394001"
       inkscape:connector-curvature="0"
       class="fil11 str6"
       d="m 5142.0047,7890.3 c -2,8 -3,15 -6,23 -31,115 -107,206 -204,259 -10,6 -21,11 -32,15 -53,24 -112,36 -171,35 l -7,0 c -32,-1 -65,-5 -98,-14 -25,-7 -49,-15 -71,-26 -11,-5 -22,-11 -32,-17 m 629,-337 0,7"
       id="path27930" />
    <path
       style="fill:none;fill-rule:nonzero;stroke:#383332;stroke-width:30.5394001"
       inkscape:connector-curvature="0"
       class="fil11 str6"
       d="m 5060.0047,7743.3 c 9,48 7,98 -6,148 -20,75 -64,137 -122,181 -30,23 -64,41 -100,52 -33,10 -69,16 -104,16 -1,0 -3,0 -4,-1 -26,-1 -52,-4 -78,-11 -9,-3 -19,-5 -27,-9 -37,-13 -71,-33 -100,-57 -93,-77 -140,-203 -113,-328 1,-5 3,-10 4,-15 1,-1 1,-3 1,-4 m 89,-151 c 2,-3 5,-5 7,-7"
       id="path27932" />
    <path
       style="fill:none;fill-rule:nonzero;stroke:#383332;stroke-width:30.5394001"
       inkscape:connector-curvature="0"
       class="fil11 str6"
       d="m 4905.0047,7643.3 c 24,26 42,56 52,90 8,25 12,53 11,80 0,17 -3,35 -8,52 -7,25 -17,48 -31,69 -14,21 -31,40 -51,55 -43,34 -97,53 -153,52 l -1,0 c -6,0 -12,0 -17,-1 -13,-1 -25,-3 -37,-7 -35,-9 -67,-26 -93,-49 -19,-16 -36,-35 -49,-57 -11,-19 -20,-38 -25,-59 -6,-21 -9,-43 -9,-66 0,-20 3,-39 8,-59 2,-9 5,-17 9,-25 12,-30 29,-57 50,-78"
       id="path27934" />
    <path
       style="fill:none;fill-rule:nonzero;stroke:#383332;stroke-width:30.5394001"
       inkscape:connector-curvature="0"
       class="fil11 str6"
       d="m 4841.0047,7726.3 c 8,11 14,23 18,35 8,24 9,51 3,77 -1,1 -1,2 -1,3 -7,25 -21,47 -40,63 -21,19 -49,31 -78,33 -11,1 -21,0 -32,-2 -4,0 -8,-1 -12,-3 -24,-6 -44,-18 -60,-35 -18,-18 -31,-41 -36,-66 -4,-20 -4,-42 2,-63 2,-7 4,-14 8,-21 m -2,1 c 4,-10 9,-18 15,-26 m 1307,-76 c -9,-11 -16,-23 -23,-34 m 754,-349 c 3,8 5,15 7,23 31,115 11,233 -47,327 -5,10 -12,19 -19,29 -34,47 -78,87 -131,117 -2,1 -4,3 -7,3 -28,16 -59,28 -92,37 -25,7 -50,11 -74,13 -13,2 -26,2 -38,2 -126,-1 -244,-59 -322,-155 m 700,-453 3,6"
       id="path27936" />
    <path
       style="fill:none;fill-rule:nonzero;stroke:#383332;stroke-width:30.5394001"
       inkscape:connector-curvature="0"
       class="fil11 str6"
       d="m 6520.0047,7177.3 c 32,36 57,81 70,131 20,75 13,151 -15,218 -15,35 -36,67 -61,95 -24,25 -51,47 -83,65 -1,1 -2,1 -3,2 -23,13 -47,23 -73,29 -9,3 -19,5 -29,7 -39,7 -77,7 -114,0 -120,-21 -223,-105 -261,-227 -2,-5 -3,-10 -5,-15 -1,-2 -1,-3 -1,-5 m 2,-174 c 0,-3 2,-7 3,-10"
       id="path27938" />
    <path
       style="fill:none;fill-rule:nonzero;stroke:#383332;stroke-width:30.5394001"
       inkscape:connector-curvature="0"
       class="fil11 str6"
       d="m 6338.0047,7168.3 c 34,10 64,28 90,52 20,18 37,39 49,64 9,15 15,32 20,49 7,25 9,51 8,75 -2,25 -7,50 -16,73 -20,50 -57,93 -106,120 -1,1 -2,1 -3,1 -4,3 -9,5 -14,7 -12,6 -24,10 -37,13 -36,9 -71,10 -105,4 -25,-4 -49,-13 -70,-25 -19,-10 -36,-23 -52,-38 -16,-15 -30,-33 -41,-53 -10,-17 -18,-35 -23,-55 -3,-9 -4,-18 -5,-27 -5,-31 -3,-63 4,-93"
       id="path27940" />
    <path
       style="fill:none;fill-rule:nonzero;stroke:#383332;stroke-width:30.5394001"
       inkscape:connector-curvature="0"
       class="fil11 str6"
       d="m 6323.0047,7273.3 c 12,5 23,12 33,21 19,17 34,39 41,65 1,1 1,2 1,3 7,26 5,52 -3,75 -9,27 -27,50 -50,67 -9,7 -19,12 -30,15 -4,2 -8,3 -12,4 -24,7 -48,6 -70,0 -25,-7 -47,-20 -64,-39 -14,-15 -25,-34 -31,-55 -2,-8 -3,-15 -4,-23 -1,-10 -1,-20 0,-30 m 1094,-719 c -13,-5 -25,-11 -36,-18 m 483,-678 14,14 c 85,84 125,196 122,306 0,11 -1,23 -2,34 -7,58 -25,116 -55,167 -1,2 -3,4 -4,7 -17,28 -37,54 -61,78 -18,18 -37,34 -58,49 -10,7 -21,14 -31,20 -110,63 -243,71 -359,25 m 382,-739 c 1,1 2,1 2,2"
       id="path27942" />
    <path
       style="fill:none;fill-rule:nonzero;stroke:#383332;stroke-width:30.5394001"
       inkscape:connector-curvature="0"
       class="fil11 str6"
       d="m 7502.0047,5956.3 c 47,15 90,42 127,79 55,55 87,125 95,196 5,38 3,77 -6,115 -7,34 -20,66 -38,96 -1,1 -1,2 -2,3 -13,22 -29,43 -48,62 -7,7 -14,13 -20,19 -31,26 -65,46 -101,58 -113,43 -245,20 -339,-66 -4,-3 -8,-7 -12,-11 l -3,-3 m -86,-151 c -1,-3 -2,-7 -2,-10"
       id="path27944" />
    <path
       style="fill:none;fill-rule:nonzero;stroke:#383332;stroke-width:30.5394001"
       inkscape:connector-curvature="0"
       class="fil11 str6"
       d="m 7340.0047,6040.3 c 34,-8 70,-8 104,-1 26,6 51,16 75,31 15,9 29,20 42,33 19,19 33,39 44,61 12,23 19,47 22,72 8,53 -2,109 -31,156 0,1 -1,1 -1,2 m -1,2 c -2,4 -4,7 -7,11 -8,12 -17,23 -27,32 -26,26 -56,44 -88,55 -24,9 -49,13 -74,13 -21,1 -43,-1 -64,-7 -22,-5 -42,-13 -62,-25 -17,-9 -33,-22 -47,-36 -6,-7 -12,-13 -18,-20 -20,-25 -34,-53 -42,-82"
       id="path27946" />
    <path
       style="fill:none;fill-rule:nonzero;stroke:#383332;stroke-width:30.5394001"
       inkscape:connector-curvature="0"
       class="fil11 str6"
       d="m 7380.0047,6138.3 c 13,-1 27,-1 40,2 25,5 49,17 68,37 l 2,2 c 19,19 30,43 35,67 6,28 2,57 -11,83 -4,10 -10,19 -17,28 l -9,9 c -17,17 -38,29 -60,35 -25,7 -51,6 -75,-2 -20,-6 -38,-17 -54,-33 -5,-5 -10,-11 -14,-17 -6,-9 -11,-18 -15,-27 m 582,-1170 c -12,1 -24,2 -37,2 m 76,-827 c 8,2 15,3 23,5 115,31 206,107 259,204 6,10 10,21 15,31 24,53 36,112 36,172 0,3 0,5 -1,7 -1,32 -5,65 -14,98 -7,25 -15,49 -26,71 -5,11 -11,22 -17,32 -64,109 -174,183 -298,202 m -38,-830 c 2,0 5,0 7,1"
       id="path27948" />
    <path
       style="fill:none;fill-rule:nonzero;stroke:#383332;stroke-width:30.5394001"
       inkscape:connector-curvature="0"
       class="fil11 str6"
       d="m 7744.0047,4408.3 c 48,-9 98,-8 148,6 75,20 137,64 181,122 23,31 41,65 52,102 10,33 15,67 15,103 l 0,4 c -1,26 -4,52 -11,78 -3,9 -5,18 -9,27 -13,37 -33,71 -57,99 -77,93 -203,140 -328,113 -5,-1 -10,-2 -15,-4 -2,-1 -3,-1 -5,-2 m -149,-88 c -3,-2 -5,-5 -7,-7"
       id="path27950" />
    <path
       style="fill:none;fill-rule:nonzero;stroke:#383332;stroke-width:30.5394001"
       inkscape:connector-curvature="0"
       class="fil11 str6"
       d="m 7645.0047,4563.3 c 26,-24 57,-42 90,-52 25,-8 53,-12 80,-11 18,1 35,3 53,8 25,7 48,17 69,31 21,14 41,32 55,51 34,42 53,96 51,152 l 0,2 c 0,5 0,10 -1,15 -1,13 -3,26 -7,39 -9,35 -26,67 -49,93 -16,19 -35,35 -56,48 -19,11 -38,20 -59,25 -21,7 -43,9 -66,9 -19,-1 -39,-3 -59,-8 -9,-2 -18,-5 -26,-9 -30,-12 -56,-29 -77,-50"
       id="path27952" />
    <path
       style="fill:none;fill-rule:nonzero;stroke:#383332;stroke-width:30.5394001"
       inkscape:connector-curvature="0"
       class="fil11 str6"
       d="m 7728.0047,4628.3 c 11,-8 23,-14 35,-18 24,-8 51,-9 77,-3 1,1 2,1 3,1 25,7 47,22 63,41 19,21 31,49 33,78 1,11 0,21 -2,33 l -3,12 c -7,24 -19,44 -35,60 -18,18 -40,30 -65,36 -20,4 -42,4 -64,-2 -7,-2 -14,-4 -21,-7 -9,-4 -18,-10 -26,-16 m -460,-2040 c 8,-3 16,-5 24,-7 115,-31 232,-10 327,47 10,6 20,13 29,19 47,35 87,78 117,131 1,3 3,5 4,7 15,29 28,59 37,92 7,25 11,50 12,75 2,13 2,25 2,38 -1,129 -63,250 -164,328 -12,9 -24,18 -38,26 m -405,-732 c 1,-1 3,-2 5,-3"
       id="path27954" />
    <path
       style="fill:none;fill-rule:nonzero;stroke:#383332;stroke-width:30.5394001"
       inkscape:connector-curvature="0"
       class="fil11 str6"
       d="m 7178.0047,2948.3 c 37,-32 81,-56 131,-69 75,-20 151,-13 217,15 35,15 68,36 96,62 25,23 47,51 65,82 1,1 1,2 1,3 13,23 23,47 30,74 3,9 4,18 6,27 7,39 7,77 1,115 -20,119 -106,223 -228,262 -5,2 -10,4 -15,5 -1,1 -3,1 -4,1 m -172,-3 c -3,-1 -7,-2 -11,-4"
       id="path27956" />
    <path
       style="fill:none;fill-rule:nonzero;stroke:#383332;stroke-width:30.5394001"
       inkscape:connector-curvature="0"
       class="fil11 str6"
       d="m 7169.0047,3130.3 c 10,-33 28,-64 52,-90 18,-20 39,-36 64,-49 16,-8 32,-15 50,-19 25,-7 51,-9 76,-8 26,1 50,7 73,16 50,20 93,57 120,106 1,0 1,1 1,2 2,5 5,9 7,14 5,12 9,24 13,37 9,35 10,71 4,105 -5,25 -14,49 -26,70 -10,19 -23,36 -38,52 -16,16 -33,30 -53,41 -17,10 -36,18 -55,23 -9,2 -17,4 -25,5 -32,5 -63,3 -93,-4"
       id="path27958" />
    <path
       style="fill:none;fill-rule:nonzero;stroke:#383332;stroke-width:30.5394001"
       inkscape:connector-curvature="0"
       class="fil11 str6"
       d="m 7274.0047,3145.3 c 5,-12 13,-23 21,-33 17,-19 39,-34 66,-41 1,-1 2,-1 3,-1 26,-6 52,-5 75,3 27,9 50,26 67,50 6,9 11,19 15,30 2,4 3,8 4,12 7,24 6,48 0,70 -7,24 -20,46 -39,63 -15,14 -34,25 -55,30 -7,2 -15,4 -23,4 -10,1 -20,1 -30,0 m -718,-1097 c -6,14 -12,28 -20,41 m -678,-481 c 5,-5 10,-10 15,-16 85,-84 195,-125 306,-122 12,0 23,1 35,2 58,6 115,24 167,55 3,1 5,3 7,4 28,17 54,37 78,61 19,19 35,38 49,59 7,10 13,20 19,31 63,111 71,246 24,364 m -739,-388 c 1,-1 1,-1 1,-2"
       id="path27960" />
    <path
       style="fill:none;fill-rule:nonzero;stroke:#383332;stroke-width:30.5394001"
       inkscape:connector-curvature="0"
       class="fil11 str6"
       d="m 5958.0047,1966.3 c 15,-46 42,-89 79,-127 55,-55 124,-87 196,-94 38,-6 77,-3 115,5 34,7 66,20 96,38 1,0 2,1 3,2 22,13 43,30 62,49 6,7 13,13 18,21 26,30 45,64 58,100 43,113 21,245 -66,339 -3,4 -7,8 -11,12 -1,1 -3,3 -4,3 m -149,84 c -3,1 -7,2 -10,2"
       id="path27962" />
    <path
       style="fill:none;fill-rule:nonzero;stroke:#383332;stroke-width:30.5394001"
       inkscape:connector-curvature="0"
       class="fil11 str6"
       d="m 6398.0047,1875.3 c 4,2 8,4 11,7 11,7 21,16 31,26 26,26 45,56 56,89 8,24 13,49 13,73 1,21 -2,43 -7,64 -5,21 -14,42 -25,61 -9,17 -22,33 -37,48 -6,6 -13,12 -19,17 -25,20 -53,34 -83,43 m -296,-175 c -8,-34 -8,-70 -1,-104 5,-26 16,-52 31,-75 9,-15 20,-29 33,-41 19,-19 40,-33 62,-44 23,-12 47,-19 72,-22 53,-8 109,2 156,32 1,0 2,1 3,1"
       id="path27964" />
    <path
       style="fill:none;fill-rule:nonzero;stroke:#383332;stroke-width:30.5394001"
       inkscape:connector-curvature="0"
       class="fil11 str6"
       d="m 6139.0047,2089.3 c -1,-13 0,-27 3,-40 5,-25 17,-48 36,-68 l 2,-2 m 0,0 c 19,-18 43,-30 67,-34 27,-6 57,-2 83,10 10,5 20,11 28,19 3,2 6,5 9,8 17,17 29,38 34,60 7,25 6,51 -2,75 -6,20 -17,39 -33,54 -6,5 -11,10 -17,14 -8,6 -17,11 -26,14 m -1169,-583 c 1,12 2,24 2,37 m -828,-78 c 1,-7 3,-14 5,-21 31,-116 107,-207 205,-259 10,-6 20,-11 31,-15 53,-24 112,-36 172,-35 l 7,0 c 33,1 66,5 98,14 25,7 49,15 71,26 11,5 22,11 32,17 109,64 183,175 202,298 m -831,38 0,-3"
       id="path27966" />
    <path
       style="fill:none;fill-rule:nonzero;stroke:#383332;stroke-width:30.5394001"
       inkscape:connector-curvature="0"
       class="fil11 str6"
       d="m 4409.0047,1724.3 c -9,-48 -7,-98 6,-148 20,-75 64,-137 122,-181 31,-23 65,-40 102,-52 33,-10 68,-15 103,-15 1,0 3,0 4,1 26,0 52,4 78,11 9,3 19,5 27,9 37,13 71,33 100,57 93,78 140,203 113,327 -1,5 -3,10 -4,16 -1,2 -1,3 -2,5 m -87,148 c -3,3 -5,5 -8,7"
       id="path27968" />
    <path
       style="fill:none;fill-rule:nonzero;stroke:#383332;stroke-width:30.5394001"
       inkscape:connector-curvature="0"
       class="fil11 str6"
       d="m 4564.0047,1824.3 c -24,-25 -42,-57 -52,-90 -8,-25 -12,-53 -11,-80 0,-17 3,-35 8,-53 7,-25 17,-48 31,-69 14,-22 31,-40 51,-55 43,-34 96,-53 152,-52 l 2,0 c 6,0 11,0 16,1 13,1 25,4 38,7 35,9 67,27 93,49 19,17 36,36 48,57 12,18 20,38 26,58 6,21 9,44 9,66 0,20 -3,40 -8,60 -2,9 -5,17 -9,25 -11,30 -29,56 -50,78"
       id="path27970" />
    <path
       style="fill:none;fill-rule:nonzero;stroke:#383332;stroke-width:30.5394001"
       inkscape:connector-curvature="0"
       class="fil11 str6"
       d="m 4629.0047,1741.3 c -8,-11 -14,-23 -18,-36 -8,-24 -9,-51 -3,-77 1,-1 1,-2 1,-3 7,-25 21,-47 40,-64 22,-19 49,-31 78,-33 11,-1 22,0 32,2 4,1 8,1 13,3 24,7 44,19 60,35 18,18 31,41 36,65 4,20 4,42 -2,64 -2,7 -5,14 -7,21 -5,9 -10,18 -16,26 m -1309,73 c 9,12 18,25 26,38 m -755,350 c -3,-8 -5,-16 -7,-24 -31,-115 -11,-232 47,-326 5,-10 12,-20 19,-29 34,-48 79,-88 131,-117 2,-1 4,-3 7,-3 28,-16 59,-28 92,-37 25,-7 50,-11 75,-13 13,-1 25,-2 37,-2 126,1 244,59 322,155 m -700,452 c -1,-2 -2,-3 -3,-5"
       id="path27972" />
    <path
       style="fill:none;fill-rule:nonzero;stroke:#383332;stroke-width:30.5394001"
       inkscape:connector-curvature="0"
       class="fil11 str6"
       d="m 2949.0047,2290.3 c -32,-37 -56,-81 -70,-131 -20,-75 -13,-151 16,-217 15,-35 36,-68 61,-96 24,-25 51,-47 82,-65 1,-1 3,-1 4,-2 23,-12 47,-22 73,-29 9,-3 19,-5 28,-6 39,-7 78,-7 115,0 120,20 223,105 262,227 2,5 3,10 5,15 1,1 1,2 1,4 m -3,173 -3,10"
       id="path27974" />
    <path
       style="fill:none;fill-rule:nonzero;stroke:#383332;stroke-width:30.5394001"
       inkscape:connector-curvature="0"
       class="fil11 str6"
       d="m 3132.0047,2299.3 c -33,-10 -64,-28 -90,-52 -20,-18 -37,-40 -49,-64 -9,-15 -15,-32 -20,-49 -7,-25 -9,-51 -8,-75 2,-25 7,-51 16,-73 20,-51 57,-94 107,-121 1,0 1,-1 2,-1 5,-3 10,-5 15,-7 11,-6 23,-9 35,-13 36,-10 71,-10 105,-4 25,4 48,13 70,25 19,10 36,23 52,38 16,15 30,33 41,53 9,17 17,36 22,56 3,9 4,18 5,27 5,31 3,63 -4,92"
       id="path27976" />
    <path
       style="fill:none;fill-rule:nonzero;stroke:#383332;stroke-width:30.5394001"
       inkscape:connector-curvature="0"
       class="fil11 str6"
       d="m 3146.0047,2194.3 c -12,-5 -24,-13 -34,-21 -19,-17 -33,-39 -40,-65 l 0,-3 c -7,-26 -5,-52 3,-75 9,-27 27,-50 51,-67 8,-7 18,-12 29,-15 4,-1 8,-3 12,-4 24,-7 48,-6 70,0 24,7 46,20 63,39 14,15 25,34 31,55 2,7 3,15 4,22 1,10 1,21 -1,31 m -1093,720 c 13,5 25,11 37,18 m -484,676 -14,-14 c -85,-84 -125,-196 -122,-307 0,-11 1,-23 2,-34 6,-58 24,-115 55,-167 1,-3 3,-5 4,-7 17,-28 37,-54 61,-78 19,-18 38,-34 59,-49 10,-7 21,-13 31,-19 111,-63 244,-71 361,-25 m -384,740 c -1,-1 -3,-2 -4,-3"
       id="path27978" />
    <path
       style="fill:none;fill-rule:nonzero;stroke:#383332;stroke-width:30.5394001"
       inkscape:connector-curvature="0"
       class="fil11 str6"
       d="m 1967.0047,3510.3 c -46,-15 -89,-42 -126,-79 -55,-55 -87,-124 -95,-196 -5,-38 -4,-77 5,-114 7,-33 20,-66 39,-97 0,-1 1,-3 2,-3 13,-22 30,-43 49,-62 7,-7 14,-13 21,-19 30,-26 64,-45 99,-58 114,-42 246,-20 340,66 4,3 8,6 12,10 l 4,4 m 83,151 3,10"
       id="path27980" />
    <path
       style="fill:none;fill-rule:nonzero;stroke:#383332;stroke-width:30.5394001"
       inkscape:connector-curvature="0"
       class="fil11 str6"
       d="m 2129.0047,3426.3 c -34,8 -69,8 -103,1 -26,-6 -52,-15 -75,-31 -15,-9 -29,-20 -42,-33 -18,-19 -33,-39 -44,-61 -12,-23 -19,-47 -23,-72 -8,-53 3,-109 32,-157 0,-1 1,-2 1,-3 3,-4 5,-9 9,-13 7,-10 15,-20 25,-30 26,-26 57,-45 89,-56 24,-8 48,-13 73,-13 21,-1 43,2 64,7 22,5 42,14 62,25 17,10 33,22 47,37 6,6 12,13 18,20 20,25 35,53 43,82"
       id="path27982" />
    <path
       style="fill:none;fill-rule:nonzero;stroke:#383332;stroke-width:30.5394001"
       inkscape:connector-curvature="0"
       class="fil11 str6"
       d="m 2090.0047,3329.3 c -13,1 -26,1 -39,-3 -25,-5 -49,-17 -69,-36 l -2,-2 c -19,-19 -30,-43 -35,-67 -6,-28 -2,-57 10,-83 5,-10 11,-19 19,-29 2,-3 5,-6 8,-8 17,-17 38,-29 60,-35 25,-6 51,-6 75,2 20,6 38,17 54,33 5,5 10,11 15,17 6,9 11,18 14,27"
       id="path27984" />
  </g>
</svg>
