<?xml version="1.0" encoding="UTF-8" standalone="no"?>
<svg
   xmlns:dc="http://purl.org/dc/elements/1.1/"
   xmlns:cc="http://creativecommons.org/ns#"
   xmlns:rdf="http://www.w3.org/1999/02/22-rdf-syntax-ns#"
   xmlns:svg="http://www.w3.org/2000/svg"
   xmlns="http://www.w3.org/2000/svg"
   xmlns:sodipodi="http://sodipodi.sourceforge.net/DTD/sodipodi-0.dtd"
   xmlns:inkscape="http://www.inkscape.org/namespaces/inkscape"
   id="_b_2_middle-black_shade"
   width="908.69281"
   height="908.87585"
   viewBox="0 0 9465.3042 9467.3975"
   version="1.1"
   inkscape:version="0.91 r13725"
   sodipodi:docname="_b_2_middle-black_shade.svg"
   style="clip-rule:evenodd;fill-rule:evenodd;image-rendering:optimizeQuality;shape-rendering:geometricPrecision;text-rendering:geometricPrecision">
  <metadata
     id="metadata710">
    <rdf:RDF>
      <cc:Work
         rdf:about="">
        <dc:format>image/svg+xml</dc:format>
        <dc:type
           rdf:resource="http://purl.org/dc/dcmitype/StillImage" />
        <dc:title />
      </cc:Work>
    </rdf:RDF>
  </metadata>
  <sodipodi:namedview
     pagecolor="#ffffff"
     bordercolor="#666666"
     borderopacity="1"
     objecttolerance="10"
     gridtolerance="10"
     guidetolerance="10"
     inkscape:pageopacity="0"
     inkscape:pageshadow="2"
     inkscape:window-width="1280"
     inkscape:window-height="675"
     id="namedview708"
     showgrid="false"
     fit-margin-top="0"
     fit-margin-left="0"
     fit-margin-right="0"
     fit-margin-bottom="0"
     inkscape:zoom="0.73784584"
     inkscape:cx="384.65246"
     inkscape:cy="468.76863"
     inkscape:window-x="4"
     inkscape:window-y="7"
     inkscape:window-maximized="0"
     inkscape:current-layer="_414782064" />
  <defs
     id="defs26580">
    <style
       id="style26900"><![CDATA[
    @font-face { font-family:"Raleway";src:url("#FontID1") format(svg)}
    @font-face { font-family:"Arial";src:url("#FontID0") format(svg)}
    .str12 {stroke:#FEFEFE;stroke-width:7.39764}
    .str10 {stroke:#383332;stroke-width:12.9173}
    .str0 {stroke:#B6B6BB;stroke-width:13.8898}
    .str4 {stroke:#383332;stroke-width:15.8071}
    .str14 {stroke:#383332;stroke-width:17.2244}
    .str3 {stroke:#383332;stroke-width:17.437}
    .str11 {stroke:#383332;stroke-width:18.6457}
    .str1 {stroke:#383332;stroke-width:19.7756}
    .str8 {stroke:#383332;stroke-width:21.5315}
    .str7 {stroke:#383332;stroke-width:25.8386}
    .str6 {stroke:#383332;stroke-width:30.5394}
    .str9 {stroke:#383332;stroke-width:34.4488}
    .str13 {stroke:#383332;stroke-width:43.063}
    .str5 {stroke:#383332;stroke-width:64.5945}
    .str2 {stroke:#383332;stroke-width:91.6811}
    .fil11 {fill:none;fill-rule:nonzero}
    .fil6 {fill:#383332}
    .fil4 {fill:#E7992F}
    .fil3 {fill:#949595}
    .fil5 {fill:#D5D5D5}
    .fil9 {fill:#383332;fill-rule:nonzero}
    .fil1 {fill:#575658;fill-rule:nonzero}
    .fil8 {fill:#E7A56F;fill-rule:nonzero}
    .fil7 {fill:#FCD967;fill-rule:nonzero}
    .fil10 {fill:#FDDF84;fill-rule:nonzero}
    .fil2 {fill:#FEFEFE;fill-rule:nonzero}
    .fil0 {fill:url(#id0);fill-rule:nonzero}
    .fnt0 {font-weight:bold;font-size:138.886;font-family:'Arial'}
    .fnt1 {font-weight:bold;font-size:239.988;font-family:'Arial'}
    .fnt4 {font-weight:bold;font-size:239.988;font-family:'Arial'}
    .fnt3 {font-weight:normal;font-size:396.744;font-family:'Raleway'}
    .fnt2 {font-weight:normal;font-size:534.323;font-family:'Raleway'}
   ]]></style>
  </defs>
  <g
     id="_414782064"
     style="fill-rule:nonzero"
     transform="translate(-1681.9547,-678.69896)">
    <g
       id="g4216">
      <path
         sodipodi:nodetypes="ccsccc"
         style="fill:#383332;fill-rule:nonzero"
         inkscape:connector-curvature="0"
         class="fil9"
         d="m 8910.9948,5413.0011 -610,19 c -11,1 -19,-8 -20,-18 -1,-10 8,-19 19,-20 l 1,0 z"
         id="path27120" />
      <path
         sodipodi:nodetypes="ccccccccccsccc"
         style="fill:#383332;fill-rule:nonzero"
         inkscape:connector-curvature="0"
         class="fil9"
         d="m 8805.9948,5254.0011 -508,106 c -10,2 -20,-4 -22,-15 -2,-10 4,-20 15,-22 l 2,0 514,-68 z m 0,316 -514,-68 -2,0 c -10,-2 -17,-12 -15,-22 2,-10 12,-17 23,-15 l 507,105 z"
         id="path27134" />
      <path
         sodipodi:nodetypes="cccccccccccc"
         style="fill:#383332;fill-rule:nonzero"
         inkscape:connector-curvature="0"
         class="fil9"
         d="m 8625.9948,5150.0011 -13,5 c -1,0 -1,-1 -1,-1 l 15,-4 z m 0,524 -355,-103 c -1,0 -1,-1 -2,-1 -9,-4 -14,-15 -10,-25 4,-9 15,-14 25,-10 l 342,140 z"
         id="path27148" />
      <path
         sodipodi:nodetypes="cccccccc"
         style="fill:#383332;fill-rule:nonzero"
         inkscape:connector-curvature="0"
         class="fil9"
         d="m 8612.9948,5155.0011 -329,134 c -10,4 -21,-1 -25,-10 -4,-10 1,-21 10,-25 1,-1 1,-1 2,-1 l 340,-99 c 0,1 1,1 1,1 z"
         id="path27150" />
      <path
         sodipodi:nodetypes="ccscssccccssscccccccccccccccccccc"
         style="fill:#383332;fill-rule:nonzero"
         inkscape:connector-curvature="0"
         class="fil9"
         d="m 8576.9948,4166.0011 -519,321 c -3,2 -7,3 -10,3 -6,0 -13,-3 -16,-9 -5,-8 -4,-17 2,-23 1,-1 3,-2 4,-3 l 1,-1 z m 0,2493 -538,-288 c -2,-1 -3,-2 -4,-3 -6,-6 -7,-15 -3,-23 3,-6 10,-10 17,-10 3,0 6,1 9,2 1,0 1,1 1,1 l 519,322 z m -12,-189 -493,-163 c -2,-1 -4,-2 -5,-3 -7,-5 -10,-13 -7,-21 3,-10 14,-15 24,-12 l 1,0 479,199 z m 0,-2116 -479,199 c -1,0 -1,0 -1,1 -10,3 -21,-2 -24,-13 -3,-8 0,-16 7,-21 2,-1 3,-2 5,-3 l 493,-163 z"
         id="path27152" />
      <path
         sodipodi:nodetypes="ccccccccccccscccccccscc"
         style="fill:#383332;fill-rule:nonzero"
         inkscape:connector-curvature="0"
         class="fil9"
         d="m 8460.9948,6289.0011 -14,-2 c -1,-1 -1,-1 -1,-2 z m 0,-1754 -359,88 c -1,0 -1,0 -2,1 -10,1 -20,-6 -21,-17 -1,-10 6,-20 16,-21 z m -10,559 -193,128 c -9,5 -21,3 -27,-6 -6,-9 -3,-21 5,-27 1,-1 2,-1 3,-2 l 212,-94 z m 0,636 -212,-94 c -1,0 -2,-1 -3,-2 -8,-5 -11,-18 -5,-27 6,-9 18,-11 27,-5 z"
         id="path27160" />
      <path
         sodipodi:nodetypes="cccccccc"
         style="fill:#383332;fill-rule:nonzero"
         inkscape:connector-curvature="0"
         class="fil9"
         d="m 8445.9948,6285.0011 c 0,1 0,1 1,2 l -351,-48 c -11,-1 -18,-11 -17,-21 2,-10 11,-18 21,-16 l 2,0 344,84 z"
         id="path27162" />
      <path
         sodipodi:nodetypes="ccscscccccccsccc"
         style="fill:#383332;fill-rule:nonzero"
         inkscape:connector-curvature="0"
         class="fil9"
         d="m 8406.9948,4081.0011 -387,345 c -4,3 -8,5 -13,5 -5,0 -11,-2 -15,-6 -7,-8 -6,-20 1,-27 l 1,-1 412,-316 z m 0,2662 -411,-315 -1,-1 c -8,-7 -8,-19 -2,-27 4,-4 9,-7 14,-7 5,0 9,2 13,5 l 386,345 z"
         id="path27170" />
      <path
         sodipodi:nodetypes="cccsccccccccc"
         style="fill:#383332;fill-rule:nonzero"
         inkscape:connector-curvature="0"
         class="fil9"
         d="m 8337.9948,6153.0011 -232,14 c -10,0 -19,-8 -20,-18 -1,-11 7,-20 18,-20 l 3,0 z m -1,-1482 -231,24 -3,0 c -11,-1 -19,-10 -18,-21 1,-10 10,-18 20,-18 l 232,14 z"
         id="path27180" />
      <path
         sodipodi:nodetypes="cccccccccccsc"
         style="fill:#383332;fill-rule:nonzero"
         inkscape:connector-curvature="0"
         class="fil9"
         d="m 8294.9948,5076.0011 -75,84 c -7,8 -20,9 -27,2 -8,-7 -9,-19 -2,-27 2,-2 3,-3 5,-4 l 99,-54 z m -75,588 75,84 -99,-54 c -2,-1 -3,-3 -5,-4 -7,-8 -6,-20 2,-27 8,-7 20,-7 27,1 z"
         id="path27184" />
      <path
         sodipodi:nodetypes="ccsccccccccccc"
         style="fill:#383332;fill-rule:nonzero"
         inkscape:connector-curvature="0"
         class="fil9"
         d="m 8210.9948,6061.0011 -107,35 c -10,3 -21,-2 -24,-12 -3,-10 3,-21 12,-25 2,-1 4,-1 7,-1 l 113,3 z m 0,-1297 -112,3 c -2,0 -4,0 -6,-1 -10,-3 -16,-14 -13,-25 3,-10 14,-16 25,-12 l 107,35 z"
         id="path27194" />
      <path
         sodipodi:nodetypes="ccccccccscc"
         style="fill:#383332;fill-rule:nonzero"
         inkscape:connector-curvature="0"
         class="fil9"
         d="m 8197.9948,4080.0011 -9,12 c -1,0 -1,0 -2,-1 z m -226,2372 226,291 -255,-266 c -1,-1 -1,-1 -1,-2 -7,-8 -5,-20 3,-27 8,-7 20,-5 27,3 z"
         id="path27196" />
      <path
         sodipodi:nodetypes="ccsccccc"
         style="fill:#383332;fill-rule:nonzero"
         inkscape:connector-curvature="0"
         class="fil9"
         d="m 8188.9948,4092.0011 -217,280 c -7,8 -19,10 -27,3 -8,-7 -10,-19 -3,-27 0,-1 1,-1 2,-2 l 245,-256 c 1,1 1,1 2,1 z"
         id="path27200" />
      <path
         sodipodi:nodetypes="ccccccccccccccc"
         style="fill:#383332;fill-rule:nonzero"
         inkscape:connector-curvature="0"
         class="fil9"
         d="m 8178.9948,4941.0011 c -32,55 -87,108 -159,153 -33,-15 -68,-26 -106,-31 41,-31 86,-60 134,-88 -55,0 -109,-3 -159,-9 30,-23 55,-49 76,-79 86,3 161,21 215,53 z m -160,790 c 72,45 128,99 159,153 -54,32 -129,50 -215,53 -21,-30 -46,-56 -76,-79 51,-5 105,-9 160,-9 -47,-28 -92,-57 -134,-88 38,-4 73,-15 106,-30 z"
         id="path27204" />
      <path
         sodipodi:nodetypes="sccccscccccc"
         style="fill:#383332;fill-rule:nonzero"
         inkscape:connector-curvature="0"
         class="fil9"
         d="m 7915.9948,6497.0011 104,208 -137,-188 c 0,-1 -1,-2 -2,-3 -5,-9 -1,-21 9,-26 9,-5 21,-1 26,9 z m 103,-2378 -103,208 c -5,10 -16,13 -26,9 -9,-5 -13,-16 -9,-26 1,-1 1,-2 2,-3 z"
         id="path27224" />
      <path
         sodipodi:nodetypes="ccccccccccccccccccccccccccc"
         style="fill:#383332;fill-rule:nonzero"
         inkscape:connector-curvature="0"
         class="fil9"
         d="m 7715.9948,4917.0011 c 87,-23 172,-33 248,-30 -20,30 -46,57 -76,79 -74,-8 -143,-21 -206,-39 11,-3 22,-7 33,-10 z m 248,1021 c -76,3 -161,-7 -248,-30 -12,-3 -23,-7 -34,-10 63,-18 132,-31 206,-39 30,23 55,49 76,79 z m 67,-958 c -47,-8 -100,-10 -157,-4 5,-3 9,-7 14,-9 51,5 104,9 159,9 -47,28 -92,57 -134,88 -5,0 -11,-1 -16,-2 51,-23 97,-51 133,-81 z m -157,869 c 57,5 110,3 157,-4 -37,-30 -83,-58 -134,-82 5,-1 12,-1 17,-2 41,31 86,60 134,88 -55,1 -109,4 -160,9 -4,-3 -9,-7 -13,-9 z"
         id="path27236" />
      <path
         sodipodi:nodetypes="ccccccccccc"
         style="fill:#383332;fill-rule:nonzero"
         inkscape:connector-curvature="0"
         class="fil9"
         d="m 7913.9948,5063.0011 c 38,5 73,15 106,31 -65,41 -143,75 -230,98 l -35,9 c 45,-47 99,-93 159,-137 z m 105,668 c -33,15 -68,26 -106,30 -60,-44 -114,-90 -159,-137 l 35,9 c 87,23 165,57 230,98 z"
         id="path27238" />
      <path
         sodipodi:nodetypes="ccccsccccccccccccscccccccccccccccccccccccccccccccccccscccc"
         style="fill:#383332;fill-rule:nonzero"
         inkscape:connector-curvature="0"
         class="fil9"
         d="m 7896.9948,5062.0011 c 6,0 11,1 16,2 -61,44 -114,91 -159,137 -15,3 -29,7 -44,9 -20,-7 -42,-10 -65,-10 l -4,0 c -3,-15 -7,-28 -13,-41 10,-10 21,-19 33,-28 35,-5 70,-12 105,-21 46,-13 90,-29 131,-47 z m 17,699 c -5,1 -12,1 -17,2 -40,-19 -84,-35 -130,-47 -35,-9 -71,-16 -105,-21 -12,-9 -23,-18 -34,-29 7,-15 12,-33 14,-50 l 4,0 c 15,0 28,-1 42,-4 22,3 44,7 67,13 45,47 99,93 159,137 z m -26,-794 c -4,3 -9,7 -14,9 -45,4 -91,12 -136,25 -35,9 -69,21 -101,34 -15,-1 -30,-4 -45,-8 -1,-17 -6,-34 -13,-51 1,-1 2,-1 3,-1 13,-7 24,-15 35,-25 21,-8 42,-16 64,-22 l 1,0 c 63,18 132,31 206,39 z m -14,882 c 4,3 9,6 13,9 -74,8 -143,21 -206,39 -15,-4 -29,-9 -43,-15 -15,-16 -31,-30 -51,-41 -1,-1 -2,-1 -4,-2 5,-14 8,-28 9,-42 15,-4 30,-7 45,-8 32,13 66,25 100,34 46,13 92,21 136,25 z m -21,683 23,110 -59,-96 -3,-6 c -2,-11 5,-21 15,-23 11,-2 21,5 23,15 z m 22,-2350 -23,110 c -3,10 -13,17 -23,15 -10,-2 -17,-13 -15,-23 1,-2 1,-4 3,-6 l 59,-96 z"
         id="path27242" />
      <path
         sodipodi:nodetypes="ccccccccccccccccccccccccc"
         style="fill:#383332;fill-rule:nonzero"
         inkscape:connector-curvature="0"
         class="fil9"
         d="m 7432.9948,6991.0011 316,412 -345,-387 c -7,-8 -7,-20 2,-27 8,-7 20,-7 27,2 l 1,1 z m 316,203 -11,-9 0,-2 11,10 z m -2,-3563 -266,255 c -1,1 -1,1 -2,1 -8,7 -20,5 -27,-3 -6,-9 -5,-20 3,-27 l 291,-226 z m 0,-208 -315,411 c 0,1 -1,1 -1,1 -7,8 -19,9 -27,1 -8,-7 -9,-19 -1,-27 z"
         id="path27246" />
      <path
         sodipodi:nodetypes="cccccccc"
         style="fill:#383332;fill-rule:nonzero"
         inkscape:connector-curvature="0"
         class="fil9"
         d="m 7481.9948,6939.0011 256,245 0,2 -280,-218 c -9,-7 -10,-19 -3,-27 6,-8 18,-9 27,-3 1,1 1,1 2,1 z"
         id="path27248" />
      <path
         sodipodi:nodetypes="ccccccccccccccccccccccccccccc"
         style="fill:#383332;fill-rule:nonzero"
         inkscape:connector-curvature="0"
         class="fil9"
         d="m 7709.9948,7015.0011 -207,-104 c -9,-5 -13,-16 -9,-26 5,-9 16,-13 26,-9 1,1 2,1 3,2 l 188,136 z m -1,-3205 -188,136 c -1,1 -2,1 -3,2 -9,5 -21,1 -25,-9 -5,-9 -1,-21 9,-26 z m -2,2892 c -63,1 -137,-21 -213,-61 -3,-36 -12,-72 -26,-107 47,21 95,45 143,72 -27,-48 -51,-97 -72,-143 35,15 71,24 107,27 40,76 62,149 62,213 z m -1,-2579 c 1,63 -21,137 -61,213 -36,3 -72,12 -106,26 21,-47 45,-95 72,-143 -48,27 -96,51 -143,72 15,-34 24,-70 27,-107 76,-40 149,-62 212,-61 z"
         id="path27252" />
      <path
         sodipodi:nodetypes="ccccccccccccccccsccccccccccccccccccccccccccccccccccccc"
         style="fill:#383332;fill-rule:nonzero"
         inkscape:connector-curvature="0"
         class="fil9"
         d="m 7663.9948,3252.0011 -289,538 c -5,10 -16,13 -26,8 -9,-5 -13,-16 -8,-26 l 0,-1 322,-519 z m -289,3783 289,537 -322,-519 c -5,-9 -3,-21 7,-26 9,-6 21,-3 26,6 l 1,1 z m 272,-164 -110,-23 c -11,-2 -17,-13 -15,-23 2,-10 12,-17 23,-15 2,1 4,2 7,3 z m -1,-2918 -96,59 -6,3 c -10,2 -21,-4 -23,-15 -2,-10 4,-21 15,-23 l 110,-23 z m 15,1177 c -12,9 -23,18 -33,28 -4,-8 -8,-16 -13,-23 15,-1 31,-3 47,-5 z m -33,536 c 11,11 22,20 34,29 -16,-2 -32,-4 -48,-5 5,-8 10,-16 14,-24 z m 10,125 c -15,1 -30,4 -45,8 1,-10 1,-19 0,-28 14,7 29,14 45,20 z m -45,-764 c 15,4 30,7 45,8 -15,7 -30,13 -44,20 l 0,-28 z m -70,-658 c 33,-46 58,-93 75,-138 -45,17 -92,42 -138,75 3,-5 5,-10 7,-16 47,-20 95,-45 143,-72 -27,48 -51,96 -72,143 l 0,1 -15,6 z"
         id="path27256" />
      <path
         sodipodi:nodetypes="cccccccccccscccccccsc"
         style="fill:#383332;fill-rule:nonzero"
         inkscape:connector-curvature="0"
         class="fil9"
         d="m 7537.9948,6462.0011 c 21,47 45,95 72,143 -48,-27 -96,-51 -143,-72 l -1,0 c -2,-5 -4,-10 -7,-15 47,33 93,59 138,75 -16,-45 -42,-92 -75,-138 5,2 10,5 15,7 z m 0,-2100 c 35,-15 70,-23 106,-26 -35,68 -86,136 -149,199 -9,9 -17,17 -26,25 16,-63 39,-130 69,-198 l 0,-1 z m 107,2127 c -36,-3 -72,-12 -107,-27 -30,-68 -53,-134 -69,-198 9,8 17,16 26,25 64,64 114,132 150,200 z"
         id="path27260" />
      <path
         sodipodi:nodetypes="cccccccccccccccccccccc"
         style="fill:#383332;fill-rule:nonzero"
         inkscape:connector-curvature="0"
         class="fil9"
         d="m 7522.9948,4369.0011 c 5,-2 10,-5 15,-6 -30,68 -53,134 -69,198 -12,11 -23,21 -35,30 -21,4 -41,12 -60,23 -1,1 -3,1 -3,2 -10,-11 -21,-21 -32,-29 4,-15 9,-29 15,-43 28,-21 54,-44 80,-70 33,-34 64,-69 89,-106 z m 15,2093 c -5,-2 -10,-4 -15,-7 -26,-36 -55,-72 -89,-105 -26,-25 -53,-49 -80,-70 -6,-14 -12,-29 -15,-43 14,-10 27,-22 38,-36 1,1 2,1 3,2 13,7 25,13 38,17 18,14 35,28 52,44 16,63 39,130 69,198 z"
         id="path27262" />
      <path
         sodipodi:nodetypes="ccccccccscccc"
         style="fill:#383332;fill-rule:nonzero"
         inkscape:connector-curvature="0"
         class="fil9"
         d="m 7312.9948,7068.0011 163,493 -199,-479 0,-2 c -4,-10 2,-21 12,-24 10,-4 21,2 24,12 z m 162,-3804 -163,493 c -3,10 -14,15 -24,12 -10,-3 -15,-14 -12,-24 0,-1 1,-1 1,-1 l 199,-479 z"
         id="path27272" />
      <path
         sodipodi:nodetypes="ccccccccccccc"
         style="fill:#383332;fill-rule:nonzero"
         inkscape:connector-curvature="0"
         class="fil9"
         d="m 7493.9948,4184.0011 c -3,36 -12,72 -27,107 -68,30 -134,54 -198,69 8,-9 16,-17 25,-25 64,-64 133,-115 200,-150 z m -27,2350 c 15,34 24,71 26,107 -67,-36 -136,-86 -199,-150 l -25,-25 c 63,15 130,39 197,69 l 1,0 z"
         id="path27274" />
      <path
         sodipodi:nodetypes="cccccccccccccccccccccc"
         style="fill:#383332;fill-rule:nonzero"
         inkscape:connector-curvature="0"
         class="fil9"
         d="m 7466.9948,4291.0011 c -2,5 -4,10 -7,16 -36,25 -72,55 -105,89 -26,26 -49,53 -70,80 -14,7 -28,12 -43,15 -10,-14 -22,-27 -36,-38 1,-1 1,-2 2,-3 7,-12 13,-25 18,-39 14,-18 29,-34 44,-52 64,-15 130,-39 198,-69 z m -7,2228 c 3,5 5,10 7,15 -67,-30 -134,-53 -197,-69 -11,-11 -21,-23 -31,-35 -4,-21 -12,-41 -23,-60 0,-1 -1,-2 -2,-3 11,-9 21,-21 29,-32 15,4 29,9 43,15 21,28 44,54 70,80 33,34 69,63 105,89 z"
         id="path27276" />
      <path
         sodipodi:nodetypes="ccccccccccccccccccc"
         style="fill:#383332;fill-rule:nonzero"
         inkscape:connector-curvature="0"
         class="fil9"
         d="m 7353.9948,4544.0011 c -6,14 -11,28 -15,43 -8,-5 -15,-10 -24,-14 13,-9 27,-19 39,-29 z m -15,1693 c 4,15 9,29 15,43 -13,-10 -26,-20 -39,-29 8,-4 16,-9 24,-14 z m -95,854 51,366 -88,-359 c -1,0 -1,-1 -1,-2 -1,-11 6,-20 16,-22 10,-1 20,6 21,17 z m 50,-3723 -2,15 c -1,1 -1,1 -2,1 z"
         id="path27300" />
      <path
         sodipodi:nodetypes="cccccccccccccccccc"
         style="fill:#383332;fill-rule:nonzero"
         inkscape:connector-curvature="0"
         class="fil9"
         d="m 7290.9948,3383.0011 -48,351 c -1,10 -11,18 -22,17 -10,-1 -18,-11 -16,-21 0,-1 0,-1 1,-2 l 84,-343 c 1,-1 1,-1 2,-1 z m -34,2928 c 9,13 18,26 28,39 -14,-6 -28,-11 -43,-15 6,-7 10,-15 14,-23 z m 28,-1836 c -10,13 -19,26 -29,39 -4,-8 -9,-16 -14,-23 15,-4 29,-9 43,-15 z"
         id="path27302" />
      <path
         sodipodi:nodetypes="sccccsccccccc"
         style="fill:#383332;fill-rule:nonzero"
         inkscape:connector-curvature="0"
         class="fil9"
         d="m 7154.9948,7081.0011 c 11,1 19,10 18,20 l -14,232 -24,-231 0,-3 c 1,-11 9,-19 20,-18 z m 17,-3358 c 1,11 -8,20 -18,20 -11,1 -20,-7 -21,-18 0,-1 0,-3 1,-3 l 24,-231 15,232 z"
         id="path27310" />
      <path
         sodipodi:nodetypes="ccccccccccccc"
         style="fill:#383332;fill-rule:nonzero"
         inkscape:connector-curvature="0"
         class="fil9"
         d="m 7088.9948,7075.0011 c 10,3 15,15 12,24 l -35,107 -3,-113 c 0,-2 1,-4 1,-7 3,-10 14,-15 25,-12 z m 11,-3351 c 3,10 -2,21 -13,25 -10,3 -21,-2 -24,-13 -1,-2 -1,-4 -1,-6 l 3,-113 z"
         id="path27320" />
      <path
         sodipodi:nodetypes="cccccccccc"
         style="fill:#383332;fill-rule:nonzero"
         inkscape:connector-curvature="0"
         class="fil9"
         d="m 6941.9948,3865.0011 c 3,76 -7,161 -30,248 -3,12 -7,23 -10,34 -18,-63 -31,-132 -39,-205 23,-30 49,-56 79,-77 z m -30,2846 c 23,87 33,172 30,249 -30,-21 -57,-47 -79,-77 8,-74 21,-143 39,-206 3,11 7,22 10,34 z"
         id="path27348" />
      <path
         sodipodi:nodetypes="cccccccccccc"
         style="fill:#383332;fill-rule:nonzero"
         inkscape:connector-curvature="0"
         class="fil9"
         d="m 6901.9948,4147.0011 0,1 c -5,15 -9,29 -15,43 -16,14 -29,31 -41,50 -1,1 -1,2 -2,3 -14,-5 -28,-8 -43,-9 -3,-15 -6,-29 -7,-45 13,-32 25,-65 34,-100 12,-46 20,-92 25,-136 3,-4 6,-9 9,-13 8,74 21,143 39,205 z"
         id="path27360" />
      <path
         sodipodi:nodetypes="cccccccccccccccccccccccccc"
         style="fill:#383332;fill-rule:nonzero"
         inkscape:connector-curvature="0"
         class="fil9"
         d="m 6888.9948,3651.0011 c 32,54 50,129 53,214 -30,21 -57,47 -79,77 -6,-51 -9,-105 -9,-160 -28,47 -57,92 -88,133 -4,-37 -15,-73 -30,-105 45,-73 99,-128 153,-159 z m 53,3309 c -3,86 -21,160 -53,214 -55,-31 -108,-87 -153,-159 16,-33 26,-68 30,-105 31,41 60,86 88,133 1,-55 4,-109 9,-160 23,30 50,56 79,77 z m -62,-347 c 8,21 15,42 22,64 -18,63 -31,132 -39,206 -3,-4 -6,-9 -9,-13 -4,-44 -12,-91 -25,-136 -9,-35 -21,-68 -34,-100 1,-15 4,-31 8,-45 17,-1 35,-6 51,-12 1,1 1,2 1,3 7,12 15,23 25,34 0,1 0,1 1,1 z"
         id="path27362" />
      <path
         sodipodi:nodetypes="ccccccccccccccc"
         style="fill:#383332;fill-rule:nonzero"
         inkscape:connector-curvature="0"
         class="fil9"
         d="m 6862.9948,6883.0011 c -6,51 -9,104 -9,160 -28,-47 -57,-92 -88,-133 1,-6 1,-11 2,-17 23,52 51,98 82,134 8,-47 9,-100 4,-157 3,4 6,9 9,13 z m 0,-2941 c -3,4 -7,9 -9,13 5,-57 3,-110 -4,-156 -31,37 -59,82 -82,134 -1,-5 -1,-11 -2,-17 31,-41 60,-86 88,-133 1,55 4,109 9,160 z"
         id="path27364" />
      <path
         sodipodi:nodetypes="ccccccccc"
         style="fill:#383332;fill-rule:nonzero"
         inkscape:connector-curvature="0"
         class="fil9"
         d="m 6774.9948,6589.0011 c 9,0 19,0 28,-1 -4,15 -7,30 -8,45 -6,-15 -13,-31 -20,-45 z m 27,-2353 c -9,-1 -18,-1 -27,0 7,-14 13,-29 20,-45 1,15 4,30 7,45 z"
         id="path27370" />
      <path
         sodipodi:nodetypes="ccccccsccccccccscccccccccccccccccccc"
         style="fill:#383332;fill-rule:nonzero"
         inkscape:connector-curvature="0"
         class="fil9"
         d="m 6765.9948,3916.0011 c 1,5 1,11 2,17 -19,40 -35,84 -47,130 -10,35 -16,71 -21,105 -9,12 -19,23 -29,34 -15,-7 -33,-12 -50,-15 0,-1 1,-2 1,-3 0,-15 -2,-29 -4,-43 3,-22 7,-44 13,-66 47,-46 93,-99 137,-159 z m 1,2976 c -1,6 -1,12 -2,17 -43,-60 -89,-114 -137,-159 -3,-15 -7,-30 -9,-44 7,-20 10,-42 10,-64 0,-1 0,-3 -1,-4 15,-3 29,-7 41,-13 11,11 20,22 29,33 5,35 12,70 21,105 12,46 28,89 47,130 z m -68,300 54,99 -84,-75 c -8,-7 -9,-19 -1,-28 7,-8 19,-8 28,-2 1,2 3,3 4,5 z m 53,-3658 -54,99 c -1,2 -3,4 -4,5 -8,7 -20,7 -28,-1 -7,-8 -6,-20 2,-27 l 84,-75 z"
         id="path27374" />
      <path
         sodipodi:nodetypes="ccccccccccccccsccccccccccccccccccccccccccccc"
         style="fill:#383332;fill-rule:nonzero"
         inkscape:connector-curvature="0"
         class="fil9"
         d="m 6765.9948,6909.0011 c -4,37 -14,73 -30,105 -40,-65 -74,-143 -98,-230 l -9,-35 c 47,46 93,99 137,159 z m -31,-3099 c 15,33 26,68 30,105 -44,60 -90,113 -137,159 3,-12 6,-23 9,-34 24,-87 58,-165 98,-230 z m -94,3425 94,212 -128,-193 c -6,-9 -3,-21 6,-27 9,-6 21,-3 26,6 1,1 1,2 2,3 z m 93,-3857 -94,212 c -1,1 -1,2 -2,3 -6,9 -18,11 -27,5 -9,-5 -11,-18 -5,-26 z m -35,790 c -2,16 -4,31 -5,47 -8,-5 -15,-9 -24,-13 10,-11 20,-22 29,-34 z m -4,2443 c 1,15 3,31 5,47 -9,-11 -18,-23 -29,-33 8,-4 16,-9 24,-13 z m -20,996 4,15 -5,-13 c 1,-1 1,-1 1,-2 z m 4,-4403 -103,355 c 0,1 -1,1 -1,2 -4,10 -15,14 -25,11 -10,-4 -14,-16 -10,-25 l 139,-342 z"
         id="path27376" />
      <path
         sodipodi:nodetypes="cccccccc"
         style="fill:#383332;fill-rule:nonzero"
         inkscape:connector-curvature="0"
         class="fil9"
         d="m 6575.9948,7267.0011 99,340 c -1,0 -1,1 -1,2 l -134,-329 c -4,-10 1,-21 11,-25 9,-4 21,1 25,11 l 0,2 z"
         id="path27378" />
      <path
         sodipodi:nodetypes="cccscccccccsccc"
         style="fill:#383332;fill-rule:nonzero"
         inkscape:connector-curvature="0"
         class="fil9"
         d="m 6506.9948,7288.0011 68,514 -105,-508 c -2,-10 5,-20 15,-22 10,-2 20,4 23,15 l 0,1 z m 67,-4265 -67,515 0,1 c -2,10 -12,17 -23,15 -9,-2 -15,-10 -15,-19 0,-1 0,-2 1,-4 l 105,-508 z"
         id="path27396" />
      <path
         sodipodi:nodetypes="cccccscccsccccc"
         style="fill:#383332;fill-rule:nonzero"
         inkscape:connector-curvature="0"
         class="fil9"
         d="m 6435.9948,7296.0011 0,1 -19,610 -19,-610 0,-4 c 2,-8 10,-15 18,-15 11,0 19,8 20,18 z m 0,-3768 0,1 c -1,10 -8,19 -19,19 -10,0 -19,-8 -20,-19 l 0,-1 19,-610 19,610 z"
         id="path27406" />
      <path
         sodipodi:nodetypes="cccccccccscccc"
         style="fill:#383332;fill-rule:nonzero"
         inkscape:connector-curvature="0"
         class="fil9"
         d="m 6364.9948,7290.0011 c 0,1 0,3 -1,4 l -105,508 67,-514 1,-1 c 2,-11 13,-17 23,-15 9,2 15,10 15,19 z m -1,-3759 c 2,10 -5,21 -15,23 -10,2 -20,-5 -22,-15 -1,0 -1,-1 -1,-1 l -67,-515 z"
         id="path27412" />
      <path
         sodipodi:nodetypes="ccccccccccccccccccccccccccc"
         style="fill:#383332;fill-rule:nonzero"
         inkscape:connector-curvature="0"
         class="fil9"
         d="m 6283.9948,7254.0011 c 10,4 15,15 10,25 l -139,342 103,-355 0,-2 c 4,-10 15,-15 25,-11 z m 9,-3708 c 4,10 -1,21 -10,25 -10,4 -21,-1 -25,-11 -1,-1 -1,-1 -1,-2 l -99,-339 c 1,0 1,-1 1,-2 z m -71,3680 c 9,6 11,18 6,27 l -128,193 95,-212 c 1,-1 1,-2 1,-3 6,-9 18,-11 27,-6 z m 4,-3654 c 6,9 3,21 -5,26 -9,6 -21,3 -27,-5 -1,-1 -1,-2 -2,-3 l -94,-211 z"
         id="path27416" />
      <path
         sodipodi:nodetypes="sccccccccsccscccccccc"
         style="fill:#383332;fill-rule:nonzero"
         inkscape:connector-curvature="0"
         class="fil9"
         d="m 6212.9948,6641.0011 c 0,14 1,27 4,40 -3,23 -7,46 -13,69 -47,46 -93,99 -137,159 -1,-6 -1,-11 -2,-17 19,-40 35,-84 47,-130 10,-35 17,-71 21,-105 9,-12 18,-23 29,-34 16,7 33,13 51,15 z m -8,-2567 c 3,15 7,31 9,45 -7,20 -10,42 -10,64 l 0,4 c -14,3 -28,7 -41,14 -11,-11 -20,-22 -29,-34 -4,-35 -11,-69 -21,-105 -12,-46 -28,-90 -47,-130 1,-6 1,-11 2,-16 44,60 89,113 137,159 z"
         id="path27420" />
      <path
         sodipodi:nodetypes="cccccccccc"
         style="fill:#383332;fill-rule:nonzero"
         inkscape:connector-curvature="0"
         class="fil9"
         d="m 6195.9948,4040.0011 c 3,11 6,23 9,35 -47,-45 -93,-99 -137,-159 4,-37 15,-73 30,-106 41,65 75,143 98,230 z m 9,2711 c -3,11 -5,23 -9,34 -23,87 -58,166 -98,231 -15,-33 -26,-69 -30,-106 43,-60 89,-113 137,-159 z"
         id="path27424" />
      <path
         sodipodi:nodetypes="ccccccc"
         style="fill:#383332;fill-rule:nonzero"
         inkscape:connector-curvature="0"
         class="fil9"
         d="m 6166.9948,7188.0011 c 7,8 6,20 -2,28 l -83,75 53,-99 c 1,-2 3,-4 4,-5 8,-7 20,-7 28,2 z"
         id="path27428" />
      <path
         sodipodi:nodetypes="ccccccccccc"
         style="fill:#383332;fill-rule:nonzero"
         inkscape:connector-curvature="0"
         class="fil9"
         d="m 6164.9948,3609.0011 c 8,7 9,19 1,27 -7,8 -19,9 -27,1 -2,-1 -3,-3 -4,-5 l -54,-99 84,75 z m -11,-405 5,13 c 0,1 -1,1 -1,2 z"
         id="path27432" />
      <path
         sodipodi:nodetypes="ccccccccc"
         style="fill:#383332;fill-rule:nonzero"
         inkscape:connector-curvature="0"
         class="fil9"
         d="m 6162.9948,4201.0011 c -9,3 -16,8 -24,13 -1,-15 -3,-32 -5,-48 9,12 19,24 29,34 z m -24,2409 c 7,5 15,9 24,13 -10,11 -20,22 -29,34 2,-16 3,-32 5,-47 z"
         id="path27438" />
      <path
         sodipodi:nodetypes="cccccccccccccccc"
         style="fill:#383332;fill-rule:nonzero"
         inkscape:connector-curvature="0"
         class="fil9"
         d="m 6097.9948,3810.0011 c -15,33 -26,69 -30,106 -31,-41 -60,-86 -88,-133 -1,55 -4,109 -9,160 -22,-30 -49,-56 -79,-76 3,-86 21,-160 53,-215 55,31 108,87 153,159 z m -30,3099 c 4,37 15,73 30,106 -45,72 -99,127 -153,159 -32,-54 -50,-129 -53,-215 30,-21 57,-46 79,-76 5,51 9,104 9,160 28,-47 57,-92 88,-133 z"
         id="path27446" />
      <path
         sodipodi:nodetypes="ccccccccccccccccccccccc"
         style="fill:#383332;fill-rule:nonzero"
         inkscape:connector-curvature="0"
         class="fil9"
         d="m 6067.9948,3916.0011 c -1,5 -1,11 -2,16 -23,-51 -51,-97 -81,-134 -8,47 -9,101 -4,157 -3,-5 -6,-9 -10,-14 5,-51 9,-105 9,-160 28,47 57,92 88,133 z m -2,2976 c 1,6 1,12 2,17 -31,41 -60,86 -88,133 -1,-55 -4,-109 -9,-160 3,-4 6,-9 9,-13 -5,56 -3,110 4,157 31,-37 59,-83 82,-134 z m -7,-2655 c -9,0 -19,0 -28,1 4,-15 6,-30 8,-45 7,15 13,30 20,44 z m -28,2352 c 9,1 19,1 27,0 -7,14 -14,29 -20,44 -1,-15 -4,-30 -7,-44 z"
         id="path27448" />
      <path
         sodipodi:nodetypes="cccccccccccccccccccccc"
         style="fill:#383332;fill-rule:nonzero"
         inkscape:connector-curvature="0"
         class="fil9"
         d="m 6030.9948,6589.0011 c 4,14 6,29 7,44 -13,32 -24,66 -34,101 -12,46 -21,92 -25,136 -3,4 -6,9 -9,13 -8,-74 -21,-143 -39,-206 4,-15 9,-29 14,-43 16,-14 30,-31 42,-51 0,-1 1,-3 2,-3 14,5 28,8 42,9 z m 8,-2397 c -1,15 -4,30 -8,45 -17,1 -35,6 -51,12 -1,-1 -1,-2 -2,-3 -7,-12 -15,-24 -24,-33 0,-1 -1,-1 -1,-1 -8,-21 -15,-42 -22,-65 18,-63 31,-131 39,-205 4,4 7,9 10,14 4,44 12,90 25,136 10,35 21,69 34,101 z"
         id="path27450" />
      <path
         sodipodi:nodetypes="cccccccccc"
         style="fill:#383332;fill-rule:nonzero"
         inkscape:connector-curvature="0"
         class="fil9"
         d="m 5969.9948,3942.0011 c -8,74 -21,143 -39,205 -3,-11 -7,-23 -10,-34 -23,-87 -33,-172 -30,-247 30,20 57,46 79,76 z m -39,2735 c 19,63 31,132 39,206 -23,30 -49,55 -79,76 -3,-76 7,-161 30,-248 3,-12 7,-23 10,-34 z"
         id="path27456" />
      <path
         sodipodi:nodetypes="ccccccccccsccc"
         style="fill:#383332;fill-rule:nonzero"
         inkscape:connector-curvature="0"
         class="fil9"
         d="m 5770.9948,7095.0011 -3,113 -35,-107 c -3,-10 2,-22 13,-25 10,-3 21,2 25,12 1,2 1,5 1,7 z m -4,-3477 3,112 c 0,2 0,4 -1,7 -3,10 -15,15 -25,12 -10,-3 -16,-14 -13,-25 l 35,-107 z"
         id="path27482" />
      <path
         sodipodi:nodetypes="scccscsccccccc"
         style="fill:#383332;fill-rule:nonzero"
         inkscape:connector-curvature="0"
         class="fil9"
         d="m 5699.9948,7099.0011 c 0,1 0,2 -1,3 l -24,230 -14,-231 c -1,-11 7,-20 18,-21 11,-1 20,8 21,18 z m -1,-3376 c 1,1 1,2 1,3 -1,10 -10,19 -21,18 -10,-1 -19,-10 -18,-21 l 15,-231 24,230 z"
         id="path27496" />
      <path
         sodipodi:nodetypes="cccccccccccccccccccccccccccccccccccc"
         style="fill:#383332;fill-rule:nonzero"
         inkscape:connector-curvature="0"
         class="fil9"
         d="m 5611.9948,7075.0011 c 11,1 18,11 16,21 l 0,2 -84,344 c -1,1 -1,1 -2,1 l 48,-352 c 1,-11 11,-18 22,-16 z m 16,-703 c -1,1 -1,2 -2,2 -7,13 -13,26 -18,39 -14,18 -29,34 -44,52 -63,15 -130,39 -197,69 2,-5 4,-10 7,-15 36,-25 72,-55 105,-89 25,-26 49,-53 70,-80 14,-6 29,-11 43,-15 9,14 21,27 36,38 z m -1,-2643 c 2,10 -6,20 -16,22 -10,1 -20,-6 -21,-16 l -51,-366 88,359 c 1,1 1,1 1,2 z m -9,726 c 0,1 1,2 2,3 -11,9 -21,21 -29,32 -14,-4 -29,-9 -42,-15 -21,-27 -44,-54 -70,-80 -33,-34 -69,-63 -105,-89 -3,-5 -5,-10 -7,-16 68,30 134,54 198,69 11,12 21,23 31,35 4,21 12,41 23,60 z"
         id="path27500" />
      <path
         sodipodi:nodetypes="cccccccccc"
         style="fill:#383332;fill-rule:nonzero"
         inkscape:connector-curvature="0"
         class="fil9"
         d="m 5576.9948,6310.0011 c 4,8 9,16 15,24 -15,4 -29,9 -43,15 11,-13 20,-26 29,-39 z m 14,-1819 c -6,7 -10,15 -14,23 -9,-13 -18,-26 -28,-39 14,6 28,11 42,15 z"
         id="path27506" />
      <path
         sodipodi:nodetypes="ccccccccsccccc"
         style="fill:#383332;fill-rule:nonzero"
         inkscape:connector-curvature="0"
         class="fil9"
         d="m 5545.9948,7056.0011 c 10,3 15,14 13,24 -1,1 -1,1 -1,2 l -198,479 163,-493 c 3,-10 14,-15 24,-12 z m 11,-3311 c 3,10 -2,21 -12,24 -10,3 -21,-2 -24,-12 l -163,-493 199,479 c 1,0 1,1 1,1 z"
         id="path27510" />
      <path
         sodipodi:nodetypes="ccccccccccccccc"
         style="fill:#383332;fill-rule:nonzero"
         inkscape:connector-curvature="0"
         class="fil9"
         d="m 5563.9948,6465.0011 c -8,9 -16,17 -25,25 -63,64 -132,114 -199,150 3,-36 12,-72 26,-107 68,-30 134,-53 197,-69 z m -25,-2131 c 9,8 17,17 25,25 -63,-15 -130,-39 -198,-69 -15,-34 -24,-70 -26,-106 68,36 136,86 199,150 z m 5,3108 -4,15 2,-14 c 1,-1 1,-1 2,-1 z"
         id="path27518" />
      <path
         sodipodi:nodetypes="ccccccccccscccccccccccc"
         style="fill:#383332;fill-rule:nonzero"
         inkscape:connector-curvature="0"
         class="fil9"
         d="m 5518.9948,4573.0011 c -8,4 -16,9 -24,14 -4,-15 -9,-29 -16,-43 13,10 26,19 39,28 z m -24,1665 c 7,5 15,10 23,14 -13,9 -26,18 -39,28 6,-14 11,-28 16,-42 z m -4,-2467 c 5,9 3,21 -6,27 -9,6 -21,3 -27,-6 l 0,-1 -289,-537 322,518 z m -7,3256 c 9,5 13,17 8,26 l 0,1 -322,519 289,-537 c 5,-10 16,-13 26,-8 z"
         id="path27526" />
      <path
         sodipodi:nodetypes="ccccccccsccccscccccccc"
         style="fill:#383332;fill-rule:nonzero"
         inkscape:connector-curvature="0"
         class="fil9"
         d="m 5478.9948,4545.0011 c 7,14 12,28 16,43 -14,9 -27,21 -38,36 -1,-1 -2,-1 -3,-2 -13,-7 -26,-13 -39,-18 -17,-13 -34,-28 -51,-43 -16,-64 -39,-130 -69,-198 l 15,6 c 25,36 55,72 89,106 26,26 53,49 80,71 z m 16,1693 c -4,14 -10,29 -16,42 -27,21 -54,44 -80,70 -34,34 -63,69 -89,105 -5,3 -10,5 -15,7 30,-68 53,-134 69,-198 11,-10 22,-20 33,-29 21,-5 42,-12 61,-24 1,-1 2,-2 3,-2 9,11 21,21 32,29 z"
         id="path27528" />
      <path
         sodipodi:nodetypes="ccccccccsccccc"
         style="fill:#383332;fill-rule:nonzero"
         inkscape:connector-curvature="0"
         class="fil9"
         d="m 5428.9948,6989.0011 c 8,7 9,19 1,27 l -345,387 316,-412 c 1,0 1,0 1,-1 7,-8 19,-9 27,-2 z m 1,-3180 c 7,8 7,20 -1,27 -8,7 -20,6 -27,-2 0,-1 0,-1 -1,-1 l -316,-412 345,387 z"
         id="path27534" />
      <path
         sodipodi:nodetypes="cccccccscccccc"
         style="fill:#383332;fill-rule:nonzero"
         inkscape:connector-curvature="0"
         class="fil9"
         d="m 5380.9948,6941.0011 c 7,8 5,20 -3,27 l -292,227 267,-256 c 0,-1 1,-1 1,-1 8,-7 21,-5 27,3 z m -5,-3084 c 8,7 10,19 3,27 -7,8 -19,10 -27,3 0,-1 -1,-1 -2,-1 l -255,-245 c 1,-1 1,-1 1,-2 l 280,217 z"
         id="path27542" />
      <path
         sodipodi:nodetypes="ccccccccccccccccc"
         style="fill:#383332;fill-rule:nonzero"
         inkscape:connector-curvature="0"
         class="fil9"
         d="m 5365.9948,4291.0011 c 2,5 4,10 7,16 -46,-33 -93,-59 -138,-75 16,45 42,92 75,138 -5,-2 -10,-5 -15,-6 l 0,-1 c -21,-47 -45,-95 -72,-143 48,27 96,51 143,72 z m 7,2228 c -3,5 -5,10 -7,15 -47,21 -95,45 -143,72 27,-48 51,-96 72,-143 5,-2 10,-4 15,-7 -33,47 -59,94 -75,139 44,-17 92,-42 138,-75 z"
         id="path27544" />
      <path
         sodipodi:nodetypes="ccccccccccccccccccccccccc"
         style="fill:#383332;fill-rule:nonzero"
         inkscape:connector-curvature="0"
         class="fil9"
         d="m 5363.9948,4561.0011 c -9,-8 -18,-17 -26,-25 -63,-64 -114,-132 -150,-200 36,3 72,12 107,26 l 0,1 c 30,68 53,135 69,198 z m -26,1729 c 8,-9 18,-17 26,-26 -16,64 -39,130 -69,198 -35,15 -71,24 -107,27 35,-68 86,-136 150,-200 z m 3,596 c 5,9 1,21 -9,25 l -208,104 188,-137 c 1,-1 2,-1 3,-1 10,-5 21,-1 26,9 z m -10,-2972 c 9,5 13,16 9,26 -5,9 -16,13 -25,8 -1,0 -2,-1 -3,-2 l -188,-136 207,103 z"
         id="path27546" />
      <path
         sodipodi:nodetypes="cccccccccccccccc"
         style="fill:#383332;fill-rule:nonzero"
         inkscape:connector-curvature="0"
         class="fil9"
         d="m 5339.9948,4184.0011 c 3,36 12,72 26,106 -47,-20 -95,-45 -143,-72 27,48 51,96 72,143 -35,-15 -70,-23 -107,-26 -40,-76 -62,-149 -61,-213 63,-1 137,21 213,61 z m 26,2350 c -15,34 -24,71 -26,107 -75,41 -149,62 -213,61 -1,-63 21,-137 61,-213 36,-3 72,-12 107,-27 -21,47 -45,95 -72,143 48,-27 96,-51 143,-72 z"
         id="path27548" />
      <path
         sodipodi:nodetypes="cccccccscccccccccccccccccccccccccccccc"
         style="fill:#383332;fill-rule:nonzero"
         inkscape:connector-curvature="0"
         class="fil9"
         d="m 5311.9948,6826.0011 c 2,10 -4,21 -15,23 l -110,23 96,-59 c 2,-1 4,-2 6,-2 10,-2 21,4 23,15 z m -16,-2849 c 11,2 17,12 15,23 -2,11 -12,17 -23,15 -2,-1 -4,-1 -6,-2 l -96,-59 z m -43,1872 c -1,1 -2,1 -3,1 -12,7 -24,15 -34,25 l -1,0 c -21,8 -42,15 -64,23 l -1,0 c -63,-18 -132,-31 -205,-40 4,-3 9,-6 13,-9 45,-4 91,-12 136,-25 35,-9 69,-21 101,-34 16,1 31,4 45,8 1,17 5,34 12,51 z m -7,-866 c 1,1 3,1 4,2 -5,14 -8,28 -9,42 l 0,1 c -14,3 -29,6 -44,7 -32,-13 -66,-25 -101,-34 -46,-13 -92,-20 -136,-25 -5,-3 -9,-7 -14,-9 74,-8 143,-21 206,-39 l 1,0 c 15,4 29,9 43,15 14,16 31,30 51,41 z"
         id="path27552" />
      <path
         sodipodi:nodetypes="cccccccccccccccccccccccccscc"
         style="fill:#383332;fill-rule:nonzero"
         inkscape:connector-curvature="0"
         class="fil9"
         d="m 5240.9948,5770.0011 c -1,9 -1,18 0,28 -15,-4 -30,-7 -45,-8 16,-7 30,-13 45,-20 z m -1,-743 c -1,9 -1,18 0,27 -14,-7 -29,-13 -44,-20 15,-1 30,-4 44,-7 z m -34,640 c 3,8 8,16 13,24 -16,1 -31,2 -47,5 12,-9 23,-18 34,-29 z m 13,-532 c -5,8 -10,16 -13,24 -11,-10 -22,-20 -34,-29 16,2 32,3 48,5 z m -27,490 c 3,15 7,29 14,41 -11,10 -22,20 -34,29 -35,5 -70,12 -105,21 -46,12 -89,28 -129,47 -6,-1 -12,-1 -17,-2 60,-44 114,-90 159,-137 15,-3 30,-7 44,-9 20,7 42,10 65,10 1,0 3,0 4,-1 z"
         id="path27554" />
      <path
         sodipodi:nodetypes="ccsccccccccc"
         style="fill:#383332;fill-rule:nonzero"
         inkscape:connector-curvature="0"
         class="fil9"
         d="m 5205.9948,5159.0011 c -8,15 -13,32 -15,50 l -3,0 c -14,0 -28,1 -41,4 l -1,0 c -22,-3 -44,-7 -66,-13 -45,-47 -99,-93 -159,-137 6,-1 11,-1 17,-2 40,19 84,35 129,47 35,9 71,16 105,21 12,9 24,19 34,29 z"
         id="path27556" />
      <path
         sodipodi:nodetypes="ccccc"
         style="fill:#383332;fill-rule:nonzero"
         inkscape:connector-curvature="0"
         class="fil9"
         d="m 5151.9948,5898.0011 c -11,3 -22,7 -34,10 -87,23 -172,33 -248,30 21,-30 47,-57 77,-80 74,8 143,22 205,40 z"
         id="path27564" />
      <path
         sodipodi:nodetypes="cccccccccc"
         style="fill:#383332;fill-rule:nonzero"
         inkscape:connector-curvature="0"
         class="fil9"
         d="m 5117.9948,4917.0011 c 12,3 23,7 33,10 -63,18 -132,31 -206,39 -30,-23 -55,-49 -76,-79 76,-3 161,7 248,30 z m -34,-1286 12,9 c 0,1 0,1 -1,2 z"
         id="path27568" />
      <path
         sodipodi:nodetypes="ccccc"
         style="fill:#383332;fill-rule:nonzero"
         inkscape:connector-curvature="0"
         class="fil9"
         d="m 5043.9948,5633.0011 35,-9 c -45,47 -99,93 -159,137 -37,-4 -73,-15 -106,-30 65,-41 143,-75 230,-98 z"
         id="path27572" />
      <path
         sodipodi:nodetypes="ccccccccccccccccccc"
         style="fill:#383332;fill-rule:nonzero"
         inkscape:connector-curvature="0"
         class="fil9"
         d="m 5078.9948,5201.0011 c -11,-3 -23,-5 -35,-9 -86,-23 -165,-57 -229,-98 33,-15 69,-26 106,-30 60,44 114,90 159,137 z m -75,1316 c 10,2 17,13 15,23 -1,3 -1,5 -3,7 l -59,96 23,-110 c 2,-10 13,-17 23,-15 z m 15,-2232 c 2,11 -5,21 -15,23 -11,3 -21,-4 -23,-15 l -23,-110 58,96 z"
         id="path27576" />
      <path
         sodipodi:nodetypes="cccccccccccccccccsccccccccccccccccccccccccc"
         style="fill:#383332;fill-rule:nonzero"
         inkscape:connector-curvature="0"
         class="fil9"
         d="m 4958.9948,5849.0011 c -4,3 -9,6 -13,9 -51,-5 -105,-8 -160,-9 47,-28 92,-57 133,-88 6,1 11,1 17,2 -52,23 -98,52 -135,82 47,8 100,10 157,4 z m -15,640 c 9,5 13,16 9,26 -1,1 -1,2 -2,3 l -136,188 103,-207 c 5,-10 17,-13 26,-9 z m 8,-2178 c 5,9 1,21 -9,26 -9,5 -21,1 -26,-9 l -104,-208 136,188 c 0,1 1,2 2,3 z m -6,656 c 4,3 9,7 14,9 -56,-5 -110,-4 -157,4 37,31 83,59 135,82 -6,1 -11,1 -17,2 -41,-31 -86,-60 -134,-88 55,0 108,-3 159,-9 z m -57,1482 c 8,7 10,19 3,27 0,1 -1,1 -1,2 l -245,256 -2,0 218,-280 c 7,-9 18,-10 27,-3 z m 2,-2100 c 7,9 5,21 -3,27 -9,7 -21,5 -27,-3 l -227,-292 256,267 c 0,1 1,1 1,1 z"
         id="path27584" />
      <path
         sodipodi:nodetypes="cccccccccccccccccccccccccccccc"
         style="fill:#383332;fill-rule:nonzero"
         inkscape:connector-curvature="0"
         class="fil9"
         d="m 4869.9948,4887.0011 c 21,30 46,57 76,79 -51,5 -104,9 -159,9 48,28 93,58 134,88 -37,4 -73,15 -106,30 -72,-45 -128,-99 -159,-153 54,-32 129,-50 215,-53 z m 76,971 c -30,23 -56,50 -77,80 -86,-3 -160,-21 -215,-53 31,-55 87,-108 159,-153 33,15 69,26 106,30 -41,31 -86,60 -133,88 55,1 109,4 160,9 z m -106,543 c 7,8 7,20 -1,27 l -1,1 -412,316 387,-345 c 8,-7 20,-7 27,2 z m -1,-2003 c 8,7 9,19 1,27 -7,8 -19,9 -27,2 l -387,-345 412,316 1,1 z"
         id="path27586" />
      <path
         sodipodi:nodetypes="cccccccccccc"
         style="fill:#383332;fill-rule:nonzero"
         inkscape:connector-curvature="0"
         class="fil9"
         d="m 4793.9948,4454.0011 c 9,5 13,17 8,26 -5,10 -17,13 -26,8 0,-1 -1,-1 -1,-1 l -519,-321 z m 8,1890 c 5,9 3,21 -7,26 0,1 -1,1 -1,1 l -538,288 519,-321 c 9,-6 21,-3 27,6 z"
         id="path27590" />
      <path
         sodipodi:nodetypes="ccccccccsccccccccccccccccccccccccccccccccsscccscccccc"
         style="fill:#383332;fill-rule:nonzero"
         inkscape:connector-curvature="0"
         class="fil9"
         d="m 4772.9948,6284.0011 c 3,10 -2,21 -12,25 l -493,163 479,-199 c 1,0 1,-1 1,-1 10,-3 21,2 24,12 z m -12,-1767 c 10,3 16,14 12,24 -4,10 -14,16 -24,13 0,-1 -1,-1 -1,-1 l -479,-199 z m -6,1701 c 1,11 -6,20 -16,22 l -366,50 359,-88 c 1,0 1,-1 2,-1 10,-1 20,6 21,16 z m -17,-1632 c 10,2 18,11 16,22 -2,10 -11,18 -21,16 l -2,0 -344,-84 c 0,0 0,-1 -1,-2 z m 3,1474 c 10,3 16,14 13,25 -3,10 -14,15 -25,12 l -107,-35 112,-3 c 2,0 4,0 6,1 z m 12,-1318 c 4,10 -2,21 -12,25 -2,1 -4,1 -7,1 l -113,-3 107,-35 c 10,-3 21,2 24,13 z m -23,1388 c 10,0 19,9 18,20 -1,11 -9,19 -20,18 l -232,-14 231,-24 z m 18,-1455 c 1,10 -7,19 -18,20 l -3,0 -231,-24 232,-14 c 10,-1 20,7 20,18 z"
         id="path27594" />
      <path
         sodipodi:nodetypes="ccccccccccccccccccc"
         style="fill:#383332;fill-rule:nonzero"
         inkscape:connector-curvature="0"
         class="fil9"
         d="m 4644.9948,6734.0011 -10,11 9,-11 2,0 z m -3,-1599 c 7,8 7,20 -2,28 -8,7 -20,7 -27,-1 l -75,-84 99,54 c 2,1 4,2 5,4 z m -1,528 c 8,7 9,19 2,27 -2,2 -3,3 -5,4 l -99,54 75,-84 c 7,-8 19,-9 27,-2 z"
         id="path27606" />
      <path
         sodipodi:nodetypes="cscccccccccccc"
         style="fill:#383332;fill-rule:nonzero"
         inkscape:connector-curvature="0"
         class="fil9"
         d="m 4597.9948,5191.0011 c 9,6 11,18 5,27 -6,9 -18,11 -27,6 l -193,-128 212,95 c 1,1 2,1 3,1 z m 5,418 c 6,9 4,21 -5,27 -1,0 -2,1 -3,1 l -212,95 193,-128 c 9,-5 21,-3 27,6 z"
         id="path27608" />
      <path
         sodipodi:nodetypes="cccccccccscccsc"
         style="fill:#383332;fill-rule:nonzero"
         inkscape:connector-curvature="0"
         class="fil9"
         d="m 4574.9948,5547.0011 c 4,10 0,21 -10,25 -1,1 -1,1 -2,1 l -340,99 c 0,0 -1,-1 -2,-1 l 329,-134 c 10,-4 21,1 25,11 z m -11,-292 c 9,4 14,15 10,25 -4,10 -15,15 -25,11 l -342,-140 354,103 c 1,0 1,1 2,1 z"
         id="path27610" />
      <path
         sodipodi:nodetypes="ccccccccccccccccccccc"
         style="fill:#383332;fill-rule:nonzero"
         inkscape:connector-curvature="0"
         class="fil9"
         d="m 4542.9948,5323.0011 c 10,2 17,12 15,23 -2,10 -13,17 -23,15 l -508,-105 515,68 1,0 z m 15,157 c 2,10 -4,21 -15,23 l -1,0 -515,67 508,-105 c 10,-2 20,4 23,15 z m -6,-68 c 1,11 -8,19 -19,20 l -1,0 -610,-19 610,-19 1,0 c 10,1 19,8 19,19 z"
         id="path27614" />
      <path
         sodipodi:nodetypes="cccc"
         style="fill:#383332;fill-rule:nonzero"
         inkscape:connector-curvature="0"
         class="fil9"
         d="m 4386.9948,4539.0011 -15,-4 14,2 c 1,0 1,1 1,2 z"
         id="path27640" />
      <path
         sodipodi:nodetypes="cccc"
         style="fill:#383332;fill-rule:nonzero"
         inkscape:connector-curvature="0"
         class="fil9"
         d="m 4221.9948,5671.0011 -15,4 13,-5 c 1,0 1,1 2,1 z"
         id="path27652" />
    </g>
  </g>
</svg>
