<?xml version="1.0" encoding="UTF-8" standalone="no"?>
<svg
   xmlns:dc="http://purl.org/dc/elements/1.1/"
   xmlns:cc="http://creativecommons.org/ns#"
   xmlns:rdf="http://www.w3.org/1999/02/22-rdf-syntax-ns#"
   xmlns:svg="http://www.w3.org/2000/svg"
   xmlns="http://www.w3.org/2000/svg"
   xmlns:sodipodi="http://sodipodi.sourceforge.net/DTD/sodipodi-0.dtd"
   xmlns:inkscape="http://www.inkscape.org/namespaces/inkscape"
   id="_c_1_front_wireframe"
   width="908.7"
   height="908.9"
   fill-rule="evenodd"
   viewBox="0 0 9465.3 9467.4"
   clip-rule="evenodd"
   image-rendering="optimizeQuality"
   shape-rendering="geometricPrecision"
   text-rendering="geometricPrecision"
   version="1.1"
   inkscape:version="0.91 r13725"
   sodipodi:docname="_c_1_front_wireframe.svg">
  <metadata
     id="metadata545">
    <rdf:RDF>
      <cc:Work
         rdf:about="">
        <dc:format>image/svg+xml</dc:format>
        <dc:type
           rdf:resource="http://purl.org/dc/dcmitype/StillImage" />
        <dc:title />
      </cc:Work>
    </rdf:RDF>
  </metadata>
  <sodipodi:namedview
     pagecolor="#ffffff"
     bordercolor="#666666"
     borderopacity="1"
     objecttolerance="10"
     gridtolerance="10"
     guidetolerance="10"
     inkscape:pageopacity="0"
     inkscape:pageshadow="2"
     inkscape:window-width="1271"
     inkscape:window-height="665"
     id="namedview543"
     showgrid="false"
     inkscape:zoom="0.51930903"
     inkscape:cx="217.46017"
     inkscape:cy="454.45001"
     inkscape:window-x="171"
     inkscape:window-y="0"
     inkscape:window-maximized="0"
     inkscape:current-layer="svg26578" />
  <defs
     id="defs26580">
    <style
       id="style26900"><![CDATA[
    @font-face { font-family:"Raleway";src:url("#FontID1") format(svg)}
    @font-face { font-family:"Arial";src:url("#FontID0") format(svg)}
    .str12 {stroke:#FEFEFE;stroke-width:7.39764}
    .str10 {stroke:#383332;stroke-width:12.9173}
    .str0 {stroke:#B6B6BB;stroke-width:13.8898}
    .str4 {stroke:#383332;stroke-width:15.8071}
    .str14 {stroke:#383332;stroke-width:17.2244}
    .str3 {stroke:#383332;stroke-width:17.437}
    .str11 {stroke:#383332;stroke-width:18.6457}
    .str1 {stroke:#383332;stroke-width:19.7756}
    .str8 {stroke:#383332;stroke-width:21.5315}
    .str7 {stroke:#383332;stroke-width:25.8386}
    .str6 {stroke:#383332;stroke-width:30.5394}
    .str9 {stroke:#383332;stroke-width:34.4488}
    .str13 {stroke:#383332;stroke-width:43.063}
    .str5 {stroke:#383332;stroke-width:64.5945}
    .str2 {stroke:#383332;stroke-width:91.6811}
    .fil11 {fill:none;fill-rule:nonzero}
    .fil6 {fill:#383332}
    .fil4 {fill:#E7992F}
    .fil3 {fill:#949595}
    .fil5 {fill:#D5D5D5}
    .fil9 {fill:#383332;fill-rule:nonzero}
    .fil1 {fill:#575658;fill-rule:nonzero}
    .fil8 {fill:#E7A56F;fill-rule:nonzero}
    .fil7 {fill:#FCD967;fill-rule:nonzero}
    .fil10 {fill:#FDDF84;fill-rule:nonzero}
    .fil2 {fill:#FEFEFE;fill-rule:nonzero}
    .fil0 {fill:url(#id0);fill-rule:nonzero}
    .fnt0 {font-weight:bold;font-size:138.886;font-family:'Arial'}
    .fnt1 {font-weight:bold;font-size:239.988;font-family:'Arial'}
    .fnt4 {font-weight:bold;font-size:239.988;font-family:'Arial'}
    .fnt3 {font-weight:normal;font-size:396.744;font-family:'Raleway'}
    .fnt2 {font-weight:normal;font-size:534.323;font-family:'Raleway'}
   ]]></style>
  </defs>
  <g
     id="g4196">
    <path
       style="fill:none;fill-rule:nonzero;stroke:#383332;stroke-width:21.53149986"
       inkscape:connector-curvature="0"
       class="fil11 str8"
       d="m 5811.0047,3429.3 0,1"
       id="path28002" />
    <path
       style="fill:none;fill-rule:nonzero;stroke:#383332;stroke-width:25.83860016"
       inkscape:connector-curvature="0"
       class="fil11 str7"
       d="m 5198.0047,5934.3 c 10,11 21,21 33,30 43,31 96,45 149,38 27,-3 53,-12 78,-26 23,-13 42,-30 58,-49 33,-41 50,-94 46,-147 -1,-9 -2,-19 -4,-29 -4,-21 -12,-41 -23,-60 0,-1 -1,-2 -2,-3 11,-9 21,-21 29,-32 6,-7 10,-15 14,-23 6,-14 12,-29 14,-45 15,-3 30,-8 44,-15 8,-4 16,-9 24,-14 14,-10 27,-22 38,-36 1,1 2,1 3,2 13,7 25,13 38,17 14,5 29,8 44,9 52,6 105,-9 148,-41 21,-16 41,-37 55,-63 13,-23 21,-47 25,-71 8,-53 -4,-106 -33,-150 -5,-8 -11,-15 -17,-22 -15,-16 -31,-30 -51,-41 -1,-1 -2,-1 -4,-2 5,-14 8,-28 9,-42 1,-10 1,-19 0,-28 -1,-16 -4,-31 -9,-46 12,-10 22,-21 31,-34 5,-8 10,-16 14,-24 7,-15 12,-33 14,-50 l 4,0 c 15,0 28,-1 42,-4 15,-3 29,-8 42,-14 48,-21 87,-60 108,-109 10,-25 16,-53 16,-81 0,-26 -5,-52 -14,-75 -19,-50 -57,-90 -104,-113 -8,-4 -17,-8 -26,-10 -20,-7 -42,-10 -65,-10 l -4,0 c -3,-15 -7,-28 -13,-41 -4,-8 -8,-16 -13,-23 -9,-13 -19,-25 -31,-35 5,-15 8,-30 9,-45 l 0,-28 c -1,-17 -6,-34 -13,-51 1,-1 2,-1 3,-1 13,-7 24,-15 35,-25 11,-10 21,-21 30,-33 31,-43 45,-96 38,-148 -3,-27 -12,-54 -26,-79 -13,-23 -30,-42 -50,-58 -41,-33 -94,-50 -146,-46 -9,1 -19,2 -29,4 -21,4 -41,12 -60,23 -1,1 -3,1 -3,2 -10,-11 -21,-21 -32,-29 -8,-5 -15,-10 -24,-14 -14,-7 -29,-12 -44,-15 -3,-15 -8,-30 -15,-44 m -1229,2075 c 9,1 19,1 27,0 15,-1 31,-4 46,-9 10,12 21,22 34,31 7,5 15,9 24,13 16,7 33,13 51,15 l 0,3 c 0,14 1,27 4,40 3,16 8,30 14,44 22,48 61,87 109,108 25,10 53,16 81,16 26,0 51,-5 75,-14 50,-18 91,-56 113,-104 4,-8 8,-17 10,-26 7,-20 10,-42 10,-64 0,-1 0,-3 -1,-4 15,-3 29,-7 41,-13 8,-4 16,-9 24,-13 13,-9 25,-19 35,-31 15,5 30,8 45,9 9,0 19,0 28,-1 17,-1 35,-6 51,-12 1,1 1,2 1,3 7,12 15,23 25,34 m -1662,-739 c -12,10 -22,21 -30,33 -31,43 -45,96 -39,149 3,27 12,53 26,78 14,23 30,42 50,58 41,34 94,50 147,47 9,-1 19,-2 27,-4 21,-5 42,-12 61,-24 1,-1 2,-2 3,-2 9,11 21,21 32,29 7,5 15,10 23,14 14,7 29,12 44,15 3,15 8,30 15,44 4,8 9,16 15,24 9,14 21,27 36,38 -1,1 -1,2 -2,2 -7,13 -13,26 -18,39 -5,14 -8,29 -9,43 -5,53 9,105 41,147 16,22 37,41 62,55 23,13 47,22 72,25 53,9 106,-4 149,-33 8,-5 15,-11 22,-17 16,-14 30,-31 42,-51 0,-1 1,-3 2,-3 14,5 28,8 42,9 m -883,-1377 c -15,3 -29,7 -42,13 -48,21 -87,61 -108,109 -10,25 -16,53 -16,81 0,26 5,52 14,75 19,50 56,90 104,113 8,4 17,8 26,10 20,7 42,10 65,10 1,0 3,0 4,-1 3,15 7,29 14,41 3,8 8,16 13,24 9,13 19,25 31,35 -5,15 -8,30 -9,45 -1,9 -1,18 0,28 1,17 5,34 12,51 -1,1 -2,1 -3,1 -12,7 -24,15 -34,25 m 23,-846 c -1,9 -1,18 0,27 1,15 4,30 9,46 -12,10 -22,22 -31,35 -5,8 -10,16 -13,24 -8,15 -13,32 -15,50 l -3,0 c -14,0 -28,1 -41,4 m 808,-1001 c -10,-12 -21,-21 -33,-30 -42,-31 -95,-44 -148,-38 -27,3 -54,12 -79,26 -23,13 -42,30 -58,49 -33,41 -49,94 -46,147 1,9 2,19 4,28 4,21 12,41 23,60 0,1 1,2 2,3 -11,9 -21,21 -29,32 -6,7 -10,15 -14,23 -6,14 -12,29 -14,45 -15,3 -30,8 -44,15 -8,4 -16,9 -24,14 -14,9 -27,21 -38,36 -1,-1 -2,-1 -3,-2 -13,-7 -26,-13 -39,-18 -14,-5 -29,-8 -43,-9 -53,-6 -106,9 -148,40 -21,16 -41,37 -55,63 -13,23 -21,47 -25,72 -8,52 4,106 34,150 5,8 11,16 18,23 14,16 31,30 51,41 1,1 3,1 4,2 -5,14 -8,28 -9,42 m 1454,-811 c -8,-5 -15,-9 -24,-13 -15,-7 -33,-12 -50,-15 0,-1 1,-2 1,-3 0,-15 -2,-29 -4,-43 -3,-15 -8,-29 -14,-42 -21,-48 -60,-87 -109,-108 -25,-10 -52,-16 -81,-16 -26,0 -51,5 -74,14 -50,19 -91,56 -113,104 -4,9 -8,18 -11,27 -7,20 -10,42 -10,64 l 0,4 c -14,3 -28,7 -41,14 -9,3 -16,8 -24,13 -13,9 -25,19 -35,31 -15,-5 -29,-8 -45,-9 -9,0 -19,0 -28,1 -17,1 -35,6 -51,12 -1,-1 -1,-2 -2,-3 -7,-12 -15,-24 -24,-33"
       id="path28006" />
    <path
       style="fill:none;fill-rule:nonzero;stroke:#383332;stroke-width:25.83860016"
       inkscape:connector-curvature="0"
       class="fil11 str7"
       d="m 5574.0047,3835.3 c -4,-8 -9,-16 -14,-23 -10,-14 -22,-27 -36,-38 1,-1 1,-2 2,-3 7,-12 13,-25 18,-39 4,-14 8,-29 9,-43 6,-53 -9,-105 -40,-148 -16,-22 -38,-41 -63,-55 -23,-13 -47,-21 -71,-25 -53,-8 -106,4 -150,34 -8,5 -15,11 -23,18 -16,14 -29,31 -41,50 -1,1 -1,2 -2,3 -14,-5 -28,-8 -43,-9 -9,-1 -18,-1 -27,0 -16,1 -31,4 -46,9 -10,-12 -22,-22 -35,-31"
       id="path28008" />
    <path
       style="fill:none;fill-rule:nonzero;stroke:#383332;stroke-width:12.91730022"
       inkscape:connector-curvature="0"
       class="fil11 str10"
       d="m 4471.0047,3752.3 c -1,4 -1,8 -3,12 m 1,0 -12,37 -1,5 31,26 m -539,115 c -4,-10 -6,-20 -6,-30 -2,-33 12,-66 38,-89 m 0,0 3,-3 5,-4 34,-29 -32,-51 m 0,0 c -7,-13 -13,-27 -15,-42 -11,-55 12,-114 61,-147 3,-2 5,-4 8,-6 6,-3 11,-6 17,-9 53,-21 113,-9 154,30 10,9 19,20 25,32 m 1,1 28,48 49,-17 4,-1 1,0 m 0,0 c 35,-14 73,-10 102,10 8,5 16,12 22,19 m -377,417 c 0,-2 -1,-4 -1,-6 m 0,0 -1,-3 -5,-38 -41,-11 m 0,0 c -2,-1 -4,-1 -6,-2 m -356,430 c -8,-7 -15,-14 -20,-23 -18,-28 -23,-63 -11,-96 m 0,0 1,-5 2,-5 14,-42 -52,-28 m 0,0 c -13,-8 -25,-17 -34,-29 -37,-42 -47,-105 -21,-158 1,-3 3,-6 4,-9 3,-5 6,-10 10,-15 35,-46 94,-66 149,-53 13,3 26,8 38,15 m 0,0 49,29 34,-40 3,-3 0,-1"
       id="path28010" />
    <path
       style="fill:none;fill-rule:nonzero;stroke:#383332;stroke-width:12.91730022"
       inkscape:connector-curvature="0"
       class="fil11 str10"
       d="m 3826.0047,3983.3 c 23,-30 58,-44 94,-42 10,1 19,2 28,5 l 9,3 c 4,1 7,3 11,5 23,14 41,35 49,60 1,3 2,7 3,11 m 0,2 8,38 1,5 41,6 2,1 m 0,0 c 8,1 16,3 23,5 m -265,415 c -1,-1 -2,-3 -4,-5 m 0,0 -1,-2 -25,-31 -40,11 m 0,0 c -2,1 -4,1 -6,1 m -94,551 c -10,-2 -20,-6 -29,-10 -29,-15 -51,-43 -58,-77 m 0,-1 -1,-4 -1,-6 -8,-44 -60,2 m 0,0 c -15,0 -30,-3 -44,-7 -53,-18 -93,-68 -97,-127 l 0,-9 c 0,-6 0,-12 1,-18 7,-57 48,-104 102,-120 13,-4 26,-6 41,-6 m 0,-1 56,0 10,-51 1,-5"
       id="path28012" />
    <path
       style="fill:none;fill-rule:nonzero;stroke:#383332;stroke-width:12.91730022"
       inkscape:connector-curvature="0"
       class="fil11 str10"
       d="m 3573.0047,4538.3 c 5,-36 28,-66 59,-82 9,-5 19,-8 29,-10 3,-1 6,-1 9,-1 4,-1 8,-1 13,-1 27,0 52,9 72,27 3,3 6,5 8,8"
       id="path28014" />
    <path
       style="fill:none;fill-rule:nonzero;stroke:#383332;stroke-width:12.91730022"
       inkscape:connector-curvature="0"
       class="fil11 str10"
       d="m 3762.0047,4479.3 26,29 4,3 38,-14 2,-1 m 0,0 c 8,-2 15,-5 23,-7 m -22,492 c -2,-1 -4,-1 -6,-2 m 0,-1 -2,0 -37,-15 -30,29 m 0,0 c -2,2 -4,3 -5,5 m 195,523 c -10,3 -20,6 -30,6 -33,2 -66,-12 -89,-38 m 0,0 -3,-4 -4,-4 -29,-33 -51,31 m 0,0 c -13,8 -27,13 -42,15 -55,11 -115,-12 -147,-62 -2,-3 -3,-5 -5,-8 -3,-5 -5,-11 -8,-16 -22,-53 -10,-114 29,-155 9,-10 20,-19 32,-25 m 0,0 49,-28 -17,-49 -2,-4"
       id="path28016" />
    <path
       style="fill:none;fill-rule:nonzero;stroke:#383332;stroke-width:12.91730022"
       inkscape:connector-curvature="0"
       class="fil11 str10"
       d="m 3631.0047,5146.3 c -14,-35 -9,-73 9,-102 6,-8 12,-16 19,-22 2,-3 5,-5 7,-6 3,-3 7,-5 10,-7 23,-13 49,-18 76,-12 4,1 8,1 13,3 m 1,0 36,11 5,1 26,-31 2,-2 m 0,0 c 5,-6 10,-12 16,-17 m 226,436 c -2,1 -4,1 -6,1 m 0,1 -2,0 -39,6 -12,40 m 0,0 c 0,2 -1,3 -2,5 m 430,358 c -7,8 -14,14 -23,19 -28,18 -63,23 -96,12"
       id="path28018" />
    <path
       style="fill:none;fill-rule:nonzero;stroke:#383332;stroke-width:12.91730022"
       inkscape:connector-curvature="0"
       class="fil11 str10"
       d="m 4328.0047,5840.3 -5,-2 -5,-2 -42,-14 -29,53 m 0,0 c -7,13 -17,25 -28,34 -42,37 -105,47 -158,20 -3,-1 -6,-3 -9,-4 -5,-3 -10,-6 -15,-10 -46,-34 -66,-93 -53,-148 3,-13 8,-26 15,-38 m 1,-1 28,-49 -39,-34 -4,-3 m 0,0 c -29,-23 -45,-58 -43,-93 1,-10 2,-19 5,-29 1,-3 2,-6 4,-9 1,-4 3,-7 5,-11 13,-23 34,-40 60,-49 3,-1 8,-2 12,-3 m 0,0 38,-8 5,-1 6,-41 1,-2 m 0,0 c 1,-8 3,-15 5,-23 m 415,265 c -1,2 -3,3 -5,4 m 0,0 -2,2 -30,24 10,40 m 0,0 c 1,2 1,4 1,6 m 551,94 c -2,10 -5,20 -10,29 -15,29 -43,51 -77,57 m -1,1 -3,1 -7,1 -44,8 2,60 m 0,0 c 0,15 -3,30 -7,43 -18,53 -68,94 -127,97 -3,1 -7,1 -10,1 -6,0 -12,-1 -18,-1 -58,-7 -105,-48 -121,-103 -3,-12 -5,-26 -5,-40 m 1,0 0,-56 -52,-10 -4,-1 m 0,0 -1,0 c -36,-5 -66,-27 -82,-58 -5,-9 -8,-18 -10,-28 -1,-3 -1,-6 -1,-10 -1,-4 -1,-8 -1,-12 0,-27 10,-52 28,-72 3,-3 5,-6 8,-8"
       id="path28020" />
    <path
       style="fill:none;fill-rule:nonzero;stroke:#383332;stroke-width:12.91730022"
       inkscape:connector-curvature="0"
       class="fil11 str10"
       d="m 4480.0047,5706.3 29,-26 4,-4 -15,-38 -1,-2 m 0,0 c -3,-7 -5,-15 -7,-23 m 489,30 -14,37 29,30 m 0,0 c 1,1 3,3 4,5 m -16,-80 c -1,2 -1,4 -2,6 m 0,0 -1,2 m 543,-123 c 3,10 6,20 6,30 2,33 -12,65 -38,88 m -1,1 -4,3 -4,4 -33,29 31,51 m 0,0 c 8,13 13,27 15,42 11,55 -12,114 -62,147 -3,2 -5,4 -8,5 -5,3 -11,6 -16,8 -53,22 -114,10 -155,-29 -10,-9 -18,-20 -25,-32"
       id="path28022" />
    <path
       style="fill:none;fill-rule:nonzero;stroke:#383332;stroke-width:12.91730022"
       inkscape:connector-curvature="0"
       class="fil11 str10"
       d="m 5229.0047,5867.3 -28,-49 -50,18 -4,1 m 0,0 c -34,14 -71,10 -101,-9 -9,-5 -16,-12 -23,-19 -2,-2 -4,-5 -6,-7 l -7,-10 c -13,-23 -18,-50 -12,-76 1,-4 1,-8 3,-12 m 0,-1 11,-37 2,-5 -32,-26 -2,-1 m 0,0 c -7,-5 -13,-10 -18,-16 m 437,-227 c 1,2 1,4 1,6 m 1,0 0,3 6,38 40,12 m 0,0 c 2,1 4,1 6,2 m 191,31 c -23,30 -59,45 -94,42 -9,-1 -19,-2 -28,-5 l -9,-3 c -4,-1 -7,-3 -11,-5 -23,-13 -40,-34 -49,-60 -1,-4 -3,-8 -3,-12"
       id="path28024" />
    <path
       style="fill:none;fill-rule:nonzero;stroke:#383332;stroke-width:12.91730022"
       inkscape:connector-curvature="0"
       class="fil11 str10"
       d="m 5450.0047,5440.3 -8,-38 -2,-4 -41,-7 -2,-1 m 0,0 c -8,-1 -16,-3 -23,-5 m 436,-363 c 8,7 14,14 20,22 18,27 24,63 12,96 m -1,0 -2,5 -1,5 -15,42 53,28 m 0,0 c 13,8 25,17 34,29 37,42 47,105 21,158 -1,3 -3,6 -4,9 -3,5 -7,10 -10,15 -35,47 -93,67 -149,53 -13,-3 -26,-8 -38,-15 m 0,-1 -49,-28 -34,40 -3,3 m 1,-506 24,31 41,-10 m 0,0 c 2,-1 4,-1 6,-1 m -77,-27 c 1,1 3,3 4,5 m 0,0 2,2"
       id="path28026" />
    <path
       style="fill:none;fill-rule:nonzero;stroke:#383332;stroke-width:12.91730022"
       inkscape:connector-curvature="0"
       class="fil11 str10"
       d="m 5897.0047,4929.3 c -5,36 -27,67 -58,83 -9,5 -19,8 -29,10 -3,1 -6,1 -9,1 -4,1 -8,1 -12,1 -27,0 -52,-9 -72,-27 l -9,-9 m -1,0 -26,-29 -3,-3 -39,14 -2,1 m 0,0 c -7,3 -15,5 -23,7 m 196,-532 c 10,2 20,6 29,10 29,15 51,43 57,77 m 0,-1 1,5 1,6 9,44 60,-2 m 0,0 c 15,0 30,3 44,7 53,18 93,68 97,127 l 0,9 c 0,6 0,12 -1,18 -7,57 -48,104 -102,120 -13,4 -26,6 -40,6 m -1,1 -57,0 -9,51 -1,4 m -261,-442 c 2,1 4,1 6,2 m 0,0 3,1 36,15 30,-30 m 0,0 c 2,-1 3,-3 5,-4 m -194,-523 c 10,-3 19,-5 29,-5 33,-2 67,11 89,37 m 0,0 4,4 3,4 29,33 51,-31 m 0,0 c 13,-7 27,-13 42,-15 55,-11 115,12 147,61 2,3 3,5 5,8 3,5 6,11 8,17 22,53 10,114 -29,154 -9,10 -20,19 -32,26"
       id="path28028" />
    <path
       style="fill:none;fill-rule:nonzero;stroke:#383332;stroke-width:12.91730022"
       inkscape:connector-curvature="0"
       class="fil11 str10"
       d="m 5869.0047,4239.3 -49,29 17,49 2,5 m 0,0 c 14,34 9,72 -9,101 -6,9 -12,16 -20,23 -2,2 -5,4 -7,6 -3,3 -7,5 -10,7 -23,13 -49,17 -76,12 -4,-1 -8,-1 -12,-3 m -1,0 -37,-12 -4,-2 -27,32 -1,2 m 0,0 c -5,6 -10,11 -16,17 m -227,-436 c 2,-1 4,-1 6,-1 m 0,-1 3,0 39,-6 11,-40 m 0,0 c 1,-2 1,-4 2,-6"
       id="path28030" />
    <path
       style="fill:none;fill-rule:nonzero;stroke:#383332;stroke-width:12.91730022"
       inkscape:connector-curvature="0"
       class="fil11 str10"
       d="m 5521.0047,3947.3 -3,9 c -2,4 -3,8 -5,11 -13,23 -34,40 -59,48 -4,1 -8,3 -12,3 m -1,0 -38,9 -4,1 -7,41 0,2 m 0,0 c -1,8 -3,15 -5,23 m -364,-436 c 7,-8 14,-14 23,-19 28,-18 63,-23 96,-12"
       id="path28032" />
    <path
       style="fill:none;fill-rule:nonzero;stroke:#383332;stroke-width:12.91730022"
       inkscape:connector-curvature="0"
       class="fil11 str10"
       d="m 5141.0047,3627.3 5,2 6,2 41,14 29,-53 m 0,0 c 8,-13 17,-24 28,-34 42,-37 105,-47 158,-21 3,1 6,3 9,4 6,3 11,7 16,10 46,35 65,94 52,149 -3,13 -8,26 -15,38 m 0,1 -28,49 39,34 4,3 m 0,0 c 29,23 44,58 42,93 0,10 -2,20 -5,29 m -551,-118 c 1,-2 3,-3 5,-4 m 0,0 2,-2 31,-24 -10,-41 m 0,0 c 0,-2 -1,-4 -1,-7"
       id="path28034" />
    <path
       style="fill:none;fill-rule:nonzero;stroke:#383332;stroke-width:12.91730022"
       inkscape:connector-curvature="0"
       class="fil11 str10"
       d="m 4930.0047,3572.3 c 36,5 67,28 83,58 5,9 8,18 10,28 1,3 1,6 1,9 1,4 1,8 1,13 0,26 -9,51 -28,71 -2,4 -5,7 -9,10 m 1,0 -28,26 -4,4 14,38 1,2 m 0,0 c 3,7 5,15 7,22 m -500,5 c 2,-9 4,-17 8,-25 0,-2 1,-4 2,-6 m 0,-1 1,-2 15,-37 -29,-30 m 0,0 c -1,-1 -3,-3 -4,-5 -18,-20 -27,-46 -27,-72 0,-4 1,-9 1,-13 0,-3 1,-6 1,-9 2,-10 6,-21 10,-30 15,-29 43,-50 77,-57 m 0,1 5,-1 5,-1 44,-8 -2,-60 m 0,0 c 0,-15 3,-30 7,-44 18,-52 68,-93 127,-96 3,-1 6,-1 9,-1 6,0 12,1 18,1 57,7 104,48 120,102 4,13 7,26 7,41 m 0,0 0,56 51,10 4,1"
       id="path28036" />
    <path
       style="fill:none;fill-rule:nonzero;stroke:#383332;stroke-width:18.64570045"
       inkscape:connector-curvature="0"
       class="fil11 str11"
       d="m 4357.0047,4080.3 c -19,-94 33,-189 122,-222 6,-3 13,-5 19,-6 3,-1 6,-1 8,-2 98,-21 197,35 228,130"
       id="path28038" />
    <path
       style="fill:none;fill-rule:nonzero;stroke:#fefefe;stroke-width:7.39764023"
       inkscape:connector-curvature="0"
       class="fil11 str12"
       d="m 4483.0047,4138.3 c -23,-15 -39,-38 -47,-67 -13,-46 4,-92 37,-120 13,-11 29,-19 46,-24 14,-4 28,-5 40,-4 48,4 91,37 104,87 7,29 4,57 -8,81"
       id="path28040" />
    <path
       style="fill:none;fill-rule:nonzero;stroke:#383332;stroke-width:18.64570045"
       inkscape:connector-curvature="0"
       class="fil11 str11"
       d="m 4076.0047,4102.3 c 4,-5 9,-10 13,-15 l 6,-6 c 74,-68 187,-68 262,-2 3,2 6,5 9,8 24,24 41,53 49,83 m -334,186 c -64,-71 -65,-179 -5,-253"
       id="path28042" />
    <path
       style="fill:none;fill-rule:nonzero;stroke:#fefefe;stroke-width:7.39764023"
       inkscape:connector-curvature="0"
       class="fil11 str12"
       d="m 4218.0047,4344.3 c -27,-2 -53,-13 -74,-34 -33,-33 -43,-81 -27,-123 6,-16 15,-31 27,-43 10,-10 22,-18 34,-23 43,-21 97,-13 133,23 21,21 32,47 34,74"
       id="path28044" />
    <path
       style="fill:none;fill-rule:nonzero;stroke:#383332;stroke-width:18.64570045"
       inkscape:connector-curvature="0"
       class="fil11 str11"
       d="m 3980.0047,4734.3 c -91,-30 -147,-123 -132,-217 1,-6 2,-13 4,-19 1,-3 2,-6 3,-8 30,-96 127,-153 226,-133 m 0,-1 c 4,0 8,1 12,2 33,9 61,26 84,47"
       id="path28046" />
    <path
       style="fill:none;fill-rule:nonzero;stroke:#fefefe;stroke-width:7.39764023"
       inkscape:connector-curvature="0"
       class="fil11 str12"
       d="m 4092.0047,4654.3 c -24,12 -53,15 -81,8 -46,-13 -78,-49 -85,-93 -3,-17 -3,-34 2,-51 4,-14 10,-26 17,-37 28,-40 78,-60 128,-47 29,8 51,25 66,47"
       id="path28048" />
    <path
       style="fill:none;fill-rule:nonzero;stroke:#383332;stroke-width:18.64570045"
       inkscape:connector-curvature="0"
       class="fil11 str11"
       d="m 4082.0047,5111.3 c -95,20 -189,-33 -223,-122 -3,-6 -5,-13 -7,-19 -1,-3 -1,-6 -2,-8 -21,-99 34,-197 130,-228 3,-1 7,-3 11,-3 33,-9 66,-9 97,-1"
       id="path28050" />
    <path
       style="fill:none;fill-rule:nonzero;stroke:#fefefe;stroke-width:7.39764023"
       inkscape:connector-curvature="0"
       class="fil11 str12"
       d="m 4139.0047,4986.3 c -15,23 -38,40 -67,48 -45,12 -92,-4 -120,-38 -11,-13 -20,-29 -25,-46 -3,-13 -5,-27 -3,-41 4,-48 37,-90 87,-104 28,-8 57,-4 81,8"
       id="path28052" />
    <path
       style="fill:none;fill-rule:nonzero;stroke:#383332;stroke-width:18.64570045"
       inkscape:connector-curvature="0"
       class="fil11 str11"
       d="m 4357.0047,5387.3 c -72,64 -180,66 -254,5 -5,-4 -10,-8 -15,-13 -2,-2 -4,-4 -6,-7 -68,-74 -69,-188 -1,-262 2,-3 5,-6 7,-8 24,-24 52,-40 83,-49"
       id="path28054" />
    <path
       style="fill:none;fill-rule:nonzero;stroke:#fefefe;stroke-width:7.39764023"
       inkscape:connector-curvature="0"
       class="fil11 str12"
       d="m 4345.0047,5250.3 c -2,27 -14,54 -34,74 -33,34 -82,43 -123,28 -16,-6 -30,-15 -43,-28 -10,-10 -18,-21 -23,-33 -21,-44 -13,-98 23,-134 21,-20 47,-32 74,-34"
       id="path28056" />
    <path
       style="fill:none;fill-rule:nonzero;stroke:#383332;stroke-width:18.64570045"
       inkscape:connector-curvature="0"
       class="fil11 str11"
       d="m 4735.0047,5488.3 c -30,92 -123,147 -217,131 -7,0 -13,-2 -19,-3 -3,-1 -6,-2 -8,-3 -96,-30 -153,-128 -133,-226 1,-3 2,-7 3,-11 9,-33 25,-62 47,-85"
       id="path28058" />
    <path
       style="fill:none;fill-rule:nonzero;stroke:#fefefe;stroke-width:7.39764023"
       inkscape:connector-curvature="0"
       class="fil11 str12"
       d="m 4655.0047,5376.3 c 13,25 16,53 8,81 -12,45 -49,77 -93,85 -17,3 -35,3 -52,-2 -13,-3 -26,-9 -37,-17 -40,-27 -60,-78 -47,-128 8,-28 25,-51 47,-66"
       id="path28060" />
    <path
       style="fill:none;fill-rule:nonzero;stroke:#383332;stroke-width:18.64570045"
       inkscape:connector-curvature="0"
       class="fil11 str11"
       d="m 5112.0047,5387.3 c 19,94 -33,189 -122,223 -6,2 -12,4 -19,6 -3,1 -6,1 -9,2 -98,21 -196,-35 -227,-130 l -3,-11 c -9,-33 -9,-65 -1,-96"
       id="path28062" />
    <path
       style="fill:none;fill-rule:nonzero;stroke:#fefefe;stroke-width:7.39764023"
       inkscape:connector-curvature="0"
       class="fil11 str12"
       d="m 4987.0047,5330.3 c 23,15 40,38 48,66 12,46 -4,92 -38,121 -13,11 -29,19 -46,24 -14,4 -28,5 -41,3 -48,-4 -90,-37 -104,-87 -8,-29 -4,-57 8,-81"
       id="path28064" />
    <path
       style="fill:none;fill-rule:nonzero;stroke:#383332;stroke-width:18.64570045"
       inkscape:connector-curvature="0"
       class="fil11 str11"
       d="m 5388.0047,5111.3 c 65,71 67,179 6,253 -4,5 -9,10 -13,15 -2,2 -4,4 -7,6 -74,67 -187,68 -262,2 -3,-2 -6,-5 -9,-8 -24,-24 -41,-53 -49,-83"
       id="path28066" />
    <path
       style="fill:none;fill-rule:nonzero;stroke:#fefefe;stroke-width:7.39764023"
       inkscape:connector-curvature="0"
       class="fil11 str12"
       d="m 5252.0047,5123.3 c 27,2 53,14 74,34 34,34 43,82 28,124 -6,16 -15,31 -28,43 -10,10 -21,18 -34,23 -44,21 -97,13 -133,-23 -21,-21 -32,-47 -34,-75"
       id="path28068" />
    <path
       style="fill:none;fill-rule:nonzero;stroke:#383332;stroke-width:18.64570045"
       inkscape:connector-curvature="0"
       class="fil11 str11"
       d="m 5489.0047,4734.3 c 91,30 147,122 132,217 -1,6 -3,13 -4,20 -1,3 -2,5 -3,8 -30,96 -128,153 -227,133 l -10,-3 c -33,-9 -61,-25 -85,-47"
       id="path28070" />
    <path
       style="fill:none;fill-rule:nonzero;stroke:#fefefe;stroke-width:7.39764023"
       inkscape:connector-curvature="0"
       class="fil11 str12"
       d="m 5377.0047,4813.3 c 25,-12 53,-16 81,-8 45,13 78,49 85,93 3,17 3,34 -2,52 -3,13 -9,26 -17,37 -27,40 -78,60 -127,47 -28,-8 -51,-25 -66,-47"
       id="path28072" />
    <path
       style="fill:none;fill-rule:nonzero;stroke:#383332;stroke-width:18.64570045"
       inkscape:connector-curvature="0"
       class="fil11 str11"
       d="m 5388.0047,4356.3 c 94,-20 189,33 222,122 3,6 5,13 7,19 1,3 1,6 2,8 22,98 -34,197 -130,228 -3,1 -7,3 -11,3 -33,9 -65,9 -97,1"
       id="path28074" />
    <path
       style="fill:none;fill-rule:nonzero;stroke:#fefefe;stroke-width:7.39764023"
       inkscape:connector-curvature="0"
       class="fil11 str12"
       d="m 5331.0047,4482.3 c 15,-23 38,-40 67,-48 46,-12 92,4 120,38 12,13 20,29 25,46 3,13 5,27 3,40 -4,48 -37,90 -87,104 -28,8 -57,4 -81,-7"
       id="path28076" />
    <path
       style="fill:none;fill-rule:nonzero;stroke:#383332;stroke-width:18.64570045"
       inkscape:connector-curvature="0"
       class="fil11 str11"
       d="m 5112.0047,4080.3 c 71,-65 180,-66 254,-6 5,4 10,9 15,13 2,2 4,4 6,7 68,74 68,187 1,262 -2,3 -5,6 -8,8 -24,24 -53,41 -83,50"
       id="path28078" />
    <path
       style="fill:none;fill-rule:nonzero;stroke:#fefefe;stroke-width:7.39764023"
       inkscape:connector-curvature="0"
       class="fil11 str12"
       d="m 5125.0047,4217.3 c 2,-27 13,-53 34,-74 33,-33 82,-43 123,-27 16,5 31,15 44,27 10,10 18,21 23,33 21,44 13,98 -23,134 -21,21 -47,32 -74,34"
       id="path28080" />
    <path
       style="fill:none;fill-rule:nonzero;stroke:#383332;stroke-width:18.64570045"
       inkscape:connector-curvature="0"
       class="fil11 str11"
       d="m 4730.0047,4086.3 c -7,-31 -7,-64 1,-96 l 3,-11 c 30,-92 122,-147 217,-132 7,1 13,3 19,4 3,1 6,2 8,2 96,30 153,128 133,227 -1,3 -2,7 -3,11 -9,33 -25,62 -47,84"
       id="path28082" />
    <path
       style="fill:none;fill-rule:nonzero;stroke:#fefefe;stroke-width:7.39764023"
       inkscape:connector-curvature="0"
       class="fil11 str12"
       d="m 4815.0047,4091.3 c -13,-24 -16,-53 -8,-81 12,-46 49,-78 93,-85 17,-3 35,-2 52,2 13,3 26,9 36,17 40,27 60,78 47,127 -8,29 -25,52 -48,67"
       id="path28084" />
    <path
       style="fill:none;fill-rule:nonzero;stroke:#383332;stroke-width:21.53149986"
       inkscape:connector-curvature="0"
       class="fil11 str8"
       d="m 5298.0047,4414.3 c 12,21 23,44 33,68 10,23 18,47 26,72 1,4 2,8 4,12 0,2 1,3 1,5 7,28 13,56 16,83 4,25 5,50 5,75 l 0,9 c 0,25 -2,50 -5,75 -3,26 -8,51 -14,75 l -3,12 c 0,2 -1,4 -2,5 -7,27 -17,54 -28,80 -10,23 -21,46 -34,67 -1,3 -3,6 -4,8 -13,22 -27,42 -41,62 -16,21 -32,40 -50,59 l -9,9"
       id="path28086" />
    <path
       style="fill:none;fill-rule:nonzero;stroke:#383332;stroke-width:18.64570045"
       inkscape:connector-curvature="0"
       class="fil11 str11"
       d="m 5297.0047,4414.3 1,0"
       id="path28088" />
    <path
       style="fill:none;fill-rule:nonzero;stroke:#383332;stroke-width:21.53149986"
       inkscape:connector-curvature="0"
       class="fil11 str8"
       d="m 4903.0047,4109.3 c 2,0 3,1 5,1 27,7 53,17 79,27 23,10 46,21 68,33 3,1 5,3 8,4 21,13 42,27 63,41 20,15 40,32 59,50 l 9,9 4,4 c 20,20 38,41 55,64 15,20 28,41 41,62 2,3 3,5 5,8 m -1207,242 c 3,-25 8,-50 14,-75 1,-6 3,-12 5,-18 7,-27 17,-54 27,-80 10,-23 21,-46 34,-67 1,-3 3,-6 5,-8 13,-21 26,-42 41,-62 16,-20 32,-40 50,-58 3,-3 6,-7 9,-9 1,-2 3,-3 4,-4 20,-20 41,-38 64,-55 20,-15 41,-29 63,-41 3,-2 5,-3 8,-5 21,-13 44,-24 67,-33 23,-10 48,-19 73,-26 l 12,-3 c 2,0 3,-1 5,-1 28,-7 56,-12 83,-16 25,-3 50,-5 75,-5 l 9,0 c 25,0 50,2 75,5 25,4 50,8 75,14 l 13,3 m -731,943 c -12,-21 -23,-44 -33,-67 -10,-23 -19,-47 -26,-72 l -3,-12 c -1,-2 -1,-3 -1,-5 -7,-27 -13,-55 -16,-83 -3,-25 -5,-50 -5,-75 l 0,-9 c 0,-25 2,-50 5,-75"
       id="path28090" />
    <path
       style="fill:none;fill-rule:nonzero;stroke:#383332;stroke-width:21.53149986"
       inkscape:connector-curvature="0"
       class="fil11 str8"
       d="m 5192.0047,5191.3 c -1,2 -3,3 -4,4 -20,20 -41,38 -64,55 -20,15 -41,29 -62,42 -3,1 -6,3 -8,5 -22,12 -44,23 -68,33 -23,10 -47,18 -72,25 l -12,3 c -2,1 -4,1 -5,1 -27,7 -55,13 -83,16 -25,3 -50,5 -75,5 l -9,0 c -25,0 -50,-2 -75,-5 -25,-3 -50,-8 -75,-14 l -12,-3 c -2,-1 -4,-1 -6,-2 -27,-7 -54,-17 -80,-27 -23,-10 -46,-21 -67,-34 -3,-1 -5,-3 -8,-5 -21,-12 -43,-26 -63,-41 -20,-15 -40,-32 -58,-50 -3,-3 -6,-5 -9,-9 l -4,-4 c -20,-20 -38,-41 -56,-64 -15,-20 -29,-40 -41,-62 -2,-3 -3,-5 -5,-8"
       id="path28094" />
    <path
       style="fill:none;fill-rule:nonzero;stroke:#383332;stroke-width:43.06299973"
       inkscape:connector-curvature="0"
       class="fil11 str13"
       d="m 4929.0047,4540.3 176,94 -106,170 7,201 -200,-7 -1,0 -170,106 -94,-177 -177,-95 106,-170 -6,-200 199,7"
       id="path28096" />
    <path
       style="fill:none;fill-rule:nonzero;stroke:#383332;stroke-width:43.06299973"
       inkscape:connector-curvature="0"
       class="fil11 str13"
       d="m 4664.0047,4469.3 170,-106 94,177"
       id="path28098" />
    <path
       style="fill:none;fill-rule:nonzero;stroke:#383332;stroke-width:17.22439957"
       inkscape:connector-curvature="0"
       class="fil11 str14"
       d="m 4580.0047,4154.3 16,62 4,14 63,239 1,0 0,2 m -97,-363 2,8 3,10 7,28"
       id="path28100" />
    <path
       style="fill:none;fill-rule:nonzero;stroke:#383332;stroke-width:43.06299973"
       inkscape:connector-curvature="0"
       class="fil11 str13"
       d="m 4284.0047,4283.3 7,7 20,20 44,44 11,10 98,98 m -187,-186 7,6"
       id="path28102" />
    <path
       style="fill:none;fill-rule:nonzero;stroke:#383332;stroke-width:17.22439957"
       inkscape:connector-curvature="0"
       class="fil11 str14"
       d="m 4110.0047,4566.3 7,2 11,3 28,7 60,17 15,3 239,64 3,1"
       id="path28104" />
    <path
       style="fill:none;fill-rule:nonzero;stroke:#383332;stroke-width:43.06299973"
       inkscape:connector-curvature="0"
       class="fil11 str13"
       d="m 4231.0047,4868.3 133,-36 m -254,69 8,-2 9,-3 29,-8 61,-16 14,-3"
       id="path28106" />
    <path
       style="fill:none;fill-rule:nonzero;stroke:#383332;stroke-width:17.22439957"
       inkscape:connector-curvature="0"
       class="fil11 str14"
       d="m 4284.0047,5185.3 7,-7 20,-20 44,-45 11,-11 175,-175 2,-1 m -266,265 7,-6"
       id="path28108" />
    <path
       style="fill:none;fill-rule:nonzero;stroke:#383332;stroke-width:43.06299973"
       inkscape:connector-curvature="0"
       class="fil11 str13"
       d="m 4568.0047,5359.3 2,-9 3,-9 7,-28 16,-61 4,-15 35,-133"
       id="path28110" />
    <path
       style="fill:none;fill-rule:nonzero;stroke:#383332;stroke-width:17.22439957"
       inkscape:connector-curvature="0"
       class="fil11 str14"
       d="m 4903.0047,5358.3 -3,-8 -2,-9 -8,-29 -16,-61 -4,-14 -64,-239 -1,-2"
       id="path28112" />
    <path
       style="fill:none;fill-rule:nonzero;stroke:#383332;stroke-width:43.06299973"
       inkscape:connector-curvature="0"
       class="fil11 str13"
       d="m 5186.0047,5184.3 -7,-6 -20,-21 -45,-45 -11,-10 -97,-97 m 186,186 -6,-6"
       id="path28114" />
    <path
       style="fill:none;fill-rule:nonzero;stroke:#383332;stroke-width:21.53149986"
       inkscape:connector-curvature="0"
       class="fil11 str8"
       d="m 5193.0047,5191.3 -1,0"
       id="path28116" />
    <path
       style="fill:none;fill-rule:nonzero;stroke:#383332;stroke-width:17.22439957"
       inkscape:connector-curvature="0"
       class="fil11 str14"
       d="m 5360.0047,4901.3 -9,-3 -9,-2 -28,-8 -61,-16 -14,-4 -240,-64 -2,0"
       id="path28118" />
    <path
       style="fill:none;fill-rule:nonzero;stroke:#383332;stroke-width:43.06299973"
       inkscape:connector-curvature="0"
       class="fil11 str13"
       d="m 5360.0047,4566.3 -9,2 -9,3 -28,7 -61,17 -14,3 -134,36"
       id="path28120" />
    <path
       style="fill:none;fill-rule:nonzero;stroke:#383332;stroke-width:17.22439957"
       inkscape:connector-curvature="0"
       class="fil11 str14"
       d="m 4928.0047,4540.3 -1,2"
       id="path28122" />
    <path
       style="fill:none;fill-rule:nonzero;stroke:#383332;stroke-width:43.06299973"
       inkscape:connector-curvature="0"
       class="fil11 str13"
       d="m 4929.0047,4540.3 -1,0"
       id="path28124" />
    <path
       style="fill:none;fill-rule:nonzero;stroke:#383332;stroke-width:17.22439957"
       inkscape:connector-curvature="0"
       class="fil11 str14"
       d="m 5192.0047,4276.3 -6,6 -7,7 -20,21 -45,44 -11,10 -174,176"
       id="path28126" />
    <path
       style="fill:none;fill-rule:nonzero;stroke:#383332;stroke-width:43.06299973"
       inkscape:connector-curvature="0"
       class="fil11 str13"
       d="m 4903.0047,4109.3 -3,7 -3,11 -7,27 -17,62 -3,14 -36,133"
       id="path28128" />
    <path
       style="fill:none;fill-rule:nonzero;stroke:#383332;stroke-width:21.53149986"
       inkscape:connector-curvature="0"
       class="fil11 str8"
       d="m 4903.0047,4108.3 0,1"
       id="path28130" />
  </g>
</svg>
